<?xml version="1.0" encoding="UTF-8" standalone="no"?>
<!-- Created with Inkscape (http://www.inkscape.org/) -->

<svg
   version="1.1"
   width="400"
   height="400"
   id="svg2"
   xmlns:xlink="http://www.w3.org/1999/xlink"
   xmlns="http://www.w3.org/2000/svg"
   xmlns:svg="http://www.w3.org/2000/svg">
  <defs
     id="defs6" />
  <rect
     width="400"
     height="400"
     x="0"
     y="0"
     id="rect3949"
     style="fill:#005bbb;fill-opacity:1;fill-rule:nonzero;stroke:none" />
  <g
     transform="translate(-0.1679533,2.5566966)"
     id="g3827">
    <g
       id="g79">
      <g
         id="g3795">
        <path
           d="m 194.75722,13.996773 a 1,1 0 0 1 -2,0 1,1 0 1 1 2,0 z"
           id="path2862"
           style="fill:#ffd500;fill-opacity:1;fill-rule:nonzero;stroke:none" />
        <use
           transform="translate(6.2670899)"
           id="use2864"
           x="0"
           y="0"
           width="400"
           height="396"
           xlink:href="#path2862" />
        <use
           transform="translate(9.4006348)"
           id="use2866"
           x="0"
           y="0"
           width="400"
           height="396"
           xlink:href="#path2862" />
        <use
           transform="translate(1.7482581,2.7442156)"
           id="use2868"
           x="0"
           y="0"
           width="400"
           height="396"
           xlink:href="#path2862" />
        <use
           transform="translate(4.9914832,2.7442156)"
           id="use2870"
           x="0"
           y="0"
           width="400"
           height="396"
           xlink:href="#path2862" />
        <use
           transform="translate(8.2347083,2.7442156)"
           id="use2872"
           x="0"
           y="0"
           width="400"
           height="396"
           xlink:href="#path2862" />
        <use
           transform="translate(3.6939014,5.7982603)"
           id="use2874"
           x="0"
           y="0"
           width="400"
           height="396"
           xlink:href="#path2862" />
        <use
           transform="translate(6.9371314,5.7982603)"
           id="use2876"
           x="0"
           y="0"
           width="400"
           height="396"
           xlink:href="#path2862" />
        <use
           transform="translate(5.6395393,8.8523051)"
           id="use2878"
           x="0"
           y="0"
           width="400"
           height="396"
           xlink:href="#path2862" />
        <use
           x="0"
           y="0"
           xlink:href="#path2862"
           id="use570"
           transform="translate(3.1335449)"
           width="100%"
           height="100%" />
      </g>
      <g
         id="g231">
        <path
           d="m 198.15602,38.375366 c 3.81153,2.606463 -8.03444,0.118705 -12.08208,-1.496018 -2.94064,-1.173108 -5.05121,-7.459691 -8.28925,-6.06139 -2.4594,1.062057 -2.65088,2.865321 -2.17895,4.951255 0,0 -5.05141,-0.788547 -5.89074,-3.340348 -0.5636,-1.713512 1.40541,-6.117644 0.71733,-6.755799 0,0 -6.69122,-1.491154 -8.89387,-3.29944 0.23459,-0.700206 4.63947,-1.209119 4.53297,-3.021978 -0.0871,-1.482766 -6.58906,-4.182929 -7.036,-5.487564 0.3967,-0.442285 4.24535,0.307827 5.11292,-1.51793 1.02829,-2.163984 -3.30364,-5.806675 -3.30364,-5.806675 5.17598,0.3228321 13.89268,-0.6858972 18.13881,3.47151 0.77755,0.761303 0.40007,-2.7114896 1.83704,-2.6986618 1.38858,0.012396 3.79482,6.5448158 3.79482,6.5448158 2.12183,-0.314273 2.4606,-3.597511 2.61104,-2.527245 l 0.54831,3.900871 c 0,0 -0.92925,2.895762 0.22001,3.353633 0.58213,0.231923 1.5078,-0.613368 1.77187,-1.608398 0.26408,-0.99503 -0.13343,-2.139798 0.46049,-2.886565 0.16634,-0.209148 0.3614,-0.176071 0.56301,-0.154697 0.35096,0.0725 1.33503,0.366284 1.02171,1.378672 0,0 -0.39284,1.14601 -0.3283,1.840432 0.26425,2.843314 7.50335,6.739392 6.32478,9.836187 l -1.37973,3.625352 c 0,0 -2.59477,-3.97752 -4.81463,-4.230476 -5.23053,0.545034 -3.42237,5.736508 -1.02822,6.719622 1.90849,0.783684 10.54341,0.117882 8.78546,1.201332 0,0 -3.97729,2.239675 -4.04151,2.49084 -0.21821,0.853488 2.82635,1.578663 2.82635,1.578663 z"
           id="path209"
           style="fill:#ffd500;fill-opacity:1;fill-rule:nonzero;stroke:none" />
        <path
           d="m 177.13327,35.700253 c 0,0 -0.21936,-1.988073 0.43828,-2.542016 0.67039,-0.564714 2.62966,0 2.62966,0 -1.86882,0.565282 -2.58716,1.514057 -3.06794,2.542016 z"
           id="path211"
           style="fill:#ffd500;fill-opacity:1;stroke:none" />
      </g>
      <g
         id="g207">
        <path
           d="m 201.96875,6.531251 c -1.6391,-0.069692 -4.13817,1.9798536 -4.13817,1.9798536 l -3.22288,1.6208724 c 3.73143,-0.07028 9.68373,0.08663 10.75335,2.267296 l 1.35976,2.772209 c 0,0 -2.00041,2.848578 -2.72081,4.422268 -0.93245,2.036906 -2.51722,4.219407 -2.03125,6.40625 0,0 0.65546,1.852614 0.625,2.8125 -0.0237,0.747958 -1.30499,2.468685 -0.625,2.15625 0,0 3.21282,-2.573107 5.04648,-2.318691 0.86148,0.119527 1.20449,2.55662 2.48064,1.776336 0,0 1.23022,-3.078069 2.72288,-2.805523 1.18992,3.061066 0.10284,4.032367 -0.84375,5.597878 -0.48961,-0.603922 -1.37259,-0.853644 -2.10598,-0.595602 -0.73338,0.258041 -1.26545,1.005656 -1.26902,1.783102 0,0.99811 0.90814,1.906249 1.90625,1.906249 0.71895,0.08174 1.59689,-1.108487 2.4375,-1.999999 0,0 1.6752,-3.9926 3.3125,-3.71875 1.30841,2.61902 2.06961,5.648689 4.625,7.28125 0.82005,0.523904 2.68324,0.471697 3.96875,0.90625 3.35209,1.94933 5.67226,1.146861 8.4375,1.53125 l 6.40625,-0.375 c 0.90446,-0.05294 -2.06887,-1.009815 -1.9375,-1.90625 0.11959,-0.816044 2.1875,-1.15625 2.1875,-1.15625 l 5.875,-0.90625 c 0.51092,-0.07881 -4.54249,-3.344479 -5,-5.875 -0.11432,-0.632298 0.65625,-1.8125 0.65625,-1.8125 0,0 -3.57432,-3.4581 -5.875,-4.09375 -1.15745,-0.319789 -3.59375,0.25 -3.59375,0.25 0,0 -0.66656,0.905336 -1.15625,0.90625 -1.18768,0.0022 -3.7421,-2.569856 -4.79599,-2.022209 l -4.30395,1.939564 1.38119,-3.104855 c 0.61667,-0.316924 1.03054,-0.994154 1.03125,-1.6875 -0.0901,-0.928985 -0.95728,-1.716095 -1.89063,-1.716095 -0.93334,0 -1.8005,0.78711 -1.89062,1.716095 0.002,0.631953 0.34284,1.252906 0.875,1.59375 -3.81443,2.374066 -6.50293,1.287536 -6.93907,0.677674 l -1.74352,-2.437993 c -1.07918,-1.509046 2.9009,0.618736 4.46384,0.04157 1.18974,-0.439349 1.30654,-2.636225 2.5625,-2.8125 0,0 2.58934,-0.192804 3.47985,-0.995872 2.38277,-2.148781 2.5694,-9.2765681 1.81663,-8.5999418 0,0 -1.16474,1.4375473 -1.98398,1.7833138 -1.29846,0.548024 -3.5407,-0.9542995 -4.21875,0.28125 0,0 -1.07088,1.806264 -1.90212,2.314564 -1.23578,0.755675 -3.84788,0.372936 -3.84788,0.372936 0,0 -0.96473,1.341911 -1.6875,1.65625 -0.86056,0.374266 -2.48988,0.288414 -2.72985,-0.618809 -1.11215,-4.2044316 -3.95336,-7.1661529 -5.95765,-7.193691 z m 8.5,3.468749 c -0.83925,0.06787 -1.55929,0.845519 -1.5625,1.6875 0.0976,0.816689 0.865,1.497896 1.6875,1.497896 0.8225,0 1.58993,-0.681207 1.6875,-1.497896 -0.004,-0.9248 -0.88974,-1.7490017 -1.8125,-1.6875 z"
           id="path2826"
           style="fill:#ffd500;fill-opacity:1;fill-rule:nonzero;stroke:none" />
        <path
           d="m 215.99227,35.45224 a 1.4995,1.4995 0 0 1 -2.999,0 1.4995,1.4995 0 1 1 2.999,0 z"
           id="path2831"
           style="fill:#ffd500;fill-opacity:1;fill-rule:nonzero;stroke:none" />
      </g>
    </g>
    <use
       id="use3652"
       x="0"
       y="0"
       width="400"
       height="396"
       xlink:href="#g79"
       transform="translate(75.39957)" />
    <use
       id="use3654"
       x="0"
       y="0"
       width="400"
       height="396"
       xlink:href="#g79"
       transform="translate(-75.50043)" />
    <use
       id="use3656"
       x="0"
       y="0"
       width="400"
       height="396"
       xlink:href="#g79"
       transform="translate(150.59957)" />
    <g
       transform="translate(-152.00049)"
       id="use3756">
      <use
         id="use3764"
         x="0"
         y="0"
         width="400"
         height="396"
         xlink:href="#g3795" />
      <use
         id="use3766"
         x="0"
         y="0"
         width="400"
         height="396"
         xlink:href="#g207" />
    </g>
  </g>
  <g
     transform="translate(-0.1679533,2.5566966)"
     id="g3818">
    <use
       transform="rotate(-90,105.85656,104.91409)"
       id="use3808"
       x="0"
       y="0"
       width="400"
       height="396"
       xlink:href="#g3795" />
    <use
       transform="rotate(-90,105.85656,104.91409)"
       id="use313"
       x="0"
       y="0"
       width="400"
       height="396"
       xlink:href="#g231" />
    <use
       transform="rotate(-90,143.28048,141.63461)"
       id="use3810"
       x="0"
       y="0"
       width="400"
       height="396"
       xlink:href="#g79" />
    <use
       transform="rotate(-90,181.33064,179.68477)"
       id="use3812"
       x="0"
       y="0"
       width="400"
       height="396"
       xlink:href="#g79" />
    <use
       transform="rotate(-90,219.53065,217.88478)"
       id="use3814"
       x="0"
       y="0"
       width="400"
       height="396"
       xlink:href="#g79" />
    <use
       transform="rotate(-90,256.93065,255.28477)"
       id="use3816"
       x="0"
       y="0"
       width="400"
       height="396"
       xlink:href="#g79" />
  </g>
  <g
     transform="rotate(-90,201.00744,197.38831)"
     id="g150">
    <use
       transform="rotate(-90,105.85656,104.91409)"
       id="use138"
       x="0"
       y="0"
       width="400"
       height="396"
       xlink:href="#g3795" />
    <use
       transform="rotate(-90,105.85656,104.91409)"
       id="use140"
       x="0"
       y="0"
       width="400"
       height="396"
       xlink:href="#g231" />
    <use
       transform="rotate(-90,143.28048,141.63461)"
       id="use142"
       x="0"
       y="0"
       width="400"
       height="396"
       xlink:href="#g79" />
    <use
       transform="rotate(-90,181.33064,179.68477)"
       id="use144"
       x="0"
       y="0"
       width="400"
       height="396"
       xlink:href="#g79" />
    <use
       transform="rotate(-90,219.53065,217.88478)"
       id="use146"
       x="0"
       y="0"
       width="400"
       height="396"
       xlink:href="#g79" />
    <use
       transform="rotate(-90,256.93065,255.28477)"
       id="use148"
       x="0"
       y="0"
       width="400"
       height="396"
       xlink:href="#g79" />
  </g>
  <g
     transform="rotate(180,199.72908,199.12506)"
     id="g164">
    <use
       transform="rotate(-90,105.85656,104.91409)"
       id="use152"
       x="0"
       y="0"
       width="400"
       height="396"
       xlink:href="#g3795" />
    <use
       transform="rotate(-90,105.85656,104.91409)"
       id="use154"
       x="0"
       y="0"
       width="400"
       height="396"
       xlink:href="#g231" />
    <use
       transform="rotate(-90,143.28048,141.63461)"
       id="use156"
       x="0"
       y="0"
       width="400"
       height="396"
       xlink:href="#g79" />
    <use
       transform="rotate(-90,181.33064,179.68477)"
       id="use158"
       x="0"
       y="0"
       width="400"
       height="396"
       xlink:href="#g79" />
    <use
       transform="rotate(-90,219.53065,217.88478)"
       id="use160"
       x="0"
       y="0"
       width="400"
       height="396"
       xlink:href="#g79" />
    <use
       transform="rotate(-90,256.93065,255.28477)"
       id="use162"
       x="0"
       y="0"
       width="400"
       height="396"
       xlink:href="#g79" />
  </g>
  <path
     d="m 198.33173,71.603698 c -6.01063,6.819415 -9.67361,15.745976 -9.67361,25.54385 0.35646,21.513012 2.99552,42.982612 3.22463,64.488992 0.47737,20.04377 -5.53598,38.86963 -12.84729,57.23401 -2.43627,5.0749 -5.07153,10.04211 -7.70863,15.01404 l -7.75871,-1.56202 c -6.98157,-1.39579 -11.52251,-8.18353 -10.12652,-15.16493 1.22109,-6.10877 6.5978,-10.35057 12.5953,-10.37879 l 2.82138,0.30204 -6.29788,-52.5987 c -2.05833,-23.42241 -14.14231,-43.96772 -31.94206,-57.334643 -3.05879,-2.29716 -6.29984,-4.39716 -9.67343,-6.24746 l 0,186.816743 43.12714,0 c 3.2246,17.50521 12.8587,32.75552 26.40002,43.22787 3.22121,2.21973 5.91928,5.14775 7.85966,8.565 1.9406,-3.41725 4.63866,-6.34527 7.85965,-8.565 13.54149,-10.47235 23.17554,-25.72266 26.40005,-43.22787 l 43.12716,0 0,-186.816743 c -3.37343,1.8503 -6.61444,3.9503 -9.67325,6.24746 -17.79985,13.366923 -29.8838,33.912233 -31.94229,57.334643 l -6.29771,52.5987 2.82136,-0.30204 c 5.99736,0.0276 11.37422,4.27002 12.59562,10.37879 1.39567,6.9814 -3.14539,13.76914 -10.127,15.16493 l -7.7588,1.56202 c -2.63682,-4.97193 -5.27199,-9.93914 -7.7084,-15.01404 -7.31129,-18.36438 -13.32448,-37.19024 -12.84745,-57.23401 0.22899,-21.50638 2.86823,-42.97598 3.22435,-64.488993 0,-9.797874 -3.6627,-18.724435 -9.67329,-25.54385 z m -64.48901,46.200482 c 8.34667,9.79574 13.9481,22.00276 15.61846,35.41851 l 5.18936,43.37901 c -6.6078,3.28972 -11.61706,9.32477 -13.50239,16.62614 l -7.30543,0 0,-95.42366 z m 128.97822,0 0,95.42366 -7.30552,0 c -1.88515,-7.30137 -6.89419,-13.33642 -13.50234,-16.62614 l 5.1897,-43.37901 c 1.66993,-13.41575 7.27144,-25.62277 15.61816,-35.41851 z m -64.48921,87.21129 c 3.46455,11.33186 8.23143,22.09248 14.15718,32.09342 -5.63654,1.71233 -10.54218,5.04308 -14.15718,9.52243 -3.61487,-4.47935 -8.52057,-7.8101 -14.15733,-9.52243 5.92622,-10.00094 10.69279,-20.76156 14.15733,-32.09342 z m -64.48901,21.11027 7.30543,0 c 2.30324,8.90092 9.25255,15.93407 18.08707,18.38939 l 6.19703,1.41062 c -1.6593,6.01545 -2.56944,12.3532 -2.56944,18.89338 l -29.02009,0 0,-38.69339 z m 121.6727,0 7.30552,0 0,38.69339 -29.02021,0 c 0,-6.54018 -0.91012,-12.87793 -2.56937,-18.89338 l 6.19678,-1.41062 c 8.83478,-2.45532 15.78385,-9.48847 18.08728,-18.38939 z m -77.48764,22.7726 c 7.82418,1.10582 13.85497,7.79302 13.85497,15.92079 l -16.12207,0 c 0,-5.52894 0.81884,-10.8569 2.2671,-15.92079 z m 40.60794,0 c 1.44825,5.06389 2.2671,10.39185 2.2671,15.92079 l -16.12215,0 c 0,-8.12777 6.03116,-14.81497 13.85505,-15.92079 z m -41.41392,28.81849 14.66095,0 0,27.15597 c -7.11513,-7.43839 -12.28359,-16.77851 -14.66095,-27.15597 z m 27.55887,0 14.66119,0 c -2.37733,10.37746 -7.5463,19.71758 -14.66119,27.15597 l 0,-27.15597 z"
     id="path7306"
     style="fill:#ffd500" />
</svg>
