<?xml version="1.0" encoding="UTF-8" standalone="no"?>
<!-- Created with Inkscape (http://www.inkscape.org/) -->

<svg
   xmlns:dc="http://purl.org/dc/elements/1.1/"
   xmlns:cc="http://creativecommons.org/ns#"
   xmlns:rdf="http://www.w3.org/1999/02/22-rdf-syntax-ns#"
   xmlns:svg="http://www.w3.org/2000/svg"
   xmlns="http://www.w3.org/2000/svg"
   xmlns:sodipodi="http://sodipodi.sourceforge.net/DTD/sodipodi-0.dtd"
   xmlns:inkscape="http://www.inkscape.org/namespaces/inkscape"
   width="765.35846"
   height="514.8371"
   id="svg2"
   version="1.1"
   inkscape:version="0.48.2 r9819"
   sodipodi:docname="AJAX.svg">
  <defs
     id="defs4" />
  <sodipodi:namedview
     id="base"
     pagecolor="#ffffff"
     bordercolor="#666666"
     borderopacity="1.0"
     inkscape:pageopacity="0.0"
     inkscape:pageshadow="2"
     inkscape:zoom="0.54565796"
     inkscape:cx="599.14724"
     inkscape:cy="260.31828"
     inkscape:document-units="px"
     inkscape:current-layer="layer1"
     showgrid="false"
     inkscape:window-width="1280"
     inkscape:window-height="1004"
     inkscape:window-x="-8"
     inkscape:window-y="-8"
     inkscape:window-maximized="1"
     fit-margin-top="75"
     fit-margin-bottom="75"
     fit-margin-left="275"
     fit-margin-right="275" />
  <metadata
     id="metadata7">
    <rdf:RDF>
      <cc:Work
         rdf:about="">
        <dc:format>image/svg+xml</dc:format>
        <dc:type
           rdf:resource="http://purl.org/dc/dcmitype/StillImage" />
        <dc:title />
      </cc:Work>
    </rdf:RDF>
  </metadata>
  <g
     inkscape:label="Layer 1"
     inkscape:groupmode="layer"
     id="layer1"
     transform="translate(-29.03674,-1565.4563)">
    <rect
       style="fill:#005bbb;fill-opacity:1;fill-rule:evenodd;stroke:none"
       id="rect2985"
       width="781.42432"
       height="539.61609"
       x="24.95849"
       y="1555.2939" />
    <path
       style="fill:#ffd500;fill-opacity:1;stroke:none"
       id="path7306"
       d="m 411.71596,1640.4563 c -8.36333,9.6469 -13.45991,22.2746 -13.45991,36.1348 0.49562,30.4324 4.16773,60.8034 4.48664,91.2267 0.6639,28.3542 -7.7031,54.9854 -17.87643,80.9642 -3.38986,7.1788 -7.05672,14.2053 -10.72587,21.2388 l -10.79597,-2.2096 c -9.71422,-1.9744 -16.03298,-11.5766 -14.09082,-21.4524 1.6994,-8.6416 9.18083,-14.6421 17.52592,-14.682 l 3.9258,0.4276 -8.76297,-74.4069 c -2.86421,-33.1339 -19.67845,-62.1975 -44.44571,-81.1064 -4.25616,-3.2498 -8.76576,-6.2205 -13.4599,-8.8378 l 0,264.2732 60.00873,0 c 4.48693,24.7633 17.8922,46.3363 36.73429,61.1507 4.48191,3.1406 8.23609,7.2827 10.9362,12.1162 2.70011,-4.8335 6.45429,-8.9756 10.93618,-12.1162 18.8421,-14.8144 32.2474,-36.3874 36.7343,-61.1507 l 60.00873,0 0,-264.2732 c -4.69413,2.6173 -9.20374,5.588 -13.4599,8.8378 -24.76726,18.9089 -41.58149,47.9725 -44.44571,81.1064 l -8.76297,74.4069 3.9258,-0.4276 c 8.3451,0.039 15.82653,6.0404 17.52593,14.682 1.94215,9.8758 -4.37659,19.478 -14.09083,21.4524 l -10.79597,2.2096 c -3.66912,-7.0335 -7.33599,-14.06 -10.72586,-21.2388 -10.17333,-25.9788 -18.54033,-52.61 -17.87643,-80.9642 0.3189,-30.4233 3.99101,-60.7943 4.48662,-91.2267 0,-13.8602 -5.09657,-26.4879 -13.45989,-36.1348 z m -89.73267,65.3558 c 11.61383,13.8571 19.40812,31.1252 21.73212,50.1035 l 7.22068,61.3643 c -9.19438,4.6538 -16.16459,13.1909 -18.78779,23.5197 l -10.16501,0 0,-134.9875 z m 179.46536,0 0,134.9875 -10.16504,0 c -2.62319,-10.3288 -9.59341,-18.8659 -18.78779,-23.5197 l 7.22069,-61.3643 c 2.32399,-18.9783 10.11829,-36.2464 21.73214,-50.1035 z m -89.73269,123.3702 c 4.82079,16.03 11.45328,31.2517 19.69912,45.3997 -7.84311,2.4224 -14.66915,7.1339 -19.69912,13.4703 -5.02999,-6.3364 -11.85602,-11.0479 -19.69913,-13.4703 8.24583,-14.148 14.87833,-29.3697 19.69913,-45.3997 z m -89.73267,29.8627 10.16501,0 c 3.20495,12.5916 12.87445,22.5406 25.16721,26.0137 l 8.62275,1.9958 c -2.30886,8.5094 -3.57528,17.4749 -3.57528,26.7267 l -40.37969,0 0,-54.7362 z m 169.30032,0 10.16504,0 0,54.7362 -40.37971,0 c 0,-9.2518 -1.26643,-18.2173 -3.57529,-26.7267 l 8.62275,-1.9958 c 12.29276,-3.4731 21.96229,-13.4221 25.16721,-26.0137 z m -107.81944,32.2144 c 10.88681,1.5644 19.27852,11.0242 19.27852,22.5218 l -22.43316,0 c 0,-7.8211 1.13957,-15.3582 3.15464,-22.5218 z m 56.50357,0 c 2.01507,7.1636 3.15468,14.7007 3.15468,22.5218 l -22.43319,0 c 0,-11.4976 8.39171,-20.9574 19.27851,-22.5218 z m -57.62522,40.7671 20.40017,0 0,38.4151 c -9.90037,-10.5224 -17.0923,-23.735 -20.40017,-38.4151 z m 38.34671,0 20.40016,0 c -3.30786,14.6801 -10.49982,27.8927 -20.40016,38.4151 l 0,-38.4151 z"
       inkscape:connector-curvature="0" />
  </g>
</svg>
