<?xml version="1.0" encoding="UTF-8" standalone="no"?>
<!-- Created with Inkscape (http://www.inkscape.org/) -->
<svg
   xmlns:svg="http://www.w3.org/2000/svg"
   xmlns="http://www.w3.org/2000/svg"
   version="1.0"
   width="500"
   height="300.00003"
   id="svg2">
  <defs
     id="defs4" />
  <g
     transform="translate(-7.152895e-6,-752.36219)"
     id="layer1">
    <g
       transform="matrix(1.6666667,0,0,1.6666667,-357.64475,-697.26582)"
       id="g4257">
      <path
         d="M 214.58685,869.77679 L 514.58685,869.77679 L 514.58685,1049.7768 L 214.58685,1049.7768 L 214.58685,869.77679 z "
         style="fill:#de0000;fill-opacity:1;fill-rule:nonzero;stroke-width:0.25;stroke-linecap:square;stroke-linejoin:miter;stroke-miterlimit:4;stroke-opacity:1"
         id="rect2237" />
      <path
         d="M 273.8681,890.7768 C 270.38759,890.77684 267.56635,892.30454 265.4306,895.3393 C 263.29484,898.35916 262.2431,902.58651 262.2431,908.05805 C 262.2431,913.23063 263.30615,917.31811 265.4306,920.30805 C 267.55505,923.28303 270.25592,924.77679 273.5556,924.7768 C 276.22245,924.7768 278.42039,923.91723 280.14935,922.18305 C 281.88959,920.43394 283.15352,917.77096 283.89935,914.18305 L 279.02435,912.12055 C 278.60625,914.52747 277.92233,916.31182 276.96185,917.43305 C 276.0013,918.55428 274.85776,919.0893 273.52435,919.0893 C 271.71627,919.0893 270.24812,918.22838 269.1181,916.4643 C 267.98806,914.70027 267.39934,911.74533 267.39935,907.5893 C 267.39934,903.67251 267.97676,900.83844 269.1181,899.0893 C 270.27072,897.34019 271.77614,896.46435 273.6181,896.4643 C 274.95154,896.46434 276.06645,896.94639 276.9931,897.93305 C 277.931,898.91976 278.57428,900.26005 278.8681,901.9643 L 283.8056,900.4018 C 283.24056,897.7707 282.40437,895.74457 281.27435,894.3393 C 279.37587,891.96231 276.90787,890.77685 273.8681,890.7768 z M 234.58685,891.0268 L 241.4306,914.93305 C 241.14808,916.26354 240.74296,917.33094 240.21185,918.18305 C 239.68073,919.05016 238.88178,919.49556 237.77435,919.49555 C 237.17543,919.49555 236.48892,919.40864 235.7431,919.2143 L 236.1806,924.1518 C 237.06202,924.40592 237.95277,924.5268 238.8681,924.5268 C 239.77212,924.5268 240.59367,924.40592 241.3056,924.1518 C 242.02881,923.89764 242.63218,923.52146 243.1181,923.05805 C 243.6153,922.60955 244.02644,922.0093 244.39935,921.2768 C 244.78355,920.54425 245.19998,919.51088 245.6181,918.12055 L 246.7431,913.9643 L 253.1181,891.0268 L 248.1806,891.0268 L 243.96185,907.93305 L 239.64935,891.0268 L 234.58685,891.0268 z M 297.83685,891.3393 L 297.83685,924.2143 L 302.8681,924.2143 L 302.8681,911.80805 L 306.1181,911.80805 C 308.38947,911.80808 310.139,911.65325 311.33685,911.3393 C 312.21825,911.08514 313.08305,910.58547 313.9306,909.80805 C 314.78937,909.01573 315.50184,907.93345 316.0556,906.55805 C 316.60929,905.18269 316.86807,903.48252 316.8681,901.4643 C 316.86807,898.84812 316.39109,896.70254 315.4306,895.05805 C 314.47005,893.39865 313.29192,892.33266 311.8681,891.8393 C 310.94146,891.51044 308.95044,891.33934 305.89935,891.3393 L 297.83685,891.3393 z M 326.1806,891.3393 L 326.1806,924.2143 L 331.21185,924.2143 L 331.21185,911.80805 L 334.46185,911.80805 C 336.73319,911.80808 338.48274,911.65325 339.6806,911.3393 C 340.562,911.08514 341.42683,910.58547 342.27435,909.80805 C 343.13316,909.01573 343.84563,907.93345 344.39935,906.55805 C 344.95305,905.18269 345.21184,903.48252 345.21185,901.4643 C 345.21185,898.84812 344.73484,896.70254 343.77435,895.05805 C 342.8138,893.39865 341.63566,892.33266 340.21185,891.8393 C 339.2852,891.51044 337.29416,891.33934 334.2431,891.3393 L 326.1806,891.3393 z M 302.8681,896.9018 L 305.27435,896.9018 C 307.0824,896.90184 308.30043,896.97111 308.89935,897.12055 C 309.71297,897.31493 310.36822,897.81193 310.89935,898.5893 C 311.43046,899.36671 311.71183,900.36212 311.71185,901.55805 C 311.71182,902.52979 311.50231,903.35678 311.1181,904.0893 C 310.74518,904.82185 310.22229,905.37047 309.5556,905.7143 C 308.88885,906.05816 307.56438,906.24556 305.58685,906.24555 L 302.8681,906.24555 L 302.8681,896.9018 z M 331.21185,896.9018 L 333.6181,896.9018 C 335.42615,896.90184 336.64416,896.97111 337.2431,897.12055 C 338.0567,897.31493 338.71197,897.81193 339.2431,898.5893 C 339.7742,899.36671 340.0556,900.36212 340.0556,901.55805 C 340.0556,902.52979 339.84605,903.35678 339.46185,904.0893 C 339.08893,904.82185 338.56607,905.37047 337.89935,905.7143 C 337.23263,906.05816 335.90814,906.24556 333.9306,906.24555 L 331.21185,906.24555 L 331.21185,896.9018 z M 253.46185,917.9018 L 253.46185,924.2143 L 258.21185,924.2143 L 258.21185,917.9018 L 253.46185,917.9018 z M 288.1806,917.9018 L 288.1806,924.2143 L 292.9306,924.2143 L 292.9306,917.9018 L 288.1806,917.9018 z M 316.52435,917.9018 L 316.52435,924.2143 L 321.27435,924.2143 L 321.27435,917.9018 L 316.52435,917.9018 z M 344.8681,917.9018 L 344.8681,924.2143 L 349.6181,924.2143 L 349.6181,917.9018 L 344.8681,917.9018 z "
         style="fill:#fcd115;fill-opacity:1"
         id="path2259" />
    </g>
  </g>
</svg>
