<?xml version="1.0" encoding="UTF-8" standalone="no"?>
<svg
   xmlns:dc="http://purl.org/dc/elements/1.1/"
   xmlns:cc="http://creativecommons.org/ns#"
   xmlns:rdf="http://www.w3.org/1999/02/22-rdf-syntax-ns#"
   xmlns:svg="http://www.w3.org/2000/svg"
   xmlns="http://www.w3.org/2000/svg"
   xmlns:sodipodi="http://sodipodi.sourceforge.net/DTD/sodipodi-0.dtd"
   xmlns:inkscape="http://www.inkscape.org/namespaces/inkscape"
   version="1.0"
   width="900"
   height="600"
   id="Flag_of_the_Holy_Roman_Empire_between_1200_and_1350"
   inkscape:version="0.48.2 r9819"
   sodipodi:docname="Royal Standard of the Hetman of Ukraine (1918).svg">
  <metadata
     id="metadata10">
    <rdf:RDF>
      <cc:Work
         rdf:about="">
        <dc:format>image/svg+xml</dc:format>
        <dc:type
           rdf:resource="http://purl.org/dc/dcmitype/StillImage" />
      </cc:Work>
    </rdf:RDF>
  </metadata>
  <defs
     id="defs8">
    <style
       id="style2986"
       type="text/css">
   
    .fil0 {fill:#DE0000;fill-rule:nonzero}
    .fil1 {fill:#FFD116;fill-rule:nonzero}
   
  </style>
  </defs>
  <sodipodi:namedview
     pagecolor="#ffffff"
     bordercolor="#666666"
     borderopacity="1"
     objecttolerance="10"
     gridtolerance="10"
     guidetolerance="10"
     inkscape:pageopacity="0"
     inkscape:pageshadow="2"
     inkscape:window-width="938"
     inkscape:window-height="755"
     id="namedview6"
     showgrid="false"
     inkscape:zoom="0.75"
     inkscape:cx="450"
     inkscape:cy="300"
     inkscape:window-x="173"
     inkscape:window-y="92"
     inkscape:window-maximized="0"
     inkscape:current-layer="Flag_of_the_Holy_Roman_Empire_between_1200_and_1350">
    <inkscape:grid
       type="xygrid"
       id="grid3045" />
  </sodipodi:namedview>
  <rect
     style="fill:#005bbb"
     y="0"
     x="0"
     width="900"
     height="300"
     id="rect2994" />
  <rect
     style="fill:#ffd500"
     x="0"
     width="900"
     height="300"
     y="300"
     id="rect2996" />
  <rect
     id="rect3021"
     height="292.00101"
     width="432.00101"
     x="233.9995"
     y="153.9995"
     style="fill:#005bbb;fill-opacity:1;stroke:#c39c29;stroke-width:7.99899817;stroke-opacity:1" />
  <path
     inkscape:connector-curvature="0"
     d="m 450,190 c -5.82518,5.8171 -9.375,13.43169 -9.375,21.78947 0.3452,18.35115 2.90287,36.66509 3.125,55.01073 0.46242,17.09776 -5.36532,33.15662 -12.45118,48.82202 -2.36109,4.32893 -4.91509,8.56597 -7.4707,12.80719 l -7.51954,-1.33237 c -6.76608,-1.19056 -11.16718,-6.98072 -9.81445,-12.93606 1.18367,-5.21088 6.39458,-8.82934 12.20705,-8.85328 l 2.73437,0.25787 -6.10352,-44.86812 c -1.99497,-19.98003 -13.7063,-37.50563 -30.95703,-48.90798 -2.96448,-1.95949 -6.10548,-3.75089 -9.375,-5.32915 l 0,159.35919 41.79687,0 c 3.1252,14.93239 12.46215,27.94118 25.58593,36.87437 3.1217,1.89374 5.73653,4.39137 7.6172,7.30612 1.88067,-2.91475 4.4955,-5.41238 7.61719,-7.30612 13.12378,-8.93319 22.46074,-21.94198 25.58593,-36.87437 l 41.79688,0 0,-159.35919 c -3.26953,1.57826 -6.41053,3.36966 -9.37501,5.32915 -17.25071,11.40235 -28.96206,28.92795 -30.95702,48.90798 l -6.10352,44.86812 2.73438,-0.25787 c 5.81246,0.024 11.02338,3.6424 12.20703,8.85328 1.35273,5.95534 -3.04835,11.7455 -9.81444,12.93606 l -7.51955,1.33237 c -2.55559,-4.24122 -5.10961,-8.47826 -7.4707,-12.80719 -7.08585,-15.6654 -12.91359,-31.72426 -12.45117,-48.82202 0.22212,-18.34564 2.77979,-36.65958 3.12499,-55.01073 0,-8.35778 -3.54982,-15.97237 -9.37499,-21.78947 z m -62.5,39.41011 c 8.08918,8.35599 13.51803,18.76882 15.13673,30.21284 l 5.02929,37.00338 c -6.40401,2.80609 -11.25885,7.95413 -13.08594,14.18246 l -7.08008,0 0,-81.39868 z m 125,0 0,81.39868 -7.08007,0 c -1.8271,-6.22833 -6.68194,-11.37637 -13.08595,-14.18246 l 5.02931,-37.00338 C 498.98198,248.17893 504.41082,237.7661 512.5,229.41011 z M 450,303.80343 c 3.35775,9.66635 7.97737,18.84517 13.7207,27.37651 -5.46282,1.46065 -10.21726,4.30185 -13.7207,8.12261 -3.50346,-3.82076 -8.25787,-6.66196 -13.7207,-8.12261 5.74332,-8.53134 10.36295,-17.71016 13.7207,-27.37651 z m -62.5,18.0075 7.08008,0 c 2.23228,7.59286 8.96722,13.59219 17.52929,15.68657 l 6.00585,1.20336 c -1.60814,5.13127 -2.49022,10.53758 -2.49022,16.1165 l -28.125,0 0,-33.00643 z m 117.91993,0 7.08007,0 0,33.00643 -28.125,0 c 0,-5.57892 -0.88207,-10.98523 -2.49023,-16.1165 l 6.00585,-1.20336 c 8.56208,-2.09438 15.29703,-8.09371 17.52931,-15.68657 z m -75.09766,19.42565 c 7.58279,0.94331 13.42773,6.64765 13.42773,13.58078 l -15.625,0 c 0,-4.7162 0.79373,-9.26118 2.19727,-13.58078 z m 39.35546,0 c 1.40354,4.3196 2.19729,8.86458 2.19729,13.58078 l -15.62502,0 c 0,-6.93313 5.84493,-12.63747 13.42773,-13.58078 z m -40.13671,24.58293 14.20898,0 0,23.16461 c -6.89574,-6.34509 -11.90501,-14.31242 -14.20898,-23.16461 z m 26.70898,0 14.20898,0 c -2.30395,8.85219 -7.31326,16.81952 -14.20898,23.16461 l 0,-23.16461 z"
     id="path7306"
     style="fill:#c39c29;fill-opacity:1" />
</svg>
