<svg xmlns="http://www.w3.org/2000/svg" height="600" width="900"><g transform="translate(-69.284 -358.076)"><path fill="#009de0" d="M969.284 958.076h-900v-600h900z"/><path d="M69.284 358.076v85.715L461.97 571.608l8.625-12.657-319.53-200.875zm232.031 0l180.094 190.97 15.937-8.5-115.718-182.47zm176.406 0l36.125 178.907h10.875l36.125-178.907zm179.22 0l-115.72 182.47c5.735 2.073 11.088 4.978 15.938 8.5l180.094-190.97zm230.562 0L567.97 558.951l8.625 12.657L969.284 443.79v-85.715zM69.283 529.505v85.714l385.595-10.695 2.5-21.573zm900 0L581.19 582.951l2.5 21.573 385.594 10.695zm-512.155 89.196L69.284 700.934v85.714L464.846 634.88l-7.718-16.18zm124.312 0l-7.719 16.18 395.563 151.767v-85.714zm-106.719 29.282L69.284 872.363v85.713h77.437l337.125-302.843-9.125-7.25zm89.125 0l-9.125 7.25 337.125 302.843h77.438v-85.714zm-70.218 12.562L280.065 958.076h90.031l134.938-293.812-11.406-3.719zm51.312 0l-11.406 3.719L668.47 958.076h90.032zm-28.687 5.219L469.97 958.076h98.625l-46.28-292.312h-6.063z" fill="#ffee01"/><ellipse transform="scale(1 -1)" cx="519.288" cy="-601.294" rx="77.5" ry="77.5" fill="#ffee01"/><g fill="#c00"><path d="M568.425 585.328l-79.506 57.765 31.088-40.809z"/><path d="M519.288 549.627l-30.37 93.466 32.314-40.405z"/><path d="M549.657 643.093l-30.37-93.466-2.194 51.849z"/><path d="M568.425 585.328H470.15l49.265 21.39z"/><path d="M549.657 643.093l-79.507-57.765 51.372 13.341z"/><path d="M1395.327-1706.81h331v331h-331z" stroke="#c00" stroke-width="1.257" stroke-miterlimit="10" transform="matrix(.07955 0 0 .07955 394.689 725.855)"/></g><g stroke-width="3" stroke-linecap="round" stroke-linejoin="round"><path d="M568.252 669.2c15.605 19.996 40.157 35.374 62.275 18.528l-25.635-8.38-28.58-19.851" fill="#fff" stroke="#000"/><path d="M586.035 669.2c15.606 19.996 40.157 35.374 62.275 18.528l-25.634-8.38-28.581-19.851" fill="#fff" stroke="#000"/><path d="M556.422 673.88c24.028 20.035 38.831 16.45 44.527 7.188l-16.186-4.089-19.082-10.285" fill="#fff" stroke="#000"/><path d="M556.783 661.618c43.11 31.184 61.458 30.759 64.94 15.544l-14.6-2.228-38.004-19.789" fill="#fff" stroke="#000"/><path d="M603.44 668.066c15.606 19.994 40.157 35.373 62.275 18.527l-25.634-8.38L611.5 658.36" fill="#fff" stroke="#000"/><path d="M578.593 677.664c-2.156 16.59-24.162 13.655-50.411.756l17.446-10.612z" stroke="#fff"/><path d="M625.425 668.692c15.606 19.995 42.14 33.638 62.523 16.792l-23.651-6.893-28.581-19.851" fill="#fff" stroke="#000"/><path d="M573.223 659.335c51.434 36.102 68.099 29.636 71.58 14.421l-15.734-1.47-37.248-19.79" fill="#fff" stroke="#000"/><path d="M594.43 669.116c-1.483 16.665-23.59 14.62-50.339 2.793l17.003-11.308z" stroke="#fff"/><path d="M642.747 668.475c17.101 18.731 43.757 31.922 64.51 13.42l-26.204-6.377-30.027-17.588" fill="#fff" stroke="#000"/><path d="M585.7 655.49c52.238 34.994 75.65 31.098 79.787 16.048l-14.242.182-48.6-18.506" fill="#fff" stroke="#000"/><path d="M611.384 660.744c-.942 16.704-23.103 15.378-50.222 4.426l16.627-11.854z" stroke="#fff"/><path d="M647.04 662.799c30.037 21.332 71.303 36.064 91.637 2.441l-35.679 4.98-40.62-11.912" fill="#fff" stroke="#000"/><path d="M668.114 663.539c33.048 16.281 73.957 25.196 88.682-11.234L722.365 662.9l-42-5.298" fill="#fff" stroke="#000"/><path d="M603.808 657.848c55.102 26.378 79.24 20.545 80.56 4.992l-13.97 2.78-50.783-13.481" fill="#fff" stroke="#000"/><path d="M628.901 651.262c.299 16.727-21.9 17.048-49.756 8.135l15.703-13.054zM563.488 666.583c.276 15.498-18.759 16.912-43.713 9.947l16.727-13.845z" stroke="#fff"/><path d="M576.968 658.198c.283 15.863-19.664 16.971-45.48 9.444l11.427-14.362z" stroke="#fff"/><path d="M590.448 649.814c.299 16.728-21.9 17.048-49.755 8.135l15.702-13.054z" stroke="#fff"/><path d="M686.198 662.39c38.345 8.336 73.722 18.138 88.447-18.292l-29.84 12.017-45.521-1.54" fill="#fff" stroke="#000"/><path d="M693.608 655.71c42.508 5.687 77.976 13.35 92.701-23.08l-34.053 14-45.405 1.135" fill="#fff" stroke="#000"/><path d="M785.02 622.587a4.5 4.5 0 0 1 3.875 6.438c-6.11 13.34-21.513 19.176-37.593 21.968-16.08 2.793-33.571 2.465-45.907 1.625a4.5 4.5 0 1 1 .625-8.968c11.9.81 28.887 1.08 43.75-1.5 14.864-2.581 26.9-8.06 30.938-16.875a4.5 4.5 0 0 1 4.312-2.688zM621.405 657.107c63.167 20.706 81.147 11.183 80.906-4.423l-13.622 4.162-51.836-4.162" fill="#fff" stroke="#000"/><path d="M635.34 652.305c60.701 17.458 80.077 7.282 79.835-8.324l-24.215 6.81-48.81-7.188" fill="#fff" stroke="#000"/><path d="M646.685 643.7c.298 16.728-21.9 17.048-49.756 8.135l15.702-13.054z" stroke="#fff"/><path d="M719.125 632.035a4.5 4.5 0 0 1 3.969 6.375c-3.483 7.924-13.55 15.187-28.719 15.187-20.171 0-36.899-3.296-52.687-6.343a4.5 4.5 0 1 1 1.687-8.813c15.802 3.05 31.803 6.156 51 6.156 12.225 0 18.884-6.207 20.469-9.812a4.5 4.5 0 0 1 4.281-2.75z" fill="#fff" stroke="#000"/><path d="M603.929 641.43c.298 16.727-21.9 17.048-49.756 8.135l15.702-13.054z" stroke="#fff"/><path d="M659.476 632.226c.189-.004.371.01.562.03a4.523 4.523 0 0 1 3.719 2.845 4.49 4.49 0 0 1-.813 4.593c-3.182 3.802-9.31 7.75-17.375 7.75-7.162 0-12.163-.916-16.5-1.75-4.337-.833-7.934-1.562-13.375-1.562-1.943 0-4.062.595-6.3 1.644l6.3-10.644c6.288 0 10.816.897 15.094 1.719 4.278.822 8.35 1.593 14.781 1.593 4.507 0 9.611-3.483 10.47-4.53a4.578 4.578 0 0 1 3.437-1.688z" fill="#fff" stroke="#000"/><g><path d="M470.323 669.2c-15.605 19.996-40.157 35.374-62.275 18.528l25.635-8.38 28.58-19.851" fill="#fff" stroke="#000"/><path d="M452.54 669.2c-15.606 19.996-40.157 35.374-62.275 18.528l25.634-8.38 28.581-19.851" fill="#fff" stroke="#000"/><path d="M482.154 673.88c-24.03 20.035-38.832 16.45-44.528 7.188l16.186-4.089 19.082-10.285" fill="#fff" stroke="#000"/><path d="M481.792 661.618c-43.11 31.184-61.458 30.759-64.94 15.544l14.6-2.228 38.004-19.789" fill="#fff" stroke="#000"/><path d="M435.135 668.066c-15.606 19.994-40.157 35.373-62.275 18.527l25.634-8.38 28.581-19.852" fill="#fff" stroke="#000"/><path d="M459.983 677.664c2.155 16.59 24.161 13.655 50.41.756l-17.445-10.612z" stroke="#fff"/><path d="M413.15 668.692c-15.606 19.995-42.14 33.638-62.523 16.792l23.651-6.893 28.581-19.851" fill="#fff" stroke="#000"/><path d="M465.352 659.335c-51.434 36.102-68.099 29.636-71.58 14.421l15.734-1.47 37.248-19.79" fill="#fff" stroke="#000"/><path d="M444.145 669.116c1.483 16.665 23.59 14.62 50.339 2.793l-17.003-11.308z" stroke="#fff"/><path d="M395.828 668.475c-17.101 18.731-43.757 31.922-64.51 13.42l26.204-6.377 30.027-17.588" fill="#fff" stroke="#000"/><path d="M452.875 655.49c-52.238 34.994-75.65 31.098-79.787 16.048l14.242.182 48.6-18.506" fill="#fff" stroke="#000"/><path d="M427.191 660.744c.942 16.704 23.103 15.378 50.222 4.426l-16.626-11.854z" stroke="#fff"/><path d="M391.535 662.799c-30.037 21.332-71.303 36.064-91.637 2.441l35.679 4.98 40.62-11.912" fill="#fff" stroke="#000"/><path d="M370.461 663.539c-33.048 16.281-73.957 25.196-88.682-11.234L316.21 662.9l41.999-5.298" fill="#fff" stroke="#000"/><path d="M434.767 657.848c-55.102 26.378-79.24 20.545-80.56 4.992l13.97 2.78 50.783-13.481" fill="#fff" stroke="#000"/><path d="M409.674 651.262c-.299 16.727 21.9 17.048 49.756 8.135l-15.703-13.054zM475.087 666.583c-.276 15.498 18.759 16.912 43.713 9.947l-16.727-13.845z" stroke="#fff"/><path d="M461.607 658.198c-.283 15.863 19.664 16.971 45.48 9.444l-11.426-14.362z" stroke="#fff"/><path d="M448.127 649.814c-.299 16.728 21.9 17.048 49.756 8.135l-15.703-13.054z" stroke="#fff"/><path d="M352.377 662.39c-38.345 8.336-73.722 18.138-88.447-18.292l29.84 12.017 45.521-1.54" fill="#fff" stroke="#000"/><path d="M344.967 655.71c-42.508 5.687-77.976 13.35-92.701-23.08l34.053 14 45.405 1.135" fill="#fff" stroke="#000"/><path d="M253.555 622.587a4.5 4.5 0 0 0-3.875 6.438c6.11 13.34 21.513 19.176 37.593 21.968 16.081 2.793 33.571 2.465 45.907 1.625a4.5 4.5 0 1 0-.625-8.968c-11.9.81-28.887 1.08-43.75-1.5-14.864-2.581-26.9-8.06-30.938-16.875a4.5 4.5 0 0 0-4.312-2.688zM417.17 657.107c-63.167 20.706-81.147 11.183-80.906-4.423l13.622 4.162 51.836-4.162" fill="#fff" stroke="#000"/><path d="M403.236 652.305c-60.702 17.458-80.078 7.282-79.836-8.324l24.215 6.81 48.81-7.188" fill="#fff" stroke="#000"/><path d="M391.89 643.7c-.298 16.728 21.9 17.048 49.756 8.135l-15.702-13.054z" stroke="#fff"/><path d="M319.45 632.035a4.5 4.5 0 0 0-3.969 6.375c3.484 7.924 13.55 15.187 28.719 15.187 20.171 0 36.899-3.296 52.687-6.343a4.5 4.5 0 1 0-1.687-8.813c-15.802 3.05-31.803 6.156-51 6.156-12.225 0-18.884-6.207-20.469-9.812a4.5 4.5 0 0 0-4.281-2.75z" fill="#fff" stroke="#000"/><path d="M434.646 641.43c-.298 16.727 21.9 17.048 49.756 8.135L468.7 636.51z" stroke="#fff"/><path d="M379.1 632.226c-.19-.004-.372.01-.563.03a4.523 4.523 0 0 0-3.719 2.845 4.49 4.49 0 0 0 .813 4.593c3.182 3.802 9.31 7.75 17.375 7.75 7.162 0 12.163-.916 16.5-1.75 4.337-.833 7.934-1.562 13.375-1.562 1.943 0 4.062.595 6.3 1.644l-6.3-10.644c-6.288 0-10.816.897-15.094 1.719-4.278.822-8.35 1.593-14.781 1.593-4.507 0-9.611-3.483-10.47-4.53a4.578 4.578 0 0 0-3.437-1.688z" fill="#fff" stroke="#000"/></g><path d="M423.1 630.712c-.19-.004-.371.01-.562.031a4.523 4.523 0 0 0-3.72 2.844 4.49 4.49 0 0 0 .813 4.594c3.183 3.802 9.31 7.75 17.375 7.75 7.163 0 12.163-.917 16.5-1.75s7.935-1.563 13.375-1.563c7.015 0 16.333 7.757 25.188 16.657 4.427 4.45 8.76 9 13.094 12.625 4.334 3.624 8.728 6.656 14.125 6.656 5.396 0 9.79-3.032 14.125-6.656 4.334-3.625 8.666-8.175 13.093-12.625 8.855-8.9 18.173-16.657 25.188-16.657 5.44 0 9.038.73 13.375 1.563s9.337 1.75 16.5 1.75c8.065 0 14.192-3.948 17.375-7.75a4.49 4.49 0 0 0 .812-4.594 4.523 4.523 0 0 0-3.718-2.844 4.54 4.54 0 0 0-4 1.657c-.858 1.047-5.963 4.53-10.47 4.53-6.431 0-10.503-.77-14.78-1.593-4.278-.822-8.807-1.719-15.094-1.719-12.532 0-22.567 10.209-31.594 19.282-4.513 4.536-8.744 8.978-12.469 12.093-3.725 3.116-6.873 4.563-8.343 4.563-1.471 0-4.62-1.447-8.344-4.563-3.725-3.115-7.956-7.557-12.469-12.093-9.027-9.073-19.062-19.282-31.594-19.282-6.287 0-10.816.897-15.093 1.72-4.278.821-8.35 1.593-14.782 1.593-4.506 0-9.61-3.484-10.468-4.531a4.578 4.578 0 0 0-3.438-1.688z" fill="#fff" stroke="#000"/></g><path d="M519.248 667.683c-25.01 0-45.249 20.318-45.249 45.328 0 25.011 20.238 45.249 45.249 45.249 25.01 0 45.328-20.238 45.328-45.249 0-25.01-20.317-45.328-45.328-45.328zm0 19.098c14.474 0 26.23 11.756 26.23 26.23s-11.756 26.151-26.23 26.151-26.15-11.677-26.15-26.15c0-14.475 11.676-26.23 26.15-26.23z"/><path d="M386.283 696.82c-24.544.59-31.286 6.563-33.513 15.755-2.433 10.043 5.258 14.473 30.1 13.874 23.68-.57 48.84-4.132 70.844-4.662 22.268-.537 31.569-2.007 65.607-2.824 34.324-.823 96.736 11.035 132.93 10.162 24.544-.591 31.329-6.564 33.556-15.756 2.433-10.043-5.302-14.515-30.144-13.917-23.681.571-48.84 4.132-70.845 4.662-22.268.537-31.875 1.875-65.913 2.691-34.324.824-96.428-10.858-132.622-9.986z"/><path d="M503.364 707.59l-4.53 10.776a958.674 958.674 0 0 0 22.415-.28c3.795-.09 7.981-.034 12.386.093l4.53-10.777c-6.239.013-13.442.064-22.414.28-3.796.09-7.98.035-12.387-.093z" fill="#fff"/><g fill="#fe0"><path d="M521.013 587.191c-4.325-.569-8.65 1-11.602 4.213a10.258 10.258 0 0 1 1.703-1.092 11.515 11.515 0 0 1 3.027-1.042 12.442 12.442 0 0 1 4.059-.121 12.647 12.647 0 0 1 4.174 1.32 11.877 11.877 0 0 1 1.805 1.17 11.113 11.113 0 0 1 1.518 1.448 10.25 10.25 0 0 1 1.17 1.674 9.443 9.443 0 0 1 .775 1.83 8.8 8.8 0 0 1 .35 1.913 8.44 8.44 0 0 1-.05 1.644 8.388 8.388 0 0 1-.852 2.755 8.81 8.81 0 0 1-1.078 1.642 9.444 9.444 0 0 1-1.44 1.41 10.259 10.259 0 0 1-1.742 1.118 11.108 11.108 0 0 1-1.975.785 11.931 11.931 0 0 1-2.13.42 12.439 12.439 0 0 1-2.2.038 12.656 12.656 0 0 1-1.87-.273c-.359-.08-.714-.175-1.065-.286l-.088-.032a12.39 12.39 0 0 1-.944-.345c-.337-.14-.666-.295-.987-.464l-.119-.07-8.168 7.23 4.8 3 3.33-5.61a13.454 13.454 0 0 0 6.158 2.489c7.364.977 14.103-4.223 15.054-11.614.95-7.39-4.25-14.174-11.613-15.15z"/><path d="M516.483 595.776l-5.1 5.127 3.301 3.334 1.897-1.897 13.103 14.737 3.6-2.82-14.063-14.56 3.053-3.052z"/></g></g></svg>