<?xml version="1.0" encoding="UTF-8"?>
<!DOCTYPE svg PUBLIC "-//W3C//DTD SVG 1.1//EN" "http://www.w3.org/Graphics/SVG/1.1/DTD/svg11.dtd">
<!-- Creator: CorelDRAW -->
<svg xmlns="http://www.w3.org/2000/svg" xml:space="preserve" width="500px" height="300px" style="shape-rendering:geometricPrecision; text-rendering:geometricPrecision; image-rendering:optimizeQuality; fill-rule:evenodd; clip-rule:evenodd"
viewBox="0 0 500 300.019"
 xmlns:svg="http://www.w3.org/2000/svg"
 version="1.0">
 <defs>
  <style type="text/css">
   <![CDATA[
    .fil0 {fill:#DE0000;fill-rule:nonzero}
    .fil1 {fill:#FFD116;fill-rule:nonzero}
   ]]>
  </style>
 </defs>
 <g id="Layer_x0020_1">
  <metadata id="CorelCorpID_0Corel-Layer"/>
  <polygon id="rect2237" class="fil0" points="-0.015875,0 500.016,0 500.016,300.019 -0.015875,300.019 "/>
  <path class="fil1" d="M70.7656 32.9301c-0.412373,0.0192768 -0.950612,0.134938 -1.62341,0.337911 -0.672799,0.212423 -1.24468,0.4634 -1.69863,0.772207 -0.597204,0.376465 -1.09349,0.878418 -1.49717,1.50624 -0.394986,0.637269 -0.807359,1.35165 -1.21898,2.16241 -1.45483,2.9641 -3.24644,6.79716 -5.36576,11.4988 -2.11932,4.71148 -3.71703,8.14843 -4.78481,10.3112 -1.37924,2.8095 -2.62392,5.03012 -3.72534,6.65202 -1.11012,1.6219 -2.17828,2.84806 -3.1958,3.67847 -0.866323,0.733653 -1.72395,1.24543 -2.56495,1.55424 -0.832683,0.299358 -1.81656,0.45395 -2.952,0.45395 -1.85851,0 -3.31335,-0.52123 -4.3645,-1.56407 -1.05115,-1.03301 -1.57238,-2.25917 -1.57238,-3.66864 0,-1.3422 0.38667,-2.49087 1.1687,-3.43732 0.782412,-0.955526 1.81694,-1.42875 3.1202,-1.42875 1.03414,0 2.04372,0.395742 3.02722,1.19705 0.984252,0.801311 2.06905,2.08568 3.25476,3.86179 0.765403,-0.511403 1.46315,-1.24543 2.09399,-2.20096 0.62215,-0.965731 1.18571,-1.99874 1.69863,-3.08958 -2.16959,-4.14187 -4.65894,-8.96939 -7.47638,-14.4625 -2.81668,-5.50334 -4.62493,-8.94029 -5.40734,-10.3112 -0.327706,-0.569611 -0.65579,-1.07194 -0.975558,-1.49679 -0.319013,-0.434296 -0.848936,-0.878418 -1.58902,-1.33237 -0.571879,-0.318257 -1.12713,-0.559784 -1.66537,-0.704549 -0.529546,-0.154593 -1.04246,-0.250977 -1.53874,-0.28953l0 -2.20134 19.3672 0 0 2.20134c-1.80786,0.115661 -3.05254,0.308807 -3.72534,0.569611 -0.672799,0.260426 -1.0092,0.550334 -1.0092,0.878418 0,0.202596 0.0839109,0.473227 0.23548,0.791862 0.159884,0.318257 0.277435,0.559784 0.361724,0.733653 0.765403,1.44803 1.62303,3.12814 2.55626,5.02029 0.941919,1.89253 2.82576,5.52262 5.66814,10.8714 1.11843,-2.46214 2.0184,-4.51871 2.69989,-6.15006 0.681114,-1.63173 1.37886,-3.31183 2.10193,-5.04939 0.673177,-1.62228 1.13544,-2.83861 1.37924,-3.65919 0.252489,-0.820588 0.370039,-1.40948 0.370039,-1.76666 0,-0.589266 -0.428626,-1.06212 -1.28663,-1.42913 -0.866323,-0.366638 -2.04372,-0.637269 -3.54013,-0.810761l0 -2.20134 13.6741 0 0 2.20134z"/>
  <path class="fil1" d="M103.386 71.9347c-2.56495,0 -4.9617,-0.472849 -7.19857,-1.42875 -2.22855,-0.946076 -4.17967,-2.32683 -5.83634,-4.14187 -1.62303,-1.76666 -2.90967,-3.95855 -3.84289,-6.57491 -0.933981,-2.60653 -1.40456,-5.48369 -1.40456,-8.61183 0,-3.10886 0.470581,-5.99547 1.4125,-8.64093 0.950612,-2.64546 2.27089,-4.94318 3.98652,-6.88372 1.67368,-1.91181 3.68301,-3.38894 6.02949,-4.43178 2.3548,-1.04246 4.8691,-1.57352 7.54366,-1.57352 1.93411,0 3.70002,0.270254 5.29772,0.811139 1.58977,0.540507 2.93537,1.14867 4.03679,1.82449l1.53081 -1.55424 2.14426 0 0.218471 14.6459 -2.16959 0c-1.22767,-4.46996 -2.70783,-7.74286 -4.43178,-9.83798 -1.72395,-2.09513 -3.82626,-3.13759 -6.3073,-3.13759 -3.08656,0 -5.44098,1.55424 -7.047,4.67255 -1.6064,3.12814 -2.41376,7.50171 -2.41376,13.1404 0,3.18597 0.277435,5.90854 0.82399,8.1677 0.555248,2.24934 1.27,4.06476 2.15296,5.43569 0.958928,1.43858 2.08568,2.49087 3.38063,3.15686 1.29533,0.675823 2.73315,1.00428 4.31423,1.00428 2.29583,0 4.34787,-0.714754 6.13872,-2.14351 1.79993,-1.43858 3.43959,-3.61081 4.91975,-6.50725l2.11932 1.46768c-0.706439,1.66045 -1.5138,3.14741 -2.41338,4.45068 -0.908657,1.31309 -1.95112,2.44249 -3.12852,3.38894 -1.30326,1.03301 -2.73315,1.84377 -4.30554,2.43266 -1.56445,0.579439 -3.41464,0.868969 -5.55059,0.868969z"/>
  <path class="fil1" d="M153.499 71.9347c-2.56495,0 -4.9617,-0.472849 -7.19857,-1.42875 -2.22855,-0.946076 -4.17967,-2.32683 -5.83634,-4.14187 -1.62303,-1.76666 -2.90967,-3.95855 -3.84289,-6.57491 -0.933981,-2.60653 -1.40456,-5.48369 -1.40456,-8.61183 0,-3.10886 0.470581,-5.99547 1.4125,-8.64093 0.950612,-2.64546 2.27089,-4.94318 3.98652,-6.88372 1.67368,-1.91181 3.68301,-3.38894 6.02949,-4.43178 2.3548,-1.04246 4.8691,-1.57352 7.54366,-1.57352 1.93411,0 3.70002,0.270254 5.29772,0.811139 1.58977,0.540507 2.93537,1.14867 4.03679,1.82449l1.53081 -1.55424 2.14426 0 0.218471 14.6459 -2.16959 0c-1.22767,-4.46996 -2.70783,-7.74286 -4.43178,-9.83798 -1.72395,-2.09513 -3.82626,-3.13759 -6.3073,-3.13759 -3.08656,0 -5.44098,1.55424 -7.047,4.67255 -1.6064,3.12814 -2.41376,7.50171 -2.41376,13.1404 0,3.18597 0.277435,5.90854 0.82399,8.1677 0.555248,2.24934 1.27,4.06476 2.15296,5.43569 0.958928,1.43858 2.08568,2.49087 3.38063,3.15686 1.29533,0.675823 2.73315,1.00428 4.31423,1.00428 2.29583,0 4.34787,-0.714754 6.13872,-2.14351 1.79993,-1.43858 3.43959,-3.61081 4.91975,-6.50725l2.11932 1.46768c-0.706439,1.66045 -1.5138,3.14741 -2.41338,4.45068 -0.908657,1.31309 -1.95112,2.44249 -3.12852,3.38894 -1.30326,1.03301 -2.73315,1.84377 -4.30554,2.43266 -1.56445,0.579439 -3.41464,0.868969 -5.55059,0.868969z"/>
  <path class="fil1" d="M218.051 40.7693c0,2.25955 -0.412373,4.20953 -1.21973,5.84126 -0.815674,1.63173 -1.93411,2.95427 -3.36362,3.968 -1.48016,1.06212 -3.17047,1.82487 -5.06262,2.29772 -1.90047,0.473227 -4.0281,0.704927 -6.39953,0.704927l-2.85108 0 0 11.2864c0,0.675823 0.109613,1.26471 0.328084,1.76666 0.218471,0.501953 0.647475,0.898073 1.27,1.20688 0.327706,0.144765 0.865945,0.308807 1.59771,0.473227 0.740079,0.173491 1.37054,0.28953 1.87514,0.337911l0 2.21079 -18.9465 0 0 -2.21079c0.479275,-0.048381 1.10974,-0.135316 1.90009,-0.2317 0.782412,-0.106212 1.33728,-0.2317 1.64874,-0.386292 0.638781,-0.299358 1.05947,-0.666373 1.26962,-1.10067 0.20184,-0.434296 0.311075,-1.04284 0.311075,-1.81505l0 -28.3074c0,-0.666373 -0.10092,-1.23598 -0.30276,-1.71866 -0.193146,-0.472849 -0.62215,-0.878418 -1.27794,-1.19705 -0.462644,-0.2317 -1.06816,-0.434673 -1.83357,-0.608165 -0.765403,-0.183697 -1.33728,-0.299358 -1.71526,-0.357188l0 -2.20134 19.2912 0c4.51607,0 7.89669,0.820588 10.1252,2.47159 2.23725,1.651 3.35568,4.1706 3.35568,7.56899zm-9.61233 1.43858c0,-3.0121 -0.529924,-5.25199 -1.58939,-6.71967 -1.05947,-1.45786 -2.94368,-2.19151 -5.65113,-2.19151l-2.04372 0 0 17.6296 1.03414 0c2.6912,0 4.74323,-0.714376 6.14742,-2.14351 1.40456,-1.4193 2.10269,-3.61081 2.10269,-6.57491z"/>
  <polygon class="fil1" points="72.9601,70.8631 72.9601,62.9173 79.8813,62.9173 79.8813,70.8631 "/>
  <polygon class="fil1" points="123.073,70.8631 123.073,62.9173 129.994,62.9173 129.994,70.8631 "/>
  <polygon class="fil1" points="173.186,70.8631 173.186,62.9173 180.107,62.9173 180.107,70.8631 "/>
  <polygon class="fil1" points="222.584,70.8631 222.584,62.9173 229.505,62.9173 229.505,70.8631 "/>
 </g>
</svg>
