<?xml version="1.0" encoding="UTF-8" standalone="no"?>
<!-- Creator: CorelDRAW -->
<svg
   xmlns:dc="http://purl.org/dc/elements/1.1/"
   xmlns:cc="http://creativecommons.org/ns#"
   xmlns:rdf="http://www.w3.org/1999/02/22-rdf-syntax-ns#"
   xmlns:svg="http://www.w3.org/2000/svg"
   xmlns="http://www.w3.org/2000/svg"
   xmlns:sodipodi="http://sodipodi.sourceforge.net/DTD/sodipodi-0.dtd"
   xmlns:inkscape="http://www.inkscape.org/namespaces/inkscape"
   xml:space="preserve"
   width="500px"
   height="250px"
   style="shape-rendering:geometricPrecision; text-rendering:geometricPrecision; image-rendering:optimizeQuality; fill-rule:evenodd; clip-rule:evenodd"
   viewBox="0 0 500 250.002"
   id="svg2"
   sodipodi:version="0.32"
   inkscape:version="0.46"
   sodipodi:docname="Flag_of_Ukrainian SSR (1937-1949).svg"
   inkscape:output_extension="org.inkscape.output.svg.inkscape"><metadata
   id="metadata28"><rdf:RDF><cc:Work
       rdf:about=""><dc:format>image/svg+xml</dc:format><dc:type
         rdf:resource="http://purl.org/dc/dcmitype/StillImage" /></cc:Work></rdf:RDF></metadata><sodipodi:namedview
   inkscape:window-height="675"
   inkscape:window-width="662"
   inkscape:pageshadow="2"
   inkscape:pageopacity="0.0"
   guidetolerance="10.0"
   gridtolerance="10.0"
   objecttolerance="10.0"
   borderopacity="1.0"
   bordercolor="#666666"
   pagecolor="#ffffff"
   id="base"
   showgrid="false"
   inkscape:zoom="1.088"
   inkscape:cx="264.58566"
   inkscape:cy="125"
   inkscape:window-x="22"
   inkscape:window-y="22"
   inkscape:current-layer="svg2" />
 <defs
   id="defs4"><inkscape:perspective
   sodipodi:type="inkscape:persp3d"
   inkscape:vp_x="0 : 125 : 1"
   inkscape:vp_y="0 : 1000 : 0"
   inkscape:vp_z="500 : 125 : 1"
   inkscape:persp3d-origin="250 : 83.333333 : 1"
   id="perspective30" />
  <style
   type="text/css"
   id="style6">
   
    .str0 {stroke:#FCD116;stroke-width:0.360001}
    .fil0 {fill:#DE0000}
    .fil1 {fill:#FCD116}
    .fil2 {fill:#FCD116;fill-rule:nonzero}
   
  </style>
 </defs>
 <g
   id="Layer_x0020_1">
  <metadata
   id="CorelCorpID_0Corel-Layer" />
  <g
   id="_193201656">
   <polygon
   id="redBackground"
   class="fil0"
   points="0,250.002 500,250.002 500,0 0,0 " />
   <g
   id="g12">
    <path
   id="path6570"
   class="fil1"
   d="M119.56 4.99088c8.3079,2.3282 16.7122,8.47042 15.7928,18.9653 -0.919373,10.4887 -12.4437,14.8838 -23.7818,5.08065l-0.405828 0.450238c0.192757,0.252284 0.475277,0.991657 0.0033071,1.5052 -0.445986,0.484253 -1.14,-0.0581104 -1.51701,0.33071 -0.446931,0.461104 -0.314647,0.279213 -0.900003,1.6356 -1.38378,3.20741 -3.81119,4.16411 -4.63702,3.38174 -0.846144,-0.801735 -0.224883,-3.09781 2.64048,-4.80143 1.44095,-0.857011 1.51276,-0.846617 1.73906,-1.22646 0.253702,-0.427088 -0.437482,-1.08756 0.0519687,-1.66394 0.506458,-0.596222 1.16221,-0.360946 1.42725,-0.170552l1.25481 -1.55434c11.0452,6.18002 17.6127,3.29434 19.1731,-2.14442 1.53308,-5.34238 1.10363,-11.9254 -10.8411,-19.7883z" />
    <path
   id="rect7857"
   class="fil1"
   d="M112.371 13.8341c-0.690711,0.690711 -0.859373,0.650081 -0.531025,0.978428l20.9254 21.6903c0.328347,0.328347 1.14898,0.0368505 1.83969,-0.65386 0.690711,-0.690711 0.982208,-1.51087 0.65386,-1.83922l-21.8835 -20.6864c-0.328347,-0.32882 -0.313702,-0.180001 -1.00441,0.51071z" />
    <polygon
   id="path7858"
   class="fil1"
   points="111.023,20.5838 120.007,11.6004 114.946,10.6852 108.035,17.5956 " />
   </g>
   <path
   id="_193199032"
   class="fil2 str0"
   d="M93.245 42.0696c-0.418112,0.0207875 -0.963783,0.146457 -1.64646,0.367088 -0.682207,0.230552 -1.26237,0.503151 -1.723,0.838585 -0.605671,0.409135 -1.10882,0.954334 -1.51843,1.63607 -0.400631,0.692128 -0.818743,1.46835 -1.23685,2.34898 -1.47591,3.2197 -3.29245,7.38286 -5.44254,12.49 -2.14914,5.11797 -3.77009,8.85121 -4.8534,11.2002 -1.3989,3.05198 -2.66174,5.4638 -3.77859,7.22553 -1.1263,1.76174 -2.20961,3.09355 -3.24143,3.99545 -0.879215,0.79701 -1.74898,1.35308 -2.60221,1.68851 -0.844255,0.32504 -1.84205,0.492757 -2.99387,0.492757 -1.88505,0 -3.36096,-0.565986 -4.42726,-1.6989 -1.0663,-1.12205 -1.59497,-2.45387 -1.59497,-3.98505 0,-1.45748 0.392127,-2.70568 1.18536,-3.73324 0.793703,-1.03796 1.84253,-1.55197 3.16489,-1.55197 1.04929,0 2.0726,0.429923 3.07088,1.30016 0.998271,0.870711 2.09859,2.26536 3.30143,4.19482 0.776223,-0.555592 1.48394,-1.3526 2.12363,-2.39103 0.631656,-1.04835 1.20284,-2.17087 1.72347,-3.35576 -2.20111,-4.4986 -4.72584,-9.74224 -7.58365,-15.7092 -2.8578,-5.97781 -4.69135,-9.71105 -5.48458,-11.2002 -0.333072,-0.6189 -0.665671,-1.1641 -0.989767,-1.62567 -0.324096,-0.47197 -0.861263,-0.954334 -1.61245,-1.44709 -0.579687,-0.3463 -1.14284,-0.608033 -1.68898,-0.765357 -0.537167,-0.16819 -1.05733,-0.273072 -1.56095,-0.314647l0 -2.39103 19.6456 0 0 2.39103c-1.83449,0.12567 -3.09686,0.335434 -3.77954,0.618427 -0.682207,0.283465 -1.02331,0.598112 -1.02331,0.954334 0,0.220158 0.0855121,0.514017 0.238583,0.859845 0.16252,0.3463 0.282048,0.608506 0.367088,0.79701 0.776223,1.57323 1.64646,3.39781 2.59324,5.4534 0.955279,2.0556 2.86631,5.9986 5.74962,11.8082 1.13433,-2.67402 2.04709,-4.90773 2.7378,-6.67986 0.691183,-1.7726 1.3989,-3.59718 2.13261,-5.48506 0.682207,-1.76174 1.15181,-3.08316 1.3989,-3.97419 0.256064,-0.891499 0.375119,-1.53119 0.375119,-1.91953 0,-0.639687 -0.434647,-1.15323 -1.30489,-1.55197 -0.87827,-0.398269 -2.07308,-0.692128 -3.59103,-0.880633l0 -2.39103 13.87 0 0 2.39103zm33.5151 8.5153c0,2.45387 -0.418112,4.5723 -1.23685,6.34443 -0.827247,1.7726 -1.96205,3.2093 -3.41198,4.31009 -1.50142,1.1537 -3.21592,1.98237 -5.13498,2.49591 -1.92804,0.514017 -4.08615,0.765829 -6.49183,0.765829l-2.89182 0 0 12.2589c0,0.734176 0.111024,1.37386 0.332599,1.91953 0.222048,0.545199 0.656695,0.975121 1.28835,1.31056 0.332599,0.157323 0.87827,0.335907 1.62048,0.514017 0.750711,0.188505 1.39087,0.314647 1.90205,0.367088l0 2.40142 -19.218 0 0 -2.40142c0.486143,-0.0524411 1.12583,-0.14693 1.92757,-0.251812 0.793231,-0.115276 1.35638,-0.251812 1.67197,-0.419529 0.648191,-0.32504 1.07481,-0.723309 1.28788,-1.19528 0.20504,-0.47197 0.315592,-1.13292 0.315592,-1.9715l0 -30.748c0,-0.723782 -0.102048,-1.34221 -0.307088,-1.86662 -0.195591,-0.514017 -0.630711,-0.954334 -1.29638,-1.30063 -0.469135,-0.251339 -1.08331,-0.471498 -1.85953,-0.660475 -0.776223,-0.199371 -1.35638,-0.32504 -1.74001,-0.387875l0 -2.39103 19.5681 0c4.5808,0 8.00979,0.891026 10.2704,2.68442 2.26914,1.79339 3.40348,4.53025 3.40348,8.22192zm-9.75027 1.56237c0,-3.27166 -0.537167,-5.70474 -1.61197,-7.29876 -1.07481,-1.58363 -2.98536,-2.38064 -5.73262,-2.38064l-2.0726 0 0 19.1495 1.04929 0c2.72977,0 4.81088,-0.776223 6.23577,-2.3282 1.42441,-1.54158 2.13213,-3.92222 2.13213,-7.14191zm30.9903 32.2896c-2.60127,0 -5.03246,-0.514017 -7.3016,-1.55197 -2.26064,-1.02803 -4.2397,-2.52757 -5.92018,-4.49907 -1.64646,-1.91906 -2.95135,-4.2997 -3.89812,-7.14144 -0.946775,-2.83182 -1.42441,-5.95655 -1.42441,-9.35436 0,-3.37702 0.477639,-6.51262 1.43292,-9.38601 0.963783,-2.87339 2.30316,-5.36931 4.04316,-7.47735 1.69749,-2.07638 3.73607,-3.6808 6.11624,-4.81324 2.3882,-1.13292 4.93891,-1.7093 7.65168,-1.7093 1.96205,0 3.75308,0.293387 5.37403,0.880633 1.61245,0.587246 2.97686,1.24819 4.09419,1.9819l1.55292 -1.68804 2.17512 0 0.222048 15.9086 -2.20111 0c-1.24536,-4.85529 -2.74678,-8.41042 -4.49529,-10.6862 -1.74898,-2.27576 -3.88111,-3.4082 -6.39782,-3.4082 -3.13088,0 -5.51907,1.68851 -7.14853,5.07545 -1.62898,3.39781 -2.44772,8.14869 -2.44772,14.273 0,3.46064 0.281103,6.41813 0.835751,8.872 0.563151,2.44347 1.28835,4.41497 2.1841,5.90411 0.972287,1.56237 2.11512,2.70568 3.42899,3.42899 1.31339,0.734176 2.77229,1.09087 4.37576,1.09087 2.32867,0 4.41025,-0.776223 6.22726,-2.3282 1.82505,-1.56237 3.48851,-3.92222 4.98994,-7.06821l2.14961 1.59402c-0.716223,1.80379 -1.53544,3.41907 -2.4482,4.8345 -0.921263,1.4263 -1.97906,2.65324 -3.1734,3.6808 -1.32189,1.12252 -2.77229,2.00316 -4.36726,2.64284 -1.58646,0.629293 -3.46348,0.94394 -5.6301,0.94394zm51.2586 -33.8519c0,2.45387 -0.418112,4.5723 -1.23733,6.34443 -0.827247,1.7726 -1.96158,3.2093 -3.41198,4.31009 -1.50095,1.1537 -3.21592,1.98237 -5.13498,2.49591 -1.92804,0.514017 -4.08615,0.765829 -6.49183,0.765829l-2.89182 0 0 12.2589c0,0.734176 0.111024,1.37386 0.333072,1.91953 0.221576,0.545199 0.656695,0.975121 1.28788,1.31056 0.333072,0.157323 0.878743,0.335907 1.62048,0.514017 0.751183,0.188505 1.39087,0.314647 1.90253,0.367088l0 2.40142 -19.2185 0 0 -2.40142c0.486143,-0.0524411 1.12583,-0.14693 1.92757,-0.251812 0.793703,-0.115276 1.35638,-0.251812 1.67197,-0.419529 0.648191,-0.32504 1.07481,-0.723309 1.28835,-1.19528 0.204568,-0.47197 0.315592,-1.13292 0.315592,-1.9715l0 -30.748c0,-0.723782 -0.10252,-1.34221 -0.307088,-1.86662 -0.196064,-0.514017 -0.631183,-0.954334 -1.29685,-1.30063 -0.469135,-0.251339 -1.08331,-0.471498 -1.85953,-0.660475 -0.776223,-0.199371 -1.35591,-0.32504 -1.74001,-0.387875l0 -2.39103 19.5686 0c4.5808,0 8.00979,0.891026 10.27,2.68442 2.26914,1.79339 3.40395,4.53025 3.40395,8.22192zm-9.75027 1.56237c0,-3.27166 -0.537167,-5.70474 -1.61245,-7.29876 -1.07481,-1.58363 -2.98536,-2.38064 -5.73214,-2.38064l-2.07308 0 0 19.1495 1.04977 0c2.7293,0 4.81088,-0.776223 6.2353,-2.3282 1.42441,-1.54158 2.13261,-3.92222 2.13261,-7.14191z" />
   <g
   id="g18">
    
    
   </g>
   
   <g
   id="g23">
    
    
   </g>
  </g>
 </g>
</svg>