<?xml version="1.0" encoding="utf-8"?>
<!-- Generator: Adobe Illustrator 19.0.0, SVG Export Plug-In . SVG Version: 6.00 Build 0)  -->
<svg version="1.1" xmlns="http://www.w3.org/2000/svg" xmlns:xlink="http://www.w3.org/1999/xlink" x="0px" y="0px"
	 viewBox="0 0 600 400" style="enable-background:new 0 0 600 400;" xml:space="preserve">
<style type="text/css">
	.st0{fill:#FFFFFF;}
	.st1{fill:#005BBB;}
	.st2{fill:#FFD500;}
	.st3{fill:#806000;}
</style>
<rect id="XMLID_58_" x="0" y="0" class="st0" width="600" height="400"/>
<rect id="XMLID_34_" x="0" y="0" class="st1" width="266" height="163.7"/>
<rect id="XMLID_33_" x="0" y="80" class="st2" width="260" height="80"/>
<path id="XMLID_59_" class="st3" d="M150.2,48.5c-5.3,4.1-8.9,10.4-9.5,17.6l-1.9,16.2l0.8-0.1c1.8,0,3.4,1.3,3.7,3.2
	c0.4,2.1-0.9,4.2-3,4.7l-2.3,0.5c-0.8-1.5-1.6-3.1-2.3-4.6c-2-5.3-3.7-10.7-3.8-16.5V47.1h3v-3.9h-3V40h-3.9v3.3h-3v3.9h3v22.5
	c-0.1,5.7-1.8,11-3.8,16.3c-0.7,1.6-1.5,3.1-2.3,4.6l-2.3-0.5c-2.1-0.4-3.4-2.5-3-4.7c0.4-1.9,2-3.2,3.8-3.2l0.8,0.1l-1.9-16.2
	c-0.6-7.2-4.2-13.5-9.5-17.6c-0.9-0.7-1.9-1.4-2.9-1.9v57.5h12.8c1,5.4,3.8,10.1,7.9,13.3c1,0.7,1.8,1.6,2.3,2.6
	c0.6-1.1,1.4-2,2.3-2.6c4-3.2,6.9-7.9,7.9-13.3h12.9V46.6C152.1,47.1,151.1,47.8,150.2,48.5z M110.8,54.8c2.5,3,4.2,6.8,4.7,10.9
	l1.5,13.4c-2,1-3.5,2.9-4,5.1h-2.2V54.8z M119.4,100.1h-8.6V88.2h2.2c0.7,2.7,2.8,4.9,5.4,5.7l1.8,0.4
	C119.7,96.1,119.4,98.1,119.4,100.1z M123.9,95.2c2.3,0.3,4.1,2.4,4.1,4.9h-4.8C123.3,98.4,123.5,96.7,123.9,95.2z M128.1,112.4
	c-2.1-2.3-3.7-5.2-4.4-8.4h4.4V112.4z M130,94.5c-1.1-1.4-2.5-2.4-4.2-2.9c1.8-3.1,3.2-6.4,4.2-9.9c1,3.5,2.5,6.8,4.2,9.9
	C132.5,92.1,131.1,93.1,130,94.5z M131.9,112.4v-8.4h4.4C135.6,107.3,134,110.1,131.9,112.4z M131.9,100.1c0-2.5,1.8-4.6,4.1-4.9
	c0.4,1.6,0.7,3.2,0.7,4.9H131.9z M143,79.1l1.5-13.4c0.5-4.1,2.2-7.9,4.7-10.9v29.4H147C146.5,82,145,80.1,143,79.1z M149.2,100.1
	L149.2,100.1h-8.6c0-2-0.3-4-0.8-5.8l1.8-0.4c2.6-0.8,4.7-2.9,5.4-5.7h2.2V100.1z"/>
<polygon id="XMLID_27_" class="st1" points="600,180 320,180 320,0 280,0 280,180 0,180 0,220 280,220 280,400 320,400 320,220 
	600,220 "/>
<path id="XMLID_36_" class="st1" d="M0,240h260v160h10V230H0V240z M260,0v160H0v10h270V0H260z M330,230v170h10V240h260v-10H330z
	 M340,160V0h-10v170h270v-10H340z"/>
</svg>
