<?xml version="1.0" encoding="UTF-8" standalone="no"?>
<!-- Created with Inkscape (http://www.inkscape.org/) -->

<svg
   xmlns:dc="http://purl.org/dc/elements/1.1/"
   xmlns:cc="http://creativecommons.org/ns#"
   xmlns:rdf="http://www.w3.org/1999/02/22-rdf-syntax-ns#"
   xmlns:svg="http://www.w3.org/2000/svg"
   xmlns="http://www.w3.org/2000/svg"
   xmlns:xlink="http://www.w3.org/1999/xlink"
   xmlns:sodipodi="http://sodipodi.sourceforge.net/DTD/sodipodi-0.dtd"
   xmlns:inkscape="http://www.inkscape.org/namespaces/inkscape"
   version="1.1"
   width="185.076mm"
   height="123.409mm"
   viewBox="0 0 185.076 123.409"
   id="svg2"
   xml:space="preserve"
   style="fill-rule:evenodd"
   inkscape:version="0.92.1 r15371"
   sodipodi:docname="Ensign_of_the_Ukrainian_Armed_Forces.svg"><metadata
   id="metadata96"><rdf:RDF><cc:Work
       rdf:about=""><dc:format>image/svg+xml</dc:format><dc:type
         rdf:resource="http://purl.org/dc/dcmitype/StillImage" /><dc:title /></cc:Work></rdf:RDF></metadata><sodipodi:namedview
   pagecolor="#ffffff"
   bordercolor="#666666"
   borderopacity="1"
   objecttolerance="10"
   gridtolerance="10"
   guidetolerance="10"
   inkscape:pageopacity="0"
   inkscape:pageshadow="2"
   inkscape:window-width="1600"
   inkscape:window-height="838"
   id="namedview94"
   showgrid="false"
   inkscape:zoom="1.3399707"
   inkscape:cx="349.74993"
   inkscape:cy="233.21365"
   inkscape:window-x="-8"
   inkscape:window-y="-8"
   inkscape:window-maximized="1"
   inkscape:current-layer="svg2" />
 <defs
   id="defs4">
  <style
   type="text/css"
   id="style6" />
  <linearGradient
   x1="88.0625"
   y1="101.869"
   x2="97.507599"
   y2="101.869"
   id="id0"
   gradientUnits="userSpaceOnUse">
   <stop
   id="stop9"
   style="stop-color:#dccf73;stop-opacity:1"
   offset="0" />
   <stop
   id="stop11"
   style="stop-color:#ffed00;stop-opacity:1"
   offset="1" />
  </linearGradient>
  <linearGradient
   x1="83.033798"
   y1="91.186302"
   x2="102.042"
   y2="91.186302"
   id="id1"
   gradientUnits="userSpaceOnUse">
   <stop
   id="stop14"
   style="stop-color:#b2b09c;stop-opacity:1"
   offset="0" />
   <stop
   id="stop16"
   style="stop-color:#dccf73;stop-opacity:1"
   offset="1" />
  </linearGradient>
  <linearGradient
   x1="54.329399"
   y1="56.3367"
   x2="129.621"
   y2="56.3367"
   id="id2"
   xlink:href="#id0"
   gradientUnits="userSpaceOnUse">
  </linearGradient>
  <linearGradient
   x1="55.9748"
   y1="56.3367"
   x2="131.26601"
   y2="56.3367"
   id="id3"
   xlink:href="#id0"
   gradientUnits="userSpaceOnUse">
  </linearGradient>
  <linearGradient
   x1="85.8256"
   y1="97.448196"
   x2="99.769897"
   y2="97.448196"
   id="id4"
   xlink:href="#id0"
   gradientUnits="userSpaceOnUse">
  </linearGradient>
  <linearGradient
   x1="89.2314"
   y1="94.963097"
   x2="96.224098"
   y2="94.963097"
   id="id5"
   xlink:href="#id0"
   gradientUnits="userSpaceOnUse">
  </linearGradient>
  <linearGradient
   x1="89.399597"
   y1="97.43"
   x2="96.140099"
   y2="97.43"
   id="id6"
   xlink:href="#id0"
   gradientUnits="userSpaceOnUse">
  </linearGradient>
  <linearGradient
   x1="89.484497"
   y1="99.804199"
   x2="96.042"
   y2="99.804199"
   id="id7"
   xlink:href="#id0"
   gradientUnits="userSpaceOnUse">
  </linearGradient>
  <linearGradient
   x1="89.622803"
   y1="101.675"
   x2="95.1129"
   y2="101.675"
   id="id8"
   xlink:href="#id0"
   gradientUnits="userSpaceOnUse">
  </linearGradient>
  <linearGradient
   x1="92.3647"
   y1="59.738701"
   x2="93.230797"
   y2="59.738701"
   id="id9"
   xlink:href="#id0"
   gradientUnits="userSpaceOnUse">
  </linearGradient>
  <linearGradient
   x1="96.903397"
   y1="102.254"
   x2="88.723099"
   y2="102.254"
   id="id10"
   xlink:href="#id0"
   gradientUnits="userSpaceOnUse">
  </linearGradient>
  <linearGradient
   x1="88.4021"
   y1="85.230698"
   x2="96.673798"
   y2="97.1418"
   id="id11"
   xlink:href="#id0"
   gradientUnits="userSpaceOnUse">
  </linearGradient>
  <radialGradient
   cx="86.195503"
   cy="58.719601"
   r="18.654499"
   fx="86.195503"
   fy="58.719601"
   id="id12"
   gradientUnits="userSpaceOnUse">
   <stop
   id="stop29"
   style="stop-color:#008dd2;stop-opacity:1"
   offset="0" />
   <stop
   id="stop31"
   style="stop-color:#393185;stop-opacity:1"
   offset="1" />
  </radialGradient>
 
  
  
 
   
   
   
   
   
   
   
   
  </defs>
 
<g
   id="g3583"><polygon
     style="fill:#D50663;stroke:#2b2a29;stroke-width:0.0762"
     id="_295232584"
     points="0.038,0.0381 0.038,123.371 185.038,123.371 185.038,0.0381 " /><g
     id="g3576"><path
       sodipodi:nodetypes="ccccccccccccc"
       inkscape:connector-curvature="0"
       id="path5597"
       d="M 75.215849,12.240733 85.703734,54.87029 43.074177,44.382405 l 0,34.644309 42.630103,-10.48842 -10.488431,42.630076 34.644311,0 -10.488985,-42.630636 42.630655,10.48898 0,-34.644309 -42.630109,10.488431 10.488439,-42.630103 z"
       style="color:#000000;font-style:normal;font-variant:normal;font-weight:normal;font-stretch:normal;font-size:medium;line-height:normal;font-family:sans-serif;text-indent:0;text-align:start;text-decoration:none;text-decoration-line:none;text-decoration-style:solid;text-decoration-color:#000000;letter-spacing:normal;word-spacing:normal;text-transform:none;direction:ltr;block-progression:tb;writing-mode:lr-tb;baseline-shift:baseline;text-anchor:start;white-space:normal;clip-rule:nonzero;display:inline;overflow:visible;visibility:visible;opacity:1;isolation:auto;mix-blend-mode:normal;color-interpolation:sRGB;color-interpolation-filters:linearRGB;solid-color:#000000;solid-opacity:1;fill:#FFDF00;fill-opacity:1;fill-rule:nonzero;stroke:#806600;stroke-width:0.27995399;stroke-linecap:butt;stroke-linejoin:miter;stroke-miterlimit:4;stroke-dasharray:none;stroke-dashoffset:0;stroke-opacity:1;color-rendering:auto;image-rendering:auto;shape-rendering:auto;text-rendering:auto;enable-background:accumulate" /><path
       sodipodi:nodetypes="ccccccccccccc"
       inkscape:connector-curvature="0"
       id="path5599"
       d="m 88.285274,57.451844 -10.658431,-43.321388 29.822327,0 -10.658446,43.321388 43.321376,-10.658447 0,29.822325 -43.321376,-10.658436 10.658446,43.321364 -29.822327,0 10.658431,-43.321364 -43.321374,10.658436 0,-29.822325 z"
       style="opacity:1;fill:#D50663;stroke:#806600;stroke-width:0.27995399" /><path
       inkscape:connector-curvature="0"
       id="path5601"
       d="M 112.30975,61.704561 A 19.771751,19.771751 0 0 1 92.538002,81.476311 19.771751,19.771751 0 0 1 72.766252,61.704561 19.771751,19.771751 0 0 1 92.538002,41.932807 19.771751,19.771751 0 0 1 112.30975,61.704561 Z"
       style="opacity:1;fill:#FFDF00;stroke:#806600;stroke-width:0.27995399;stroke-miterlimit:4;stroke-dasharray:none" /><path
       inkscape:connector-curvature="0"
       style="opacity:1;fill:#001788;stroke:#806600;stroke-width:0.27995399;stroke-miterlimit:4;stroke-dasharray:none"
       d="M 110.26983,61.704561 A 17.731832,17.731832 0 0 1 92.538002,79.436371 17.731832,17.731832 0 0 1 74.806175,61.704561 17.731832,17.731832 0 0 1 92.538002,43.972731 17.731832,17.731832 0 0 1 110.26983,61.704561 Z"
       id="path5603" /><path
       inkscape:connector-curvature="0"
       d="m 92.538002,46.801683 c -0.694501,0.788118 -1.117719,1.819735 -1.117719,2.952056 0.04116,2.486232 0.346087,4.967386 0.372568,7.452882 0.05513,2.316432 -0.639655,4.492089 -1.484472,6.61442 -0.28148,0.586503 -0.585997,1.160549 -0.890666,1.735155 l -0.896499,-0.180515 c -0.806688,-0.161309 -1.331389,-0.945768 -1.170104,-1.752568 0.141102,-0.705988 0.762373,-1.196215 1.455357,-1.199462 l 0.325993,0.03494 -0.72769,-6.078764 C 88.166943,53.67291 86.770664,51.298537 84.713994,49.753739 84.360557,49.488281 83.986085,49.245578 83.596277,49.031738 l 0,21.590085 4.983136,0 c 0.372611,2.023032 1.485786,3.785482 3.050438,4.995807 0.372171,0.25655 0.683925,0.59493 0.908151,0.989805 0.224224,-0.394875 0.535958,-0.733255 0.908129,-0.989805 1.564671,-1.210325 2.677852,-2.972775 3.050437,-4.995807 l 4.983162,0 0,-21.590085 c -0.38981,0.21384 -0.76429,0.456543 -1.11772,0.722001 -2.05669,1.544798 -3.452952,3.919171 -3.690798,6.626086 l -0.727687,6.078764 0.326012,-0.03494 c 0.692987,0.0034 1.314233,0.493474 1.45536,1.199462 0.161285,0.8068 -0.363439,1.591259 -1.170107,1.752568 l -0.896502,0.180515 c -0.304688,-0.574606 -0.60918,-1.148652 -0.890685,-1.735155 -0.844795,-2.122331 -1.539601,-4.297988 -1.48447,-6.61442 0.02651,-2.485496 0.331432,-4.96665 0.372585,-7.452882 0,-1.132321 -0.423217,-2.163938 -1.117716,-2.952056 z m -7.45144,5.339313 c 0.964416,1.132095 1.611661,2.542817 1.804648,4.093261 l 0.599597,5.013251 c -0.763494,0.380177 -1.342315,1.077627 -1.560133,1.921436 l -0.844112,0 0,-11.027948 z m 14.902858,0 0,11.027948 -0.844089,0 c -0.217838,-0.843809 -0.796643,-1.541259 -1.560156,-1.921436 l 0.599619,-5.013251 c 0.192987,-1.550444 0.840232,-2.961166 1.804626,-4.093261 z m -7.451418,10.078848 c 0.400317,1.309597 0.951082,2.553152 1.635819,3.70897 -0.651282,0.1979 -1.218128,0.582837 -1.635819,1.100472 -0.417691,-0.517635 -0.984537,-0.902544 -1.635816,-1.100472 0.684737,-1.155818 1.235476,-2.399373 1.635816,-3.70897 z m -7.45144,2.439687 0.844112,0 c 0.266146,1.028663 1.069105,1.841481 2.089881,2.125215 l 0.716041,0.163045 c -0.191734,0.695154 -0.296882,1.427625 -0.296882,2.183445 l -3.353152,0 0,-4.471705 z m 14.058769,0 0.844089,0 0,4.471705 -3.353132,0 c 0,-0.75582 -0.105168,-1.488291 -0.296903,-2.183445 l 0.716041,-0.163045 c 1.020802,-0.283734 1.823758,-1.096552 2.089905,-2.125215 z m -8.953374,2.631764 c 0.904047,0.127827 1.600894,0.90064 1.600894,1.839941 l -1.862853,0 c 0,-0.638939 0.09462,-1.254698 0.261959,-1.839941 z m 4.692093,0 c 0.167317,0.585243 0.261953,1.201002 0.261953,1.839941 l -1.86287,0 c 0,-0.939301 0.696845,-1.712114 1.600917,-1.839941 z m -4.785242,3.330528 1.694043,0 0,3.138368 c -0.822135,-0.859654 -1.419338,-1.939045 -1.694043,-3.138368 z m 3.184325,0 1.694041,0 c -0.274682,1.199323 -0.871908,2.278714 -1.694041,3.138368 l 0,-3.138368 z"
       id="path5605"
       style="display:inline;opacity:1;fill:#FFDF00;fill-opacity:1" /></g></g></svg>