<svg xmlns="http://www.w3.org/2000/svg" viewBox="0 0 2400 1600"><rect width="2400" height="1600" style="fill:#aa1a17"/><path d="M2225.1236,1078.7068c3.97-2.1379,5.192-5.4975,3.97-9.7733-1.5271-7.6354,3.665-15.5762,15.5762-23.517-15.5762,4.5813-23.2116,10.0787-23.517,17.1033a17.6167,17.6167,0,0,1-9.1624,15.2707q-8.7044,5.4975-8.2462,15.5762c-.3055,6.4137-2.4434,10.995-6.7191,13.7437q-6.4137,3.6649-6.4138,13.7437c.6108,6.7191-.9162,11.9112-4.2758,16.187l-4.5812,5.4975-7.0246,2.7487c-3.6649,9.1625-10.0787,16.7979-18.9357,23.2116a172.0337,172.0337,0,0,1,21.99,14.66c10.69-2.1379,19.5465-7.9408,26.5711-16.7978-1.5271-1.2217-2.4433-4.8867-3.0542-10.69-.3054-7.6354,1.2217-13.7437,5.1921-18.0195,3.665-4.2759,4.8867-9.4679,2.7487-15.8816-1.8325-6.7192-.3054-11.6058,4.8867-14.66,5.4975-3.0541,7.0245-7.33,4.5812-13.4382-3.0542-5.4975-.6109-10.69,6.4137-14.9654" style="fill:#ffd504"/><path d="M2119.1445,1078.4014c-3.36,3.665-3.665,8.857-.9162,14.9653,3.0541,6.1083,3.6649,11.6058,2.1379,16.7979l-2.1379,7.0245-6.1083,5.8029a54.0323,54.0323,0,0,1-8.5517,30.5416,130.4333,130.4333,0,0,1,26.8766,4.8866c9.4679-6.7191,15.5762-16.187,18.0195-28.0982-1.8326-.3054-3.97-3.0541-6.7192-8.5516-3.36-7.0246-3.97-13.1329-2.1379-18.63s.6109-10.69-3.6649-15.8816c-4.2758-5.4974-4.8867-10.6895-.9163-15.5761,3.665-4.5813,3.36-9.4679-1.2216-13.7437s-4.5813-9.4679.3054-16.4924c2.7487-3.36,2.7487-7.0246,0-10.69-4.2758-6.4137-2.7487-15.5761,5.192-27.7928-12.522,10.3842-17.714,18.63-14.9653,25.0441,2.4433,6.4137,1.2217,12.2166-2.7487,18.0195-3.97,5.4975-4.5812,10.9949-1.8325,17.1032,2.4433,6.1083,2.1378,11.3-.6109,15.2708" style="fill:#ffd504"/><path d="M2148.4644,1130.322c-2.4434,11.9112-8.5517,21.379-18.0195,28.0982a128.9869,128.9869,0,0,1,25.3494,10.0787c8.8571-6.4137,15.2708-14.0491,18.9358-23.2116a48.4565,48.4565,0,0,0,3.97-17.7141c.3054-2.4433.3054-4.5812.6108-6.7191.6108-15.2707.6108-30.5415,0-46.1177q-1.8324-27.0293,26.5711-50.3935c-30.5415,4.5812-49.1718,23.517-55.5855,56.5018l-.3055,25.3495c.6109,9.1624.3055,17.1032-1.527,24.1278" style="fill:#ffd504"/><path d="M2155.7943,1168.4989a128.9869,128.9869,0,0,0-25.3494-10.0787,130.4322,130.4322,0,0,0-26.8766-4.8867,206.7575,206.7575,0,0,0-27.1819.3054,99.52,99.52,0,0,0-19.852,3.665,124.7431,124.7431,0,0,0-24.7387,8.8571,9.1458,9.1458,0,0,0-2.4433,1.2216,108.82,108.82,0,0,0-22.2953,14.0491,159.4547,159.4547,0,0,0-13.1329,11.9112,44.1711,44.1711,0,0,0-6.4137,6.7192,137.4483,137.4483,0,0,0-27.4874,47.0339l35.7336,4.8866a34.365,34.365,0,0,1,6.4137-3.6649c6.1083-6.4137,12.522-10.69,19.852-12.8275a59.3675,59.3675,0,0,1,20.1574-2.7487c6.4137.3054,13.1329,2.1379,20.4628,5.4975q8.2463,3.2068,10.995,10.0787l-3.0542,10.0787c3.36,10.3841,4.8867,19.5466,4.8867,27.182l-14.3545-7.0246c-4.2759,3.665-10.995,6.4137-19.852,8.2462-8.8571,1.5271-16.1871,0-21.3791-5.192-5.4975-5.1921-10.6895-9.7733-15.5762-14.3545a40.1,40.1,0,0,1-8.5516.3054,40.1,40.1,0,0,0,8.5516-.3054,38.2383,38.2383,0,0,0,13.7437-5.4975,69.6124,69.6124,0,0,1,12.522-3.36,12.2559,12.2559,0,0,1,4.5813-.9162c1.2216,0,2.1379.3054,3.36.3054.9163.3054,2.1379.3054,3.36.6108,8.857,1.2216,15.5762,7.9408,19.2412,20.1574l14.3545,7.0245c0,6.7192-.3055,13.7437-.6109,20.7683a59.3117,59.3117,0,0,0-.6108,7.33c-.6108,2.7488-1.2216,5.1921-1.8325,7.6354a17.54,17.54,0,0,0,4.8867,7.9408l.3054.3055a12.81,12.81,0,0,0,4.2758,2.7487,22.8814,22.8814,0,0,0,4.8866,1.2216,25.4455,25.4455,0,0,0,4.5813-1.2216,12.0816,12.0816,0,0,0,4.5812-3.0542l.6108-.3054a23.064,23.064,0,0,0,4.5812-7.6354,31.0178,31.0178,0,0,1-1.8325-7.6354,59.31,59.31,0,0,1-.6108-7.33c-.6108-7.0246-.9162-13.7437-.9162-20.7683a100.3033,100.3033,0,0,1,3.6649-25.96l-1.8325-11.3c1.8325-4.5812,5.4975-7.9408,11.3-10.0787a52.5985,52.5985,0,0,1,20.4628-5.4975,59.3671,59.3671,0,0,1,20.1574,2.7487c7.0246,2.1379,13.7437,6.4138,19.852,12.8275a34.365,34.365,0,0,1,6.4137,3.6649v15.5762a43.0017,43.0017,0,0,1-8.857-.3054c-4.8866,4.5812-10.0787,9.1625-15.2707,14.3545-5.4975,5.1921-12.5221,6.7191-21.6845,5.1921-8.8571-1.8325-15.5762-4.5813-19.852-8.2462,3.97-12.2166,10.3841-18.9358,19.5465-20.1574.9163-.3055,2.1379-.3055,3.36-.6109.9163,0,1.8325-.3054,3.0542-.3054a12.2539,12.2539,0,0,1,4.5812.9163,63.47,63.47,0,0,1,12.522,3.36,34.3978,34.3978,0,0,0,22.6007,5.8029v-15.5761a34.36,34.36,0,0,0-6.4137-3.665,67.2148,67.2148,0,0,0-14.9653-6.1083,54.0527,54.0527,0,0,0-20.1574-3.0542c-6.4138.3054-11.9112,2.1379-16.4925,5.8029s-11.3,4.8867-20.1574,3.36l1.8325,11.3a100.3033,100.3033,0,0,0-3.6649,25.96c0,7.0246.3054,13.7437.9162,20.7683,7.6354,3.665,11.9112,8.2462,12.2166,14.66.9163,6.1083-3.97,8.5517-14.3545,7.9408l-.6108.3055c-.3054,1.8325-1.2217,3.0541-2.7487,3.36-.6109.3054-.9163.3054-1.2217.6108h-.6108c.3054,9.1624-.6109,15.2707-2.1379,18.3249v.3054a86.3875,86.3875,0,0,1,24.4332,10.0787c1.8325.9163,4.2758,1.2217,7.33,1.5271-3.0541-.3054-5.4974-.6108-7.33-1.5271-1.2217,6.1084-4.5812,10.0788-10.0787,12.2167a47.4539,47.4539,0,0,1-7.0246,1.527c-3.36,0-6.7191,0-9.7733.3055-3.36-.3055-6.7191-.3055-9.7732-.3055a44.07,44.07,0,0,1-7.33-1.527c-5.1921-2.1379-8.5516-6.1083-10.0787-12.2167-1.8325.9163-4.2758,1.2217-7.0246,1.5271,2.7488-.3054,5.1921-.6108,7.0246-1.5271a22.7758,22.7758,0,0,1,3.665-2.1378,79.4633,79.4633,0,0,1,20.7682-7.9409v-.3054c-1.5271-3.0542-2.1379-9.1625-2.1379-18.3249h-.6108c-.3054-.3054-.6108-.3054-.9163-.6108a3.56,3.56,0,0,1-3.0541-3.0542c-10.0787.3054-14.9654-2.4433-14.3545-8.5516.6108-6.4138,4.5812-10.995,11.9112-14.66.3054-7.0245.6108-14.0491.6108-20.7682,0-7.6354-1.5271-16.7978-4.8867-27.182l3.0542-10.0787c-8.8571,1.5271-15.5762.3054-20.1574-3.36s-10.0787-5.4975-16.4924-5.8029a53.1751,53.1751,0,0,0-20.1574,3.0541,59.8664,59.8664,0,0,0-14.66,6.1083,34.3657,34.3657,0,0,0-6.4137,3.665l-35.7336-4.8866a160.027,160.027,0,0,0-5.8029,27.7927c-.3054,5.1921-.6108,10.3842-.6108,15.8816,0,3.665,0,7.6354.3054,11.3a146.9867,146.9867,0,0,0,3.665,23.2116,140.3337,140.3337,0,0,0,8.8571,24.7386,148.7755,148.7755,0,0,0,14.049,22.9062,136.4881,136.4881,0,0,0,10.3842,12.2166l1.527,1.5271,1.5271,1.527c1.8325,1.8325,3.665,3.36,5.4975,4.8867a126.75,126.75,0,0,0,46.4231,28.0982,157.9934,157.9934,0,0,0,25.0441,6.1083c6.7191.6108,13.4383,1.2216,20.4628,1.2216h7.33a138.3733,138.3733,0,0,0,31.7631-5.4974,128.9856,128.9856,0,0,0,25.3495-10.0788,133.126,133.126,0,0,0,21.6845-14.3545,116.3823,116.3823,0,0,0,11.3-10.3841c3.0541-3.0541,5.4974-5.8028,7.9408-8.5516a162.236,162.236,0,0,0,15.2707-21.3791,130.0015,130.0015,0,0,0,10.995-25.044,173.7451,173.7451,0,0,0,5.4975-25.6549c.3054-5.4975.6108-11.3.6108-16.7978,0-3.665-.3054-7.33-.3054-10.995-.9163-10.3841-2.4434-20.1574-5.4975-29.6252a122.8149,122.8149,0,0,0-10.3841-25.35,151.9423,151.9423,0,0,0-15.2708-22.2953c-2.7487-3.0542-5.8028-6.1083-8.857-9.1625-3.36-3.665-7.33-7.0245-10.995-10.3841a172.0169,172.0169,0,0,0-21.99-14.66" style="fill:#ffd504"/><path d="M2053.48,1245.1581c4.5812,3.665,11.3,4.8866,20.1574,3.36q-2.7487-6.8719-10.9949-10.0787c-7.33-3.36-14.0491-5.1921-20.4628-5.4975a59.3668,59.3668,0,0,0-20.1574,2.7487c-7.33,2.1379-13.7437,6.4137-19.852,12.8274a59.8642,59.8642,0,0,1,14.66-6.1083,53.1774,53.1774,0,0,1,20.1574-3.0541c6.4137.3054,11.9112,2.1379,16.4924,5.8029" style="fill:#ffd504"/><path d="M2110.8983,1238.439c-5.8029,2.1379-9.4679,5.4975-11.3,10.0787,8.857,1.5271,15.5762.3054,20.1574-3.36s10.0788-5.4975,16.4924-5.8029a54.0532,54.0532,0,0,1,20.1575,3.0542,67.2168,67.2168,0,0,1,14.9653,6.1083c-6.1083-6.4137-12.8274-10.69-19.852-12.8274a59.3677,59.3677,0,0,0-20.1574-2.7488,52.5985,52.5985,0,0,0-20.4628,5.4975" style="fill:#ffd504"/><path d="M2048.2882,1270.813c0-3.36-1.5271-6.4137-4.2758-9.4679a17.7892,17.7892,0,0,0-5.4975-3.36,34.8308,34.8308,0,0,0-7.9408.6108,18.2291,18.2291,0,0,0-4.5813,2.7487,14.8044,14.8044,0,0,0-3.6649,9.4679,12.06,12.06,0,0,0,3.6649,8.5516l6.4138-6.4137a1.8885,1.8885,0,0,1-.6109-2.1379c-.3054-1.2216,0-1.8325.6109-2.1379a2.9524,2.9524,0,0,1,4.2758,0c.6108.3054.6108.9163.6108,2.1379a2.5769,2.5769,0,0,1-.6108,2.1379,4.0469,4.0469,0,0,1-4.2758,0l-6.4138,6.4137c2.7488,2.7488,5.8029,4.2758,9.1625,4.2758a15.0215,15.0215,0,0,0,13.1329-12.8274" style="fill:#ffd504"/><path d="M2036.6824,1268.6751a2.9522,2.9522,0,0,0-4.2758,0c-.6108.3054-.9163.9162-.6108,2.1379a1.8886,1.8886,0,0,0,.6108,2.1379,4.0469,4.0469,0,0,0,4.2758,0,2.5771,2.5771,0,0,0,.6108-2.1379c0-1.2217,0-1.8325-.6108-2.1379" style="fill:#ffd504"/><path d="M2044.0124,1261.3451c2.7487,3.0542,4.2758,6.1083,4.2758,9.4679a15.0215,15.0215,0,0,1-13.1329,12.8274c-3.36,0-6.4137-1.527-9.1625-4.2758a12.06,12.06,0,0,1-3.6649-8.5516,14.8044,14.8044,0,0,1,3.6649-9.4679,18.2291,18.2291,0,0,1,4.5813-2.7487,69.62,69.62,0,0,0-12.522,3.36,38.2362,38.2362,0,0,1-13.7437,5.4975c4.8866,4.5813,10.0787,9.1625,15.5761,14.3545,5.1921,5.1921,12.5221,6.7192,21.3791,5.1921,8.8571-1.8325,15.5762-4.5812,19.852-8.2462-3.665-12.2166-10.3841-18.9358-19.2412-20.1574-1.2216-.3054-2.4433-.3054-3.36-.6108a17.7892,17.7892,0,0,1,5.4975,3.36" style="fill:#ffd504"/><path d="M2038.5149,1257.9855c-1.2217,0-2.1379-.3054-3.36-.3054a12.2535,12.2535,0,0,0-4.5812.9163,34.8252,34.8252,0,0,1,7.9408-.6109" style="fill:#ffd504"/><path d="M2074.8593,1306.5466c-7.33,3.665-11.3,8.2462-11.9112,14.66-.6108,6.1083,4.2758,8.8571,14.3545,8.5517v-.3055a17.5392,17.5392,0,0,1-4.8866-7.9408c.6108-2.4433,1.2216-4.8866,1.8324-7.6354a59.33,59.33,0,0,1,.6109-7.33" style="fill:#ffd504"/><path d="M2098.6817,1306.5466a59.3085,59.3085,0,0,0,.6108,7.33,31.0088,31.0088,0,0,0,1.8325,7.6354,23.0657,23.0657,0,0,1-4.5812,7.6354c10.3841.6108,15.2707-1.8325,14.3545-7.9408-.3054-6.4137-4.5813-10.9949-12.2166-14.66" style="fill:#ffd504"/><path d="M2091.9625,1333.4231c.3054-.3054.6109-.3054,1.2217-.6108a3.8728,3.8728,0,0,1-1.8325-.3055v.9163h.6108" style="fill:#ffd504"/><path d="M2091.3517,1333.4231v-.9163a25.4367,25.4367,0,0,1-4.5812,1.2217c1.2217,0,3.0541-.3054,4.5812-.3054" style="fill:#ffd504"/><path d="M2091.3517,1332.5069a3.8739,3.8739,0,0,0,1.8325.3054c1.5271-.3054,2.4433-1.5271,2.7487-3.36a12.082,12.082,0,0,1-4.5812,3.0542" style="fill:#ffd504"/><path d="M2081.273,1333.4231h.6108v-.9163a3.32,3.32,0,0,1-1.5271.3055c.3055.3054.6109.3054.9163.6108" style="fill:#ffd504"/><path d="M2081.8838,1332.5069v.9162c1.8325,0,3.36.3055,4.8867.3055a22.8868,22.8868,0,0,1-4.8867-1.2217" style="fill:#ffd504"/><path d="M2086.7705,1333.7285c-1.5271,0-3.0542-.3054-4.8867-.3054,0,9.1625.6109,15.2708,2.1379,18.3249v.3054a9.5093,9.5093,0,0,0,2.7488,2.1379,8.2319,8.2319,0,0,0,2.4433-2.1379v-.3054c1.5271-3.0541,2.4433-9.1624,2.1379-18.3249-1.5271,0-3.36.3054-4.5812.3054" style="fill:#ffd504"/><path d="M2080.3568,1332.8123a3.32,3.32,0,0,0,1.527-.3055,12.8107,12.8107,0,0,1-4.2758-2.7487h-.3054a3.56,3.56,0,0,0,3.0542,3.0542" style="fill:#ffd504"/><path d="M2089.2138,1352.0534a8.2319,8.2319,0,0,1-2.4433,2.1379,9.5093,9.5093,0,0,1-2.7488-2.1379,79.4682,79.4682,0,0,0-20.7682,7.9409,22.7735,22.7735,0,0,0-3.665,2.1379c3.97,0,7.9408.3054,11.6058.6108,4.8867.3054,9.7733.3054,14.66.9162h2.7487c4.8866,0,9.4679,0,13.4382-.9162a43.2274,43.2274,0,0,1,11.6058-.6108,86.3879,86.3879,0,0,0-24.4332-10.0788" style="fill:#ffd504"/><path d="M2088.603,1363.6592h-2.7488a.5726.5726,0,0,0-.9162,0c-5.1921,0-9.4679,0-13.7437-.9162-3.665-.3055-7.6354-.6108-11.6058-.6108,1.5271,6.1083,4.8866,10.0787,10.0787,12.2166a44.07,44.07,0,0,0,7.33,1.527c3.0541,0,6.4137,0,9.7733.3055,3.0541-.3055,6.4137-.3055,9.7732-.3055a47.4539,47.4539,0,0,0,7.0246-1.527c5.4975-2.1379,8.857-6.1083,10.0787-12.2166a43.2271,43.2271,0,0,0-11.6058.6108c-3.97.9162-8.5516.9162-13.4382.9162" style="fill:#ffd504"/><path d="M2084.938,1363.6592a.5727.5727,0,0,1,.9163,0c-4.8867-.6108-9.7733-.6108-14.66-.9162,4.2758.9162,8.5516.9162,13.7437.9162" style="fill:#ffd504"/><path d="M2077.608,1329.7581l-.3054-.3054v.3054h.3054" style="fill:#ffd504"/><path d="M2147.5481,1261.3451a14.8045,14.8045,0,0,1,3.665,9.4679,12.06,12.06,0,0,1-3.665,8.5516c-3.0542,2.7488-6.1083,4.2758-9.4679,4.2758s-6.1083-1.527-8.857-4.2758a11.2669,11.2669,0,0,1-3.97-8.5516,13.7008,13.7008,0,0,1,3.97-9.4679,13.8416,13.8416,0,0,1,5.8029-3.36c-1.2217.3054-2.4434.3054-3.36.6108-9.1625,1.2216-15.5762,7.9408-19.5466,20.1574,4.2758,3.665,10.995,6.4137,19.852,8.2462,9.1625,1.5271,16.187,0,21.6845-5.1921,5.1921-5.192,10.3841-9.7732,15.2708-14.3545a43.1924,43.1924,0,0,1-13.7437-5.4975,63.4693,63.4693,0,0,0-12.5221-3.36,15.49,15.49,0,0,1,4.8867,2.7487" style="fill:#ffd504"/><path d="M2151.2131,1270.813a14.804,14.804,0,0,0-3.665-9.4679,15.4883,15.4883,0,0,0-4.8866-2.7487,33.53,33.53,0,0,0-7.6354-.6108,13.8416,13.8416,0,0,0-5.8029,3.36,13.7012,13.7012,0,0,0-3.97,9.4679,11.2669,11.2669,0,0,0,3.97,8.5516c2.7488,2.7488,5.4975,4.2758,8.8571,4.2758s6.4137-1.527,9.4678-4.2758l-6.4137-6.4137a4.4141,4.4141,0,0,1-2.1379.6108,2.9209,2.9209,0,0,1-2.1379-.6108,2.7727,2.7727,0,0,1-.9162-2.1379c0-1.2216.3054-1.8325.9162-2.1379.3054-.6108.9163-.9162,2.1379-.9162a2.7726,2.7726,0,0,1,2.1379.9162c.3054.3054.3054.9163.6108,2.1379a19.4589,19.4589,0,0,1-.6108,2.1379l6.4137,6.4137a12.06,12.06,0,0,0,3.665-8.5516" style="fill:#ffd504"/><path d="M2141.7452,1270.813c-.3054-1.2217-.3054-1.8325-.6108-2.1379a2.7727,2.7727,0,0,0-2.1379-.9163c-1.2216,0-1.8325.3055-2.1379.9163-.6108.3054-.9162.9163-.9162,2.1379a2.7727,2.7727,0,0,0,.9162,2.1379,2.9209,2.9209,0,0,0,2.1379.6108,4.4141,4.4141,0,0,0,2.1379-.6108,19.4654,19.4654,0,0,0,.6108-2.1379" style="fill:#ffd504"/><path d="M2138.08,1257.68c-1.2217,0-2.1379.3054-3.0542.3054a33.5246,33.5246,0,0,1,7.6354.6109,12.2539,12.2539,0,0,0-4.5812-.9163" style="fill:#ffd504"/><path d="M2216.2665,1142.2332c-3.0541,9.7733-7.0245,17.7141-11.9111,24.1278-7.0246,8.857-15.8816,14.66-26.5712,16.7978,3.665,3.36,7.6354,6.7192,10.995,10.3841,3.0542,3.0542,6.1083,6.1084,8.857,9.1625a57.56,57.56,0,0,0,25.6549-13.4383,54.39,54.39,0,0,0,11.9112-16.4924c.6108-1.2217,1.2216-2.4433,1.8325-3.97a359.1815,359.1815,0,0,0,18.3249-44.5906c6.1083-16.7979,20.4628-29.0145,43.98-36.3444-29.9307-7.0246-54.0585,3.36-72.6889,31.1523l-10.3841,22.9061v.3055" style="fill:#ffd504"/><path d="M2063.2535,1097.6425c-.9162-5.4974-4.5812-9.4678-10.6895-12.2166-6.4137-2.7487-8.8571-7.0245-7.6354-12.8274,1.5271-6.1083-.9162-9.7733-6.7191-11.6058-6.4137-1.8325-8.8571-7.0245-7.6354-15.5762a10.0639,10.0639,0,0,0,0-4.2758c-.3054-1.8325-1.8325-3.36-4.2758-4.5812-6.7191-3.97-9.1625-13.1329-7.6354-27.7928-6.7191,14.9654-7.6354,24.4332-2.4433,29.32a16.6066,16.6066,0,0,1,4.8866,7.9408,17.2946,17.2946,0,0,1,.6108,8.857,16.2664,16.2664,0,0,0,5.4975,16.187c4.8867,4.5812,7.0246,9.4679,5.8029,14.3545v3.665c.6108,3.36,2.7487,6.7191,6.4137,9.7733,5.4975,4.2758,8.5517,8.857,9.4679,14.3545l1.5271,6.7191-.9163,1.8325c6.7191,10.69,8.8571,22.6008,7.0246,35.7336a99.5133,99.5133,0,0,1,19.852-3.665c6.4137-10.9949,7.9408-23.5169,4.5812-36.9552a1.122,1.122,0,0,1-.3054-.9163c-3.665-.3054-6.1083-.9162-7.6354-2.1379-5.8029-4.8866-9.1625-10.3841-9.7733-16.187" style="fill:#ffd504"/><path d="M2106.0117,1098.2534a414.3288,414.3288,0,0,0-17.1033-40.0094c-7.9408-16.187-6.1083-35.1228,5.1921-56.5018q-38.94,24.28-29.32,73.3l9.4679,23.8224a107.3961,107.3961,0,0,1,6.4137,17.1033,1.1219,1.1219,0,0,0,.3054.9162c3.36,13.4383,1.8325,25.96-4.5812,36.9553a206.7109,206.7109,0,0,1,27.1819-.3054,54.0331,54.0331,0,0,0,8.5517-30.5416,58.413,58.413,0,0,0-3.0542-15.8816c-1.2217-3.0541-2.1379-5.8029-3.0541-8.857" style="fill:#ffd504"/><path d="M2024.7712,1093.6722c-6.1083-5.8029-12.2166-11.9112-18.63-17.7141q-20.1574-17.8668-16.4925-54.0585c-18.02,24.7386-17.7141,51.0043.6108,79.1025l17.7141,18.3249a87.6,87.6,0,0,1,9.4679,8.8571,4.2178,4.2178,0,0,1,.9163,1.2216c9.7732,11.6058,14.3545,23.8224,13.4382,36.9553a124.7494,124.7494,0,0,1,24.7387-8.8571c1.8325-13.1328-.3054-25.044-7.0246-35.7335a67.8877,67.8877,0,0,0-5.8029-8.2462c-6.1083-6.7192-12.522-13.4383-18.9357-19.852" style="fill:#ffd504"/><path d="M2031.7957,1166.361c.9163-13.1329-3.6649-25.35-13.4382-36.9553a4.216,4.216,0,0,0-.9163-1.2216c-4.8866,3.36-8.2462,4.5812-10.3841,3.97-7.0246-2.1379-12.2166-6.1083-14.9654-10.995q-4.5811-7.33-14.66-7.33-10.5369-.4582-11.9112-9.1625c-.9163-6.1083-4.5812-8.8571-10.9949-7.9408-6.4138.6108-10.69-3.0541-12.8275-11.3a7.7806,7.7806,0,0,0-7.6354-6.7191c-7.33-1.2217-13.4382-8.857-17.1032-22.6007-.9163,15.8816,2.1379,25.044,8.5516,27.4873a22.325,22.325,0,0,1,7.9408,5.8029,17.3424,17.3424,0,0,1,3.665,7.9408c1.2217,6.4137,5.192,10.69,11.3,12.8275,6.4138,2.4433,9.7733,5.8028,10.995,10.9949q1.3743,7.33,10.9949,10.0787c6.7192,1.8325,11.3,4.8867,14.0491,9.4679l3.97,5.8029-.3054,5.4975c9.7733,7.33,15.8816,17.1032,18.9358,29.6252a108.82,108.82,0,0,1,22.2953-14.0491,9.1458,9.1458,0,0,1,2.4433-1.2216" style="fill:#ffd504"/><path d="M1987.5105,1200.2621a44.1711,44.1711,0,0,1,6.4137-6.7192,159.4516,159.4516,0,0,1,13.1329-11.9111c-3.0541-12.5221-9.1624-22.2954-18.9357-29.6253a80.1982,80.1982,0,0,0-10.0787-6.1083,433.0639,433.0639,0,0,0-48.8665-20.4628c-16.7978-6.1083-28.709-20.7683-36.039-43.98-7.0245,29.9307,3.0542,54.3639,30.847,72.9942l23.5169,10.0787a121.8081,121.8081,0,0,1,14.0491,5.8029c13.4383,7.0245,22.2954,17.1032,25.96,29.9307" style="fill:#ffd504"/><path d="M2197.6362,1202.7054a151.9423,151.9423,0,0,1,15.2708,22.2953c10.3841,1.8325,20.1574,0,29.9307-4.8866-.9163-3.36-.6108-6.7192.6108-10.69q4.1231-10.5367,11.9112-14.66c5.192-2.4433,7.9408-7.0246,8.5516-14.0491.9163-6.7191,4.2758-10.6895,10.0787-11.3q9.1625-1.3743,9.1625-10.9949c-.6108-6.1083,3.36-10.0787,11.9112-10.9949,4.2758-.6109,6.7191-3.36,7.33-7.6354,1.5271-7.6354,9.1625-12.8275,23.2116-16.187-15.8816-1.5271-25.044.9162-27.7928,7.0245-3.0542,6.4137-7.9408,9.7733-14.66,10.995a16.2893,16.2893,0,0,0-13.7436,10.6895c-2.4434,6.1083-6.4138,9.7733-10.995,10.3841-5.1921.6108-8.857,3.97-11.3,10.0787-2.1379,6.4137-5.8028,10.995-10.3841,13.4383l-6.4137,3.665-7.0246-.6108a57.5605,57.5605,0,0,1-25.6548,13.4382" style="fill:#ffd504"/><path d="M2212.907,1225.0007a122.8149,122.8149,0,0,1,10.3841,25.35c9.7733,1.2216,18.63.9162,26.5711-1.5271a55.9777,55.9777,0,0,0,20.1574-11.6058,480.2746,480.2746,0,0,0,37.5661-37.2606c11.9112-13.4383,29.9307-18.9358,54.3639-16.7979-25.044-18.0195-51.31-17.7141-79.1025.9163l-18.3249,17.7141c-7.0246,8.2462-14.3545,14.3545-21.6845,18.3249-9.7733,4.8866-19.5466,6.7191-29.9307,4.8866" style="fill:#ffd504"/><path d="M2229.094,1290.97c0,5.4975-.3054,11.3-.6108,16.7978,8.857,5.1921,18.0195,8.2462,26.8765,8.5517a54.58,54.58,0,0,0,21.99-2.7487,4.34,4.34,0,0,1,1.8325-.6109,478.2477,478.2477,0,0,0,47.034-19.5466c16.187-7.9407,34.8173-6.1083,56.5018,5.1921q-24.28-38.94-73.3-29.32l-23.8224,9.4678c-9.7733,4.8867-19.2411,7.9408-28.0982,8.5517h-1.8324a47.04,47.04,0,0,1-26.8766-7.33c0,3.6649.3054,7.33.3054,10.9949" style="fill:#ffd504"/><path d="M2223.2911,1250.35c3.0541,9.4678,4.5812,19.2411,5.4975,29.6252a47.04,47.04,0,0,0,26.8765,7.33h1.2217a22.4027,22.4027,0,0,1,4.8866-11.6058c5.1921-5.4975,10.69-8.5516,16.4924-8.857,5.8029-.6109,10.3841-3.665,13.4383-9.7733,2.4433-4.5812,5.4975-7.0246,9.4679-7.33a11.1314,11.1314,0,0,1,4.2758.6108c5.8028,1.5271,10.0787-.6108,12.522-6.7191,1.5271-4.5812,5.1921-6.7191,10.3841-6.4137a30.4557,30.4557,0,0,1,4.8867.6108,7.7476,7.7476,0,0,0,3.665.6108c2.7487-.3054,4.5812-1.8325,6.4137-4.2758,3.97-6.7191,13.1329-8.5516,27.1819-6.1083-14.0491-7.6354-23.5169-8.857-28.4036-3.97a19.0455,19.0455,0,0,1-8.857,4.5812c-1.5271,0-3.0542.3054-4.5813.3054-1.2216-.3054-2.7487-.3054-4.2757-.6108a17.0452,17.0452,0,0,0-16.7979,4.5813,20.4939,20.4939,0,0,1-7.33,4.8866,14.1178,14.1178,0,0,1-7.0246.6108c-4.8867-1.5271-9.4679,0-14.0491,4.8867l-1.8325,1.8324a13.2792,13.2792,0,0,1-2.1379,1.8325,19.4636,19.4636,0,0,1-10.69,4.5813l-7.33.9162-7.33-3.665c-7.9409,2.4434-16.7979,2.7488-26.5712,1.5272" style="fill:#ffd504"/><path d="M2257.803,1319.374l-2.4433-3.0541c-8.857-.3055-18.0195-3.36-26.8766-8.5517a173.7294,173.7294,0,0,1-5.4974,25.6549,45.7117,45.7117,0,0,0,21.379,16.4924c1.5271-2.7487,4.5813-5.1921,8.857-7.33,7.0246-3.0542,13.1329-3.9705,18.63-2.1379a3.3208,3.3208,0,0,0,1.5271.3054c4.8866,1.5271,9.7732,0,14.3545-3.97q8.2462-6.4137,15.5762-.9163c4.5812,3.665,9.4679,3.36,14.0491-1.2216,3.97-4.5812,9.4679-4.5812,16.187.3054,3.36,2.7487,7.0246,2.7487,10.6895,0,6.4138-4.2758,15.5762-2.4433,27.7929,5.1921q-15.5762-18.7831-24.7387-14.66c-6.7191,2.1379-12.522,1.2217-18.0195-3.0541a17.79,17.79,0,0,0-17.4086-1.8325c-6.1083,2.4433-11.3,2.4433-14.9654-.6109-4.2758-3.0541-9.1624-3.36-15.2707-.6108s-11.9112,3.665-16.7979,2.1379l-7.0246-2.1379" style="fill:#ffd504"/><path d="M1919.0975,1169.4151q-10.0787,3.2069-14.66-4.5812c-3.36-4.8867-7.6354-5.8029-13.4383-2.7488-5.4975,3.0542-10.9949,1.5271-15.8816-5.4974-2.4433-3.665-5.8029-4.8867-10.0787-3.36-7.0245,1.5271-15.2708-3.0542-24.1278-14.66q8.7043,22.9061,18.3249,22.9061a15.0185,15.0185,0,0,1,9.7733,2.1379,15.73,15.73,0,0,1,6.1083,5.8029c3.97,5.4975,8.857,7.9408,15.5762,7.6354s11.6057,1.8325,14.3545,5.8029c2.7487,4.2758,7.33,5.8029,14.0491,5.192,6.7191-.9162,12.2166.3054,16.7978,3.665l5.8029,3.97,3.36,7.33a54.8759,54.8759,0,0,1,26.2657,19.5466,111.9561,111.9561,0,0,1,16.187-22.2954c-3.665-12.8274-12.522-22.9061-25.96-29.9307l-3.0541,3.665c-1.2217.3054-3.0542.6108-4.8867.9163q-11.4531.9162-18.3249-4.5813a14.97,14.97,0,0,0-8.5516-2.7487,17.5122,17.5122,0,0,0-7.6354,1.8325" style="fill:#ffd504"/><path d="M1830.2217,1248.2123c-6.1083,4.2758-15.5762,3.0541-28.0982-3.97,10.9949,11.6057,19.5466,16.187,25.96,13.4382,6.1083-2.7487,11.9112-2.1379,17.7141,1.5271,5.4974,3.36,11.3,3.97,17.1032,1.2217q9.1624-4.5813,15.5762,0c3.97,2.4433,8.857,2.4433,14.66-.9163,6.1083-3.36,11.6058-4.2758,16.7978-3.0541l7.0246,1.2216,7.6354,8.5517a53.9654,53.9654,0,0,1,29.6252,8.857,160.0282,160.0282,0,0,1,5.8029-27.7928c-8.2462-10.3841-20.1574-16.4924-35.4281-17.7141a14.1389,14.1389,0,0,1-4.5813,4.8867c-7.0245,3.36-13.1328,4.5812-18.63,2.7487-4.5812-1.2216-9.1624,0-13.1328,3.36a4.1053,4.1053,0,0,0-2.1379,1.8325c-5.1921,4.5812-10.3842,5.192-15.2708,1.8325-4.8866-3.665-9.1625-3.0542-13.1329,2.1378-4.2758,4.8867-9.7733,5.4975-17.1032.9163-3.665-2.4433-7.0246-2.1379-10.3841.9163" style="fill:#ffd504"/><path d="M1858.6253,1289.7487c-16.187,7.9408-34.8173,6.1083-56.5018-5.4975,16.187,26.2658,40.62,36.039,73.3,29.6253l23.8224-9.4679a120.1968,120.1968,0,0,1,16.7979-6.7191c14.0491-3.665,26.8765-2.1379,37.8715,4.5812-.3055-3.6649-.3055-7.6353-.3055-11.3,0-5.4975.3055-10.6895.6109-15.8816a53.966,53.966,0,0,0-29.6253-8.857,65.32,65.32,0,0,0-17.1033,3.36,514.7757,514.7757,0,0,0-48.8664,20.1574" style="fill:#ffd504"/><path d="M1945.0578,1203.0108a74.2133,74.2133,0,0,0-14.3545-2.4433c-3.97-.3054-7.9408-.3054-11.6058-.3054a371.3651,371.3651,0,0,0-41.231.3054c-18.02.9162-34.8174-7.9408-50.0882-26.5712,4.5813,30.2362,23.517,48.5611,56.5019,55.28l25.3494.3054a122.0812,122.0812,0,0,1,14.9654,0c15.2708,1.2217,27.182,7.33,35.4282,17.7141a112.5589,112.5589,0,0,1,11.3-24.7386,54.8765,54.8765,0,0,0-26.2657-19.5466" style="fill:#ffd504"/><path d="M1916.0434,1297.69a29.5522,29.5522,0,0,1-3.36,5.4975c-5.1921,5.8029-10.3841,8.857-16.187,9.7733-5.8029.6108-9.7733,4.2758-12.2166,10.6895-3.0542,6.1083-7.33,8.857-13.4383,7.6354-5.8029-1.5271-9.7733.6108-11.6058,6.7191-1.527,6.1083-6.7191,8.857-14.9653,7.6354-4.2758-.9163-7.33.6108-9.4679,4.5812-3.665,6.4138-12.8274,8.8571-27.182,7.33,14.66,6.4137,24.1279,7.33,28.7091,2.4433,4.8866-4.8867,10.3841-6.7191,17.4087-5.4975,6.4137,1.2217,11.6057-.6108,16.187-5.4975,4.2758-4.8866,8.857-7.0245,14.0491-6.1083,4.5812.9163,9.1624-1.2216,13.4382-6.4137s9.1625-8.2462,14.3545-8.857l7.0246-1.5271,6.7191,3.0542c9.7733-4.5813,20.1574-5.8029,32.0686-3.665a146.9751,146.9751,0,0,1-3.6649-23.2116c-10.995-6.7191-23.8224-8.2462-37.8715-4.5812" style="fill:#ffd504"/><path d="M1980.486,1373.1271q-16.0344,4.1231-26.5711,14.66c-4.2759,4.5812-8.2462,9.4679-10.995,15.5762-1.2217,2.1379-2.1379,3.97-3.0541,5.8029-6.4138,14.0491-12.2167,28.4036-17.7141,43.0636-6.1083,16.7978-20.4629,29.0144-43.6744,36.039,29.6253,7.33,54.0585-3.0542,72.9942-30.847l10.0787-23.517a76.9168,76.9168,0,0,1,9.7733-20.7682c7.0246-10.3841,16.4924-17.1033,28.0982-19.852-1.8325-1.5271-3.665-3.0542-5.4975-4.8867l-1.5271-1.527-1.527-1.5271a136.4873,136.4873,0,0,1-10.3841-12.2166" style="fill:#ffd504"/><path d="M1953.9149,1387.787q10.5367-10.5367,26.5711-14.66a148.7684,148.7684,0,0,1-14.0491-22.9062c-11.9112-1.527-23.2116,1.5271-34.2065,9.4679a23.6107,23.6107,0,0,1-.9163,8.857c-2.4433,7.33-6.1083,12.2167-11.3,15.2708-4.5813,2.7487-7.0246,7.33-7.0246,14.3545-.3054,6.7191-3.36,10.995-9.4679,12.2166-5.8029.6108-8.5516,4.2758-7.9408,10.69.9163,6.4137-2.7487,10.69-10.9949,12.522-4.2758.9163-6.7191,3.665-6.7191,7.9408q-1.8326,11.4531-22.9062,17.4087c16.187.3054,25.35-2.4434,27.7928-8.5517,2.4433-6.4137,7.0246-10.3841,13.7437-11.6057,6.4137-1.5271,10.3841-5.1921,12.8274-11.3,2.1379-6.4137,5.8029-10.0787,10.69-10.995,4.8866-1.2216,8.2462-4.8866,10.0787-11.3,2.1379-6.4138,5.192-11.3,9.7733-14.0491l5.8029-3.9705,8.2462.6109" style="fill:#ffd504"/><path d="M1932.23,1359.6888c10.9949-7.9408,22.2953-10.9949,34.2065-9.4679a140.3337,140.3337,0,0,1-8.8571-24.7386c-11.9112-2.1379-22.2953-.9163-32.0686,3.665a47.9519,47.9519,0,0,0-13.7437,8.857c-2.1379,1.8325-4.2758,3.97-6.7191,6.1083a426.8562,426.8562,0,0,0-30.5415,31.4578c-11.9112,13.1328-29.9307,18.63-54.3639,16.4924,24.7386,17.7141,51.31,17.7141,79.1025-.9163l18.3249-17.4086a78.4761,78.4761,0,0,1,14.66-14.0491" style="fill:#ffd504"/><path d="M1981.7076,1470.86c3.97-2.7488,5.8029-7.6354,4.8867-14.0492-.6108-7.0245.6108-12.522,3.6649-17.1032l3.9705-5.8029,8.2462-3.0542a59.3123,59.3123,0,0,1,18.02-21.379,129.2548,129.2548,0,0,1-21.0737-16.187c-11.6058,2.7487-21.0737,9.4678-28.0982,19.8519.9163,1.5271,1.8325,4.5813,2.4433,9.1625.6109,7.33-.6108,13.4383-4.2758,18.3249-3.6649,4.2758-3.97,9.7733-1.5271,16.187s1.2217,11.3-3.97,14.66c-5.192,3.0541-6.1083,7.33-3.0541,12.8274,3.0541,5.8029,1.2217,11.3-5.4975,16.187-3.665,2.4434-4.8866,5.8029-3.36,9.7733,1.8325,7.33-2.7487,15.5762-14.3545,24.4332,15.2708-5.4975,22.6008-11.9112,22.2954-18.63a18.5206,18.5206,0,0,1,8.2462-15.8816c5.4974-3.665,7.9408-8.857,7.6353-15.5762-.3054-6.4137,1.5271-10.9949,5.8029-13.7436" style="fill:#ffd504"/><path d="M2255.0543,1392.0629h-2.4433c-5.8029-.3055-10.3841-1.8326-14.0491-4.8867l-5.4975-4.5812-2.1379-7.0246a66.534,66.534,0,0,1-18.9358-17.1033,162.236,162.236,0,0,1-15.2707,21.3791,47.9091,47.9091,0,0,0,14.3545,23.8224,29.0134,29.0134,0,0,1,8.857-1.2216c7.6354-.3055,13.7437,1.527,18.3249,5.192a4.7492,4.7492,0,0,0,2.4433,1.8325c3.665,2.1379,7.9409,2.7487,13.1329.9163,7.0246-2.1379,11.9112-.3055,14.9653,4.8866,2.7488,5.4975,7.33,7.0246,13.1329,4.5813,5.8029-3.0542,10.6895-.9163,14.9653,6.1083q3.2069,5.9556,10.0787,4.5812c7.33-1.5271,15.2708,3.36,23.517,15.2708-4.5812-15.5762-10.3841-23.2116-17.1033-23.2116-7.0245-.6108-11.9111-3.97-15.5762-9.7733s-8.857-8.2462-15.5762-8.2462c-6.4137,0-10.9949-2.4433-13.4382-6.4137-2.4432-4.2759-7.0245-6.4138-13.7436-6.1083" style="fill:#ffd504"/><path d="M2276.7388,1353.886c-12.5221.9162-23.517-.3055-32.3741-3.97a45.7117,45.7117,0,0,1-21.379-16.4924,130.0058,130.0058,0,0,1-10.995,25.0441,66.5379,66.5379,0,0,0,18.9357,17.1033,61.0752,61.0752,0,0,0,24.4332,7.0245,507.2531,507.2531,0,0,0,52.8369.6108c18.0195-1.2216,34.8173,7.6354,50.3935,26.2658-4.8867-30.2361-23.517-48.561-56.5018-55.28l-25.3494-.3054" style="fill:#ffd504"/><path d="M2262.69,1429.6289l-23.517-10.3841c-11.6058-3.665-20.7682-8.857-28.0982-15.5762a47.9105,47.9105,0,0,1-14.3545-23.8224c-2.4433,2.7487-4.8866,5.4975-7.9408,8.5516a116.3823,116.3823,0,0,1-11.3,10.3841c3.0542,9.7733,7.0246,18.02,11.3,23.8224a60.8379,60.8379,0,0,0,19.852,15.8816,489.404,489.404,0,0,0,48.561,19.852c16.7978,6.1083,29.0144,20.7683,36.3444,43.98,7.0246-29.6252-3.36-54.0585-30.8469-72.6888" style="fill:#ffd504"/><path d="M2251.6947,1526.4456c1.5271-15.8816-.6108-25.0441-6.7191-27.7928-6.4137-2.7488-9.7733-7.6354-10.69-14.66a18.0571,18.0571,0,0,0-10.995-13.7437c-6.1083-2.4433-9.4679-6.1083-10.3841-10.9949-.6108-5.1921-3.97-8.8571-10.0787-11.3a13.2341,13.2341,0,0,0-1.5271-.3054c-5.4975-2.1379-9.7733-5.4975-12.2166-10.0787l-3.0542-6.4138,2.7488-8.5516c-4.2758-5.8029-8.2462-14.0491-11.3-23.8224a133.1217,133.1217,0,0,1-21.6845,14.3545,50.796,50.796,0,0,0,4.8867,29.9307,15.0408,15.0408,0,0,1,5.4974,1.5271c7.33,2.7487,12.2167,6.4137,14.66,11.6058a11.54,11.54,0,0,0,2.7487,3.6649c2.4433,3.0542,6.1083,4.5813,10.995,5.1921q10.5367.9162,11.9112,10.0787c.6108,5.8029,4.2757,8.857,10.6895,8.857,6.4137-.3054,10.0787,3.36,11.3,11.9112.6109,4.2758,3.0542,7.0246,7.6354,7.6354q10.995,1.8327,15.5762,22.9063" style="fill:#ffd504"/><path d="M2123.7257,1458.338l9.1625-7.6354-.6108-.9163a68.51,68.51,0,0,1-1.8325-26.5711,138.3688,138.3688,0,0,1-31.7632,5.4975c-6.1083,9.4679-8.2462,19.2412-7.0246,30.5415a12.99,12.99,0,0,1,3.36.6108,15.2446,15.2446,0,0,1,5.1921,3.36c5.8029,5.1921,9.1624,10.69,9.4679,16.4924s3.0541,10.0787,8.857,13.4383c6.4137,3.36,8.857,7.9408,7.33,14.0491-1.527,5.4975.3055,9.7733,6.4138,11.9112,4.5812,1.8325,6.7191,5.192,6.7191,10.6895-.3054,1.5271-.6108,3.0542-.9162,4.8867a10.0607,10.0607,0,0,0,0,4.2758,7.0817,7.0817,0,0,0,4.2757,5.4974c6.4138,4.2758,8.2463,13.1329,5.8029,27.4874,7.6354-14.0491,8.857-23.5169,4.2758-28.0982a24.358,24.358,0,0,1-4.8866-9.1624v-4.2758a11.8723,11.8723,0,0,1,.6108-4.5813,16.5123,16.5123,0,0,0-4.5813-16.4924q-7.33-7.33-5.4974-14.66c1.527-4.8867-.3055-9.4679-4.8867-14.3545-5.4975-4.5812-8.2462-9.4679-8.857-14.66l-.6108-7.33" style="fill:#ffd504"/><path d="M2132.2773,1449.7863l.6109.9163a47.492,47.492,0,0,0,11.3,21.0736,484.3546,484.3546,0,0,0,37.5661,37.5661q19.6993,17.8668,16.4924,54.0585c18.02-24.7387,17.7141-51.0044-.6108-79.1025l-17.7141-18.325a76.9164,76.9164,0,0,1-19.2412-22.9061,50.7967,50.7967,0,0,1-4.8866-29.9307,128.9853,128.9853,0,0,1-25.3495,10.0787,68.5121,68.5121,0,0,0,1.8325,26.5711" style="fill:#ffd504"/><path d="M2045.8448,1421.3827a128.06,128.06,0,0,1-25.3494-11.9112,59.3136,59.3136,0,0,0-18.02,21.3791,55.5692,55.5692,0,0,0-5.8029,21.3791,23.1173,23.1173,0,0,1-.3054,4.5812c-.6109,15.8816-.6109,32.0686.3054,48.561,1.2216,17.7141-7.6354,34.5119-26.5712,49.7827,30.2362-4.5812,48.8665-23.517,55.28-56.5018l.6108-25.35q-1.3743-14.66,1.8325-25.6549a44.3937,44.3937,0,0,1,18.02-26.2657" style="fill:#ffd504"/><path d="M2033.3228,1454.9784c3.665,6.7191,4.5812,12.8274,3.0542,18.63-1.5271,5.4975.3054,10.69,4.8866,15.5762,4.8866,4.8867,5.4975,10.0787,1.8325,14.9653-3.36,4.8867-2.7487,9.1625,2.1379,13.4383,5.192,3.97,5.4975,9.4679,1.2217,16.7978-2.7488,3.665-2.4434,7.0246.6108,10.3841,4.5812,6.1083,3.0541,15.5762-3.97,28.0982,11.9112-10.9949,16.4924-19.5465,13.7437-25.96-2.7488-6.1083-2.4434-11.9111,1.527-17.4086,3.36-5.8029,3.97-11.6058.9163-17.4087q-4.1232-9.1624,0-15.5762c2.7487-3.97,2.4433-8.857-.6108-14.66a6.6788,6.6788,0,0,1-.9163-1.5271,23.4867,23.4867,0,0,1-2.4433-15.2708l1.5271-7.0245,5.4974-4.8867c.6109-8.857,3.665-17.4086,8.5517-25.6548a157.98,157.98,0,0,1-25.0441-6.1084,44.3939,44.3939,0,0,0-18.02,26.2658c1.5271,1.2217,3.36,3.36,5.4975,7.33" style="fill:#ffd504"/><path d="M2098.6817,1428.7127h-7.33c-7.0246,0-13.7437-.6108-20.4628-1.2217-4.8867,8.2462-7.9408,16.7979-8.5517,25.6549a53.323,53.323,0,0,0,2.7488,23.8224,4.4141,4.4141,0,0,1,.6108,2.1379,506.1352,506.1352,0,0,0,19.5466,46.7285c7.9408,15.8816,6.1083,34.8174-5.4975,56.5019,26.2657-16.1871,35.7336-40.62,29.6253-73.6051l-9.4679-23.517a81.5878,81.5878,0,0,1-7.33-20.1574,45.2443,45.2443,0,0,1-.9162-5.8029c-1.2216-11.3.9163-21.0737,7.0246-30.5415" style="fill:#ffd504"/><path d="M1924.595,1229.5819c15.2708,1.2217,27.182,7.33,35.4282,17.7141" style="fill:none;stroke:#89837c;stroke-linecap:round;stroke-linejoin:round"/><path d="M2148.4644,1130.322c-1.8326-.3054-3.97-3.0542-6.7192-8.5517-3.36-7.0245-3.97-13.1328-2.1379-18.63s.6109-10.69-3.6649-15.8816c-4.2758-5.4974-4.8867-10.6895-.9163-15.5761,3.665-4.5813,3.36-9.4679-1.2216-13.7437s-4.5813-9.4679.3054-16.4925c2.7487-3.3595,2.7487-7.0245,0-10.6895-4.2758-6.4137-2.7487-15.5762,5.192-27.7928-12.522,10.3841-17.714,18.63-14.9653,25.0441,2.4433,6.4137,1.2217,12.2166-2.7487,18.0195-3.97,5.4974-4.5812,10.9949-1.8325,17.1032,2.4433,6.1083,2.1379,11.3-.6108,15.2708-3.36,3.665-3.665,8.857-.9163,14.9653,3.0542,6.1083,3.665,11.6058,2.1379,16.7979l-2.1379,7.0245-6.1083,5.8029" style="fill:none;stroke:#89837c;stroke-linecap:round;stroke-linejoin:round"/><path d="M2148.4644,1130.322c-2.4434,11.9112-8.5517,21.379-18.0195,28.0982" style="fill:none;stroke:#89837c;stroke-linecap:round;stroke-linejoin:round"/><path d="M2155.7943,1168.4989a128.9869,128.9869,0,0,0-25.3494-10.0787" style="fill:none;stroke:#89837c;stroke-linecap:round;stroke-linejoin:round"/><path d="M2174.73,1145.2873a48.4565,48.4565,0,0,0,3.97-17.7141c.3054-2.4433.3054-4.5812.6108-6.7191.6108-15.2707.6108-30.5415,0-46.1177q-1.8324-27.0293,26.5711-50.3935c-30.5415,4.5812-49.1718,23.517-55.5855,56.5018l-.3055,25.3495c.6109,9.1625.3055,17.1032-1.527,24.1278" style="fill:none;stroke:#89837c;stroke-linecap:round;stroke-linejoin:round"/><path d="M2223.2911,1189.2671a54.39,54.39,0,0,0,11.9112-16.4924c.6108-1.2217,1.2216-2.4434,1.8325-3.97a359.1815,359.1815,0,0,0,18.3249-44.5906c6.1083-16.7979,20.4628-29.0145,43.98-36.3445-29.9307-7.0245-54.0585,3.36-72.6889,31.1524l-10.3841,22.9061v.3054c-3.0541,9.7733-7.0245,17.7141-11.9111,24.1278" style="fill:none;stroke:#89837c;stroke-linecap:round;stroke-linejoin:round"/><path d="M2174.73,1145.2873c-3.665,9.1625-10.0787,16.7979-18.9358,23.2116" style="fill:none;stroke:#89837c;stroke-linecap:round;stroke-linejoin:round"/><path d="M2080.6622,1115.9674c-3.665-.3054-6.1083-.9162-7.6354-2.1378-5.8029-4.8867-9.1625-10.3842-9.7733-16.1871-.9162-5.4974-4.5812-9.4678-10.6895-12.2166-6.4137-2.7487-8.8571-7.0245-7.6354-12.8274,1.5271-6.1083-.9162-9.7733-6.7191-11.6058-6.4137-1.8325-8.8571-7.0245-7.6354-15.5762a10.0639,10.0639,0,0,0,0-4.2758c-.3054-1.8325-1.8325-3.36-4.2758-4.5812-6.7191-3.97-9.1625-13.1329-7.6354-27.7928-6.7191,14.9654-7.6354,24.4332-2.4433,29.32a16.6066,16.6066,0,0,1,4.8866,7.9408,17.2946,17.2946,0,0,1,.6108,8.857,16.2664,16.2664,0,0,0,5.4975,16.187c4.8867,4.5812,7.0246,9.4679,5.8029,14.3545v3.665c.6108,3.36,2.7487,6.7191,6.4137,9.7733,5.4975,4.2758,8.5517,8.857,9.4679,14.3545l1.5271,6.7191-.9163,1.8325" style="fill:none;stroke:#89837c;stroke-linecap:round;stroke-linejoin:round"/><path d="M2112.12,1122.992a58.413,58.413,0,0,0-3.0542-15.8816c-1.2216-3.0541-2.1379-5.8029-3.0541-8.857a414.3288,414.3288,0,0,0-17.1033-40.0094c-7.9408-16.187-6.1083-35.1228,5.1921-56.5018q-38.94,24.28-29.32,73.3l9.4679,23.8224a107.3961,107.3961,0,0,1,6.4137,17.1033" style="fill:none;stroke:#89837c;stroke-linecap:round;stroke-linejoin:round"/><path d="M2049.51,1121.77a67.881,67.881,0,0,0-5.8029-8.2462c-6.1083-6.7191-12.522-13.4382-18.9357-19.8519-6.1083-5.8029-12.2166-11.9112-18.63-17.7141q-20.1574-17.8668-16.4924-54.0585c-18.02,24.7386-17.7141,51.0043.6108,79.1025l17.7141,18.3249a87.6083,87.6083,0,0,1,9.4678,8.8571" style="fill:none;stroke:#89837c;stroke-linecap:round;stroke-linejoin:round"/><path d="M2017.4412,1128.1841a4.216,4.216,0,0,1,.9163,1.2216c9.7733,11.6058,14.3545,23.8224,13.4383,36.9553" style="fill:none;stroke:#89837c;stroke-linecap:round;stroke-linejoin:round"/><path d="M2017.4412,1128.1841c-4.8866,3.36-8.2462,4.5812-10.3841,3.97-7.0245-2.1379-12.2166-6.1083-14.9653-10.995q-4.5813-7.33-14.66-7.33-10.5367-.4582-11.9112-9.1625c-.9162-6.1083-4.5812-8.8571-10.9949-7.9408-6.4137.6108-10.69-3.0541-12.8275-11.3a7.78,7.78,0,0,0-7.6353-6.7191c-7.33-1.2217-13.4383-8.857-17.1033-22.6007-.9162,15.8816,2.1379,25.044,8.5516,27.4873a22.325,22.325,0,0,1,7.9408,5.8029,17.3424,17.3424,0,0,1,3.665,7.9408c1.2217,6.4137,5.1921,10.69,11.3,12.8275,6.4137,2.4433,9.7732,5.8028,10.9949,10.9949q1.3745,7.33,10.995,10.0787c6.7191,1.8325,11.3,4.8867,14.0491,9.4679l3.97,5.8029-.3054,5.4975" style="fill:none;stroke:#89837c;stroke-linecap:round;stroke-linejoin:round"/><path d="M2031.7957,1166.361a9.1458,9.1458,0,0,0-2.4433,1.2216,108.82,108.82,0,0,0-22.2953,14.0491" style="fill:none;stroke:#89837c;stroke-linecap:round;stroke-linejoin:round"/><path d="M2076.3864,1153.8389a99.52,99.52,0,0,0-19.852,3.665" style="fill:none;stroke:#89837c;stroke-linecap:round;stroke-linejoin:round"/><path d="M2103.5683,1153.5335a206.7575,206.7575,0,0,0-27.1819.3054" style="fill:none;stroke:#89837c;stroke-linecap:round;stroke-linejoin:round"/><path d="M2049.51,1121.77c6.7192,10.69,8.8571,22.6008,7.0246,35.7336" style="fill:none;stroke:#89837c;stroke-linecap:round;stroke-linejoin:round"/><path d="M2080.6622,1115.9674a1.122,1.122,0,0,0,.3054.9163c3.36,13.4383,1.8325,25.96-4.5812,36.9552" style="fill:none;stroke:#89837c;stroke-linecap:round;stroke-linejoin:round"/><path d="M2056.5344,1157.5039a124.7431,124.7431,0,0,0-24.7387,8.8571" style="fill:none;stroke:#89837c;stroke-linecap:round;stroke-linejoin:round"/><path d="M2002.1705,1248.5177a59.8564,59.8564,0,0,1,14.66-6.1083,53.1756,53.1756,0,0,1,20.1574-3.0542c6.4137.3054,11.9112,2.1379,16.4924,5.8029s11.3,4.8866,20.1574,3.36q-2.7486-6.8719-10.9949-10.0787c-7.33-3.36-14.0491-5.1921-20.4628-5.4975a59.3671,59.3671,0,0,0-20.1574,2.7487c-7.33,2.1379-13.7437,6.4138-19.852,12.8275" style="fill:none;stroke:#89837c;stroke-linecap:round;stroke-linejoin:round"/><path d="M2171.3705,1248.5177a67.2072,67.2072,0,0,0-14.9653-6.1083,54.0509,54.0509,0,0,0-20.1575-3.0542c-6.4137.3054-11.9111,2.1379-16.4924,5.8029s-11.3,4.8866-20.1574,3.36c1.8325-4.5813,5.4975-7.9408,11.3-10.0787a52.5985,52.5985,0,0,1,20.4628-5.4975,59.3675,59.3675,0,0,1,20.1574,2.7487c7.0246,2.1379,13.7437,6.4138,19.852,12.8275" style="fill:none;stroke:#89837c;stroke-linecap:round;stroke-linejoin:round"/><path d="M2007.0571,1181.6317a159.4709,159.4709,0,0,0-13.1329,11.9112,44.1711,44.1711,0,0,0-6.4137,6.7192" style="fill:none;stroke:#89837c;stroke-linecap:round;stroke-linejoin:round"/><path d="M2002.1705,1248.5177a34.365,34.365,0,0,0-6.4137,3.6649" style="fill:none;stroke:#89837c;stroke-linecap:round;stroke-linejoin:round"/><path d="M2038.5149,1257.9855a17.7927,17.7927,0,0,1,5.4975,3.36c2.7487,3.0542,4.2758,6.1083,4.2758,9.4679a15.0215,15.0215,0,0,1-13.1329,12.8274c-3.36,0-6.4137-1.5271-9.1625-4.2758a12.06,12.06,0,0,1-3.6649-8.5516,14.8044,14.8044,0,0,1,3.6649-9.4679,18.2261,18.2261,0,0,1,4.5813-2.7487" style="fill:none;stroke:#89837c;stroke-linecap:round;stroke-linejoin:round"/><path d="M2034.5445,1267.7588a2.3778,2.3778,0,0,0-2.1379.9163c-.6108.3054-.9163.9163-.6108,2.1379a1.8886,1.8886,0,0,0,.6108,2.1379,4.0469,4.0469,0,0,0,4.2758,0,2.577,2.577,0,0,0,.6108-2.1379c0-1.2217,0-1.8325-.6108-2.1379a2.3779,2.3779,0,0,0-2.1379-.9163" style="fill:none;stroke:#89837c;stroke-linecap:round;stroke-linejoin:round"/><path d="M2038.5149,1257.9855c-1.2217,0-2.1379-.3054-3.36-.3054a12.2535,12.2535,0,0,0-4.5812.9163" style="fill:none;stroke:#89837c;stroke-linecap:round;stroke-linejoin:round"/><path d="M2004.3084,1267.4534c4.8866,4.5813,10.0787,9.1625,15.5761,14.3545,5.1921,5.1921,12.5221,6.7192,21.3791,5.1921,8.8571-1.8325,15.5762-4.5812,19.852-8.2462-3.665-12.2166-10.3841-18.9358-19.2412-20.1574-1.2216-.3054-2.4433-.3054-3.36-.6108" style="fill:none;stroke:#89837c;stroke-linecap:round;stroke-linejoin:round"/><path d="M2030.5741,1258.5964a34.8308,34.8308,0,0,1,7.9408-.6108" style="fill:none;stroke:#89837c;stroke-linecap:round;stroke-linejoin:round"/><path d="M2004.3084,1267.4534a40.0944,40.0944,0,0,1-8.5517.3054" style="fill:none;stroke:#89837c;stroke-linecap:round;stroke-linejoin:round"/><path d="M2030.5741,1258.5964a69.62,69.62,0,0,0-12.522,3.36,38.2362,38.2362,0,0,1-13.7437,5.4975" style="fill:none;stroke:#89837c;stroke-linecap:round;stroke-linejoin:round"/><path d="M2101.43,1259.818a100.3033,100.3033,0,0,0-3.6649,25.96c0,7.0246.3054,13.7437.9162,20.7683" style="fill:none;stroke:#89837c;stroke-linecap:round;stroke-linejoin:round"/><path d="M2074.8593,1306.5466c.3054-7.0246.6108-14.0491.6108-20.7683,0-7.6353-1.5271-16.7978-4.8866-27.1819" style="fill:none;stroke:#89837c;stroke-linecap:round;stroke-linejoin:round"/><path d="M2074.8593,1306.5466c-7.33,3.665-11.3,8.2462-11.9112,14.66-.6108,6.1083,4.2758,8.8571,14.3545,8.5517" style="fill:none;stroke:#89837c;stroke-linecap:round;stroke-linejoin:round"/><path d="M2077.3026,1329.4527a17.5392,17.5392,0,0,1-4.8866-7.9408c.6108-2.4433,1.2216-4.8866,1.8325-7.6354a59.31,59.31,0,0,1,.6108-7.33" style="fill:none;stroke:#89837c;stroke-linecap:round;stroke-linejoin:round"/><path d="M2098.6817,1306.5466a59.3085,59.3085,0,0,0,.6108,7.33,31.0088,31.0088,0,0,0,1.8325,7.6354,23.0657,23.0657,0,0,1-4.5812,7.6354" style="fill:none;stroke:#89837c;stroke-linecap:round;stroke-linejoin:round"/><path d="M2212.907,1225.0007a151.9423,151.9423,0,0,0-15.2708-22.2953" style="fill:none;stroke:#89837c;stroke-linecap:round;stroke-linejoin:round"/><path d="M2197.6362,1202.7054c-2.7487-3.0542-5.8028-6.1083-8.857-9.1625-3.36-3.6649-7.33-7.0245-10.995-10.3841" style="fill:none;stroke:#89837c;stroke-linecap:round;stroke-linejoin:round"/><path d="M2223.2911,1189.2671a57.5606,57.5606,0,0,1-25.6549,13.4383" style="fill:none;stroke:#89837c;stroke-linecap:round;stroke-linejoin:round"/><path d="M2242.8377,1220.1141c-.9163-3.36-.6108-6.7192.6108-10.69q4.1231-10.5367,11.9112-14.66c5.192-2.4433,7.9408-7.0246,8.5516-14.0491.9163-6.7191,4.2758-10.6895,10.0787-11.3q9.1625-1.3743,9.1625-10.9949c-.6108-6.1083,3.36-10.0787,11.9112-10.9949,4.2758-.6109,6.7191-3.36,7.33-7.6354,1.5271-7.6354,9.1625-12.8275,23.2116-16.187-15.8816-1.5271-25.044.9162-27.7928,7.0245-3.0542,6.4137-7.9408,9.7733-14.66,10.995a16.2893,16.2893,0,0,0-13.7436,10.6895c-2.4434,6.1083-6.4138,9.7733-10.995,10.3841-5.1921.6108-8.857,3.97-11.3,10.0787-2.1379,6.4137-5.8028,10.995-10.3841,13.4383l-6.4137,3.665-7.0246-.6108" style="fill:none;stroke:#89837c;stroke-linecap:round;stroke-linejoin:round"/><path d="M2223.2911,1250.35a122.8149,122.8149,0,0,0-10.3841-25.35" style="fill:none;stroke:#89837c;stroke-linecap:round;stroke-linejoin:round"/><path d="M2135.0261,1257.9855a13.8428,13.8428,0,0,0-5.8029,3.36,13.7012,13.7012,0,0,0-3.97,9.4679,11.2669,11.2669,0,0,0,3.97,8.5516c2.7488,2.7487,5.4975,4.2758,8.8571,4.2758s6.4137-1.5271,9.4678-4.2758a12.06,12.06,0,0,0,3.665-8.5516,14.804,14.804,0,0,0-3.665-9.4679,15.4864,15.4864,0,0,0-4.8866-2.7487" style="fill:none;stroke:#89837c;stroke-linecap:round;stroke-linejoin:round"/><path d="M2142.6615,1258.5964a63.47,63.47,0,0,1,12.522,3.36,43.1942,43.1942,0,0,0,13.7437,5.4975" style="fill:none;stroke:#89837c;stroke-linecap:round;stroke-linejoin:round"/><path d="M2168.9272,1267.4534c-4.8867,4.5813-10.0787,9.1625-15.2708,14.3545-5.4975,5.1921-12.522,6.7192-21.6845,5.1921-8.857-1.8325-15.5762-4.5812-19.852-8.2462,3.97-12.2166,10.3841-18.9358,19.5466-20.1574.9162-.3054,2.1379-.3054,3.36-.6108" style="fill:none;stroke:#89837c;stroke-linecap:round;stroke-linejoin:round"/><path d="M2141.7452,1270.813a19.4654,19.4654,0,0,1-.6108,2.1379,4.4141,4.4141,0,0,1-2.1379.6108,2.9209,2.9209,0,0,1-2.1379-.6108,2.7727,2.7727,0,0,1-.9162-2.1379c0-1.2217.3054-1.8325.9162-2.1379.3054-.6108.9163-.9163,2.1379-.9163a2.7727,2.7727,0,0,1,2.1379.9163c.3054.3054.3054.9162.6108,2.1379" style="fill:none;stroke:#89837c;stroke-linecap:round;stroke-linejoin:round"/><path d="M2135.0261,1257.9855c.9163,0,1.8325-.3054,3.0542-.3054a12.2539,12.2539,0,0,1,4.5812.9163" style="fill:none;stroke:#89837c;stroke-linecap:round;stroke-linejoin:round"/><path d="M2142.6615,1258.5964a33.53,33.53,0,0,0-7.6354-.6108" style="fill:none;stroke:#89837c;stroke-linecap:round;stroke-linejoin:round"/><path d="M2228.4831,1307.7682c.3055-5.4975.6109-11.3.6109-16.7978,0-3.665-.3055-7.33-.3055-10.9949" style="fill:none;stroke:#89837c;stroke-linecap:round;stroke-linejoin:round"/><path d="M2228.7886,1279.9755c-.9163-10.3842-2.4434-20.1575-5.4975-29.6253" style="fill:none;stroke:#89837c;stroke-linecap:round;stroke-linejoin:round"/><path d="M2171.3705,1248.5177a34.365,34.365,0,0,1,6.4137,3.6649" style="fill:none;stroke:#89837c;stroke-linecap:round;stroke-linejoin:round"/><path d="M2168.9272,1267.4534a42.9942,42.9942,0,0,0,8.857.3054" style="fill:none;stroke:#89837c;stroke-linecap:round;stroke-linejoin:round"/><path d="M2096.5438,1329.1473c10.3841.6108,15.2707-1.8325,14.3545-7.9408-.3055-6.4138-4.5813-10.995-12.2166-14.66" style="fill:none;stroke:#89837c;stroke-linecap:round;stroke-linejoin:round"/><path d="M2112.12,1122.992a54.032,54.032,0,0,1-8.5517,30.5415" style="fill:none;stroke:#89837c;stroke-linecap:round;stroke-linejoin:round"/><path d="M2130.4449,1158.42a130.4322,130.4322,0,0,0-26.8766-4.8867" style="fill:none;stroke:#89837c;stroke-linecap:round;stroke-linejoin:round"/><path d="M1988.1214,1152.0065c9.7732,7.33,15.8815,17.1032,18.9357,29.6252" style="fill:none;stroke:#89837c;stroke-linecap:round;stroke-linejoin:round"/><path d="M2204.3554,1166.361c-7.0246,8.857-15.8816,14.66-26.5712,16.7978" style="fill:none;stroke:#89837c;stroke-linecap:round;stroke-linejoin:round"/><path d="M2177.7842,1183.1588a172.0266,172.0266,0,0,0-21.99-14.66" style="fill:none;stroke:#89837c;stroke-linecap:round;stroke-linejoin:round"/><path d="M2256.8868,1287.3054a22.4027,22.4027,0,0,1,4.8866-11.6058c5.1921-5.4975,10.69-8.5516,16.4924-8.857,5.8029-.6108,10.3841-3.665,13.4383-9.7733,2.4433-4.5812,5.4975-7.0246,9.4679-7.33a11.13,11.13,0,0,1,4.2758.6109c5.8028,1.527,10.0787-.6109,12.522-6.7192,1.5271-4.5812,5.1921-6.7191,10.3841-6.4137a30.4557,30.4557,0,0,1,4.8867.6108,7.7465,7.7465,0,0,0,3.665.6109c2.7487-.3055,4.5812-1.8325,6.4137-4.2759,3.97-6.7191,13.1329-8.5516,27.1819-6.1083-14.0491-7.6353-23.5169-8.857-28.4036-3.97a19.0457,19.0457,0,0,1-8.857,4.5813c-1.5271,0-3.0542.3054-4.5813.3054-1.2216-.3054-2.7487-.3054-4.2757-.6109a17.0455,17.0455,0,0,0-16.7979,4.5813,20.4939,20.4939,0,0,1-7.33,4.8866,14.1155,14.1155,0,0,1-7.0246.6108c-4.8867-1.527-9.4679,0-14.0491,4.8867q-.9162.9162-1.8325,1.8325a13.284,13.284,0,0,1-2.1379,1.8324,19.4629,19.4629,0,0,1-10.69,4.5813l-7.33.9162-7.33-3.6649" style="fill:none;stroke:#89837c;stroke-linecap:round;stroke-linejoin:round"/><path d="M2249.8622,1248.8231a55.9792,55.9792,0,0,0,20.1574-11.6058,480.2584,480.2584,0,0,0,37.5661-37.2607c11.9112-13.4382,29.9307-18.9357,54.3639-16.7978-25.044-18.0195-51.31-17.7141-79.1025.9163l-18.3249,17.7141c-7.0246,8.2462-14.3545,14.3545-21.6845,18.3249" style="fill:none;stroke:#89837c;stroke-linecap:round;stroke-linejoin:round"/><path d="M2256.8868,1287.3054h-1.2217a47.0408,47.0408,0,0,1-26.8765-7.33" style="fill:none;stroke:#89837c;stroke-linecap:round;stroke-linejoin:round"/><path d="M2255.36,1316.32a54.58,54.58,0,0,0,21.99-2.7487,4.34,4.34,0,0,1,1.8325-.6109,478.2359,478.2359,0,0,0,47.0339-19.5466c16.187-7.9407,34.8173-6.1083,56.5018,5.1921q-24.28-38.94-73.3-29.32l-23.8224,9.4678c-9.7733,4.8867-19.2412,7.9408-28.0982,8.5517h-.6108" style="fill:none;stroke:#89837c;stroke-linecap:round;stroke-linejoin:round"/><path d="M2244.3648,1349.9155c1.527-2.7487,4.5812-5.192,8.857-7.33,7.0246-3.0542,13.1329-3.97,18.63-2.1379a3.3212,3.3212,0,0,0,1.5271.3054c4.8867,1.5271,9.7733,0,14.3545-3.97q8.2462-6.4137,15.5762-.9162c4.5812,3.6649,9.4679,3.36,14.0491-1.2217,3.97-4.5812,9.4679-4.5812,16.1871.3055,3.36,2.7487,7.0245,2.7487,10.6895,0,6.4137-4.2758,15.5762-2.4434,27.7928,5.192q-15.5762-18.783-24.7387-14.66c-6.7191,2.1379-12.522,1.2216-18.0194-3.0542a17.79,17.79,0,0,0-17.4087-1.8325c-6.1083,2.4433-11.3,2.4433-14.9653-.6108-4.2758-3.0542-9.1625-3.36-15.2708-.6108s-11.9112,3.6649-16.7978,2.1379l-7.0246-2.1379-2.4433-3.0542" style="fill:none;stroke:#89837c;stroke-linecap:round;stroke-linejoin:round"/><path d="M2249.8622,1248.8231c-7.9408,2.4433-16.7978,2.7487-26.5711,1.5271" style="fill:none;stroke:#89837c;stroke-linecap:round;stroke-linejoin:round"/><path d="M2255.36,1316.32c-8.857-.3055-18.0195-3.36-26.8766-8.5517" style="fill:none;stroke:#89837c;stroke-linecap:round;stroke-linejoin:round"/><path d="M2242.8377,1220.1141c-9.7733,4.8866-19.5466,6.7191-29.9307,4.8866" style="fill:none;stroke:#89837c;stroke-linecap:round;stroke-linejoin:round"/><path d="M1958.4961,1173.9963c-1.2217.3055-3.0542.6109-4.8867.9163q-11.453.9162-18.3249-4.5812a14.97,14.97,0,0,0-8.5516-2.7488,17.5122,17.5122,0,0,0-7.6354,1.8325q-10.0787,3.2069-14.66-4.5812c-3.36-4.8867-7.6354-5.8029-13.4383-2.7488-5.4975,3.0542-10.9949,1.5271-15.8816-5.4974-2.4433-3.665-5.8029-4.8867-10.0787-3.36-7.0245,1.5271-15.2708-3.0542-24.1278-14.66q8.7043,22.9061,18.3249,22.9061a15.0185,15.0185,0,0,1,9.7733,2.1379,15.73,15.73,0,0,1,6.1083,5.8029c3.97,5.4975,8.857,7.9408,15.5762,7.6354s11.6057,1.8325,14.3545,5.8029c2.7487,4.2758,7.33,5.8029,14.0491,5.192,6.7191-.9162,12.2166.3054,16.7978,3.665l5.8029,3.97,3.36,7.33" style="fill:none;stroke:#89837c;stroke-linecap:round;stroke-linejoin:round"/><path d="M1988.1214,1152.0065a80.1877,80.1877,0,0,0-10.0788-6.1083,433.0812,433.0812,0,0,0-48.8664-20.4629c-16.7978-6.1083-28.709-20.7682-36.039-43.98-7.0245,29.9307,3.0542,54.3639,30.847,72.9943l23.5169,10.0787a121.8081,121.8081,0,0,1,14.0491,5.8029c13.4383,7.0246,22.2953,17.1032,25.96,29.9307" style="fill:none;stroke:#89837c;stroke-linecap:round;stroke-linejoin:round"/><path d="M1924.595,1229.5819a14.1387,14.1387,0,0,1-4.5812,4.8867c-7.0246,3.36-13.1329,4.5812-18.63,2.7487-4.5812-1.2216-9.1624,0-13.1328,3.36a4.1053,4.1053,0,0,0-2.1379,1.8325c-5.1921,4.5812-10.3841,5.192-15.2708,1.8325-4.8866-3.665-9.1624-3.0542-13.1328,2.1378-4.2759,4.8867-9.7733,5.4975-17.1033.9163-3.665-2.4433-7.0245-2.1379-10.3841.9163-6.1083,4.2758-15.5762,3.0541-28.0982-3.97,10.9949,11.6057,19.5466,16.187,25.96,13.4382,6.1083-2.7487,11.9112-2.1379,17.7141,1.5271,5.4974,3.36,11.3,3.97,17.1032,1.2217q9.1624-4.5813,15.5762,0c3.97,2.4433,8.857,2.4433,14.66-.9163,6.1083-3.36,11.6058-4.2758,16.7979-3.0541l7.0245,1.2216,7.6354,8.5517" style="fill:none;stroke:#89837c;stroke-linecap:round;stroke-linejoin:round"/><path d="M1924.595,1266.2318a65.32,65.32,0,0,0-17.1033,3.36,514.7757,514.7757,0,0,0-48.8664,20.1574c-16.187,7.9408-34.8173,6.1083-56.5018-5.4975,16.187,26.2658,40.62,36.039,73.3,29.6253l23.8224-9.4679a120.1968,120.1968,0,0,1,16.7979-6.7191" style="fill:none;stroke:#89837c;stroke-linecap:round;stroke-linejoin:round"/><path d="M1945.0578,1203.0108a74.2133,74.2133,0,0,0-14.3545-2.4433c-3.97-.3054-7.9408-.3054-11.6058-.3054a371.3651,371.3651,0,0,0-41.231.3054c-18.02.9162-34.8174-7.9408-50.0882-26.5712,4.5813,30.2362,23.517,48.5611,56.5019,55.28l25.3494.3054a122.0812,122.0812,0,0,1,14.9654,0" style="fill:none;stroke:#89837c;stroke-linecap:round;stroke-linejoin:round"/><path d="M1945.0578,1203.0108a54.8765,54.8765,0,0,1,26.2657,19.5466" style="fill:none;stroke:#89837c;stroke-linecap:round;stroke-linejoin:round"/><path d="M1971.3235,1222.5574a112.5589,112.5589,0,0,0-11.3,24.7386" style="fill:none;stroke:#89837c;stroke-linecap:round;stroke-linejoin:round"/><path d="M1916.0434,1297.69a29.5522,29.5522,0,0,1-3.36,5.4975c-5.1921,5.8029-10.3841,8.857-16.187,9.7733-5.8029.6108-9.7733,4.2758-12.2166,10.6895-3.0542,6.1083-7.33,8.857-13.4383,7.6354-5.8029-1.5271-9.7733.6108-11.6058,6.7191-1.527,6.1083-6.7191,8.857-14.9653,7.6354-4.2758-.9163-7.33.6108-9.4679,4.5812-3.665,6.4138-12.8274,8.8571-27.182,7.33,14.66,6.4137,24.1279,7.33,28.7091,2.4433,4.8866-4.8867,10.3841-6.7191,17.4087-5.4975,6.4137,1.2217,11.6057-.6108,16.187-5.4975,4.2758-4.8866,8.857-7.0245,14.0491-6.1083,4.5812.9163,9.1624-1.2216,13.4382-6.4137s9.1625-8.2462,14.3545-8.857l7.0246-1.5271,6.7191,3.0542" style="fill:none;stroke:#89837c;stroke-linecap:round;stroke-linejoin:round"/><path d="M1954.22,1275.0888c-.3054,5.1921-.6109,10.3841-.6109,15.8816,0,3.665,0,7.6354.3055,11.3" style="fill:none;stroke:#89837c;stroke-linecap:round;stroke-linejoin:round"/><path d="M1953.9149,1302.2707a146.9732,146.9732,0,0,0,3.6649,23.2116" style="fill:none;stroke:#89837c;stroke-linecap:round;stroke-linejoin:round"/><path d="M1924.595,1266.2318a53.966,53.966,0,0,1,29.6253,8.857" style="fill:none;stroke:#89837c;stroke-linecap:round;stroke-linejoin:round"/><path d="M1916.0434,1297.69c14.0491-3.665,26.8765-2.1379,37.8715,4.5812" style="fill:none;stroke:#89837c;stroke-linecap:round;stroke-linejoin:round"/><path d="M2204.3554,1166.361c-1.5271-1.2217-2.4434-4.8867-3.0542-10.69-.3054-7.6353,1.2216-13.7437,5.1921-18.0195,3.6649-4.2758,4.8866-9.4678,2.7487-15.8816-1.8325-6.7191-.3055-11.6057,4.8866-14.66,5.4975-3.0541,7.0246-7.33,4.5813-13.4383-3.0542-5.4974-.6109-10.6895,6.4137-14.9653,3.97-2.1379,5.192-5.4975,3.97-9.7733-1.5271-7.6354,3.665-15.5762,15.5762-23.517-15.5762,4.5812-23.2116,10.0787-23.517,17.1033a17.6167,17.6167,0,0,1-9.1624,15.2707q-8.7044,5.4975-8.2462,15.5762c-.3055,6.4137-2.4434,10.9949-6.7191,13.7437q-6.4137,3.6649-6.4138,13.7437c.6108,6.7191-.9162,11.9112-4.2758,16.187l-4.5812,5.4975-7.0246,2.7487" style="fill:none;stroke:#89837c;stroke-linecap:round;stroke-linejoin:round"/><path d="M1960.0232,1247.296a160.01,160.01,0,0,0-5.8029,27.7928" style="fill:none;stroke:#89837c;stroke-linecap:round;stroke-linejoin:round"/><path d="M1953.9149,1387.787q10.5367-10.5367,26.5711-14.66" style="fill:none;stroke:#89837c;stroke-linecap:round;stroke-linejoin:round"/><path d="M1966.4369,1350.2209a148.7684,148.7684,0,0,0,14.0491,22.9062" style="fill:none;stroke:#89837c;stroke-linecap:round;stroke-linejoin:round"/><path d="M1932.23,1359.6888a23.6107,23.6107,0,0,1-.9163,8.857c-2.4433,7.33-6.1083,12.2167-11.3,15.2708-4.5813,2.7487-7.0246,7.33-7.0246,14.3545-.3054,6.7191-3.36,10.995-9.4679,12.2166-5.8029.6108-8.5516,4.2758-7.9408,10.69.9163,6.4137-2.7487,10.69-10.9949,12.522-4.2758.9163-6.7191,3.665-6.7191,7.9408q-1.8326,11.4531-22.9062,17.4087c16.187.3054,25.35-2.4434,27.7928-8.5517,2.4433-6.4137,7.0246-10.3841,13.7437-11.6057,6.4137-1.5271,10.3841-5.1921,12.8274-11.3,2.1379-6.4137,5.8029-10.0787,10.69-10.995,4.8866-1.2216,8.2462-4.8866,10.0787-11.3,2.1379-6.4138,5.192-11.3,9.7733-14.0491l5.8029-3.9705,8.2462.6109" style="fill:none;stroke:#89837c;stroke-linecap:round;stroke-linejoin:round"/><path d="M1932.23,1359.6888c10.9949-7.9408,22.2953-10.9949,34.2065-9.4679" style="fill:none;stroke:#89837c;stroke-linecap:round;stroke-linejoin:round"/><path d="M1925.5112,1329.1473a47.9541,47.9541,0,0,0-13.7437,8.857c-2.1379,1.8325-4.2758,3.97-6.7191,6.1083a426.8759,426.8759,0,0,0-30.5415,31.4578c-11.9112,13.1329-29.9307,18.63-54.3639,16.4924,24.7386,17.7141,51.31,17.7141,79.1025-.9162l18.3249-17.4087a78.4761,78.4761,0,0,1,14.66-14.0491" style="fill:none;stroke:#89837c;stroke-linecap:round;stroke-linejoin:round"/><path d="M1953.9149,1387.787c-4.2759,4.5812-8.2462,9.4679-10.995,15.5762-1.2217,2.1379-2.1379,3.97-3.0541,5.8029-6.4138,14.0491-12.2167,28.4036-17.7141,43.0636-6.1083,16.7978-20.4629,29.0144-43.6744,36.039,29.6253,7.33,54.0585-3.0542,72.9942-30.847l10.0787-23.517a76.9168,76.9168,0,0,1,9.7733-20.7682" style="fill:none;stroke:#89837c;stroke-linecap:round;stroke-linejoin:round"/><path d="M1971.3235,1413.1365c.9163,1.5271,1.8325,4.5812,2.4433,9.1624.6109,7.33-.6108,13.4383-4.2758,18.325-3.6649,4.2758-3.97,9.7732-1.5271,16.187s1.2217,11.3-3.97,14.66c-5.192,3.0542-6.1083,7.33-3.0541,12.8275,3.0541,5.8028,1.2217,11.3-5.4975,16.187-3.665,2.4433-4.8866,5.8028-3.36,9.7732,1.8325,7.33-2.7487,15.5762-14.3545,24.4333,15.2708-5.4975,22.6008-11.9112,22.2954-18.63a18.5207,18.5207,0,0,1,8.2462-15.8816c5.4974-3.6649,7.9408-8.857,7.6353-15.5762-.3054-6.4137,1.5271-10.9949,5.8029-13.7436,3.97-2.7488,5.8029-7.6354,4.8867-14.0492-.6108-7.0245.6108-12.522,3.6649-17.1032l3.9705-5.8029,8.2462-3.0542" style="fill:none;stroke:#89837c;stroke-linecap:round;stroke-linejoin:round"/><path d="M2211.0745,1403.6686a29.0134,29.0134,0,0,1,8.857-1.2216c7.6354-.3055,13.7437,1.527,18.3249,5.192a4.7492,4.7492,0,0,0,2.4433,1.8325c3.665,2.1379,7.9409,2.7487,13.1329.9163,7.0246-2.1379,11.9112-.3055,14.9653,4.8866,2.7488,5.4975,7.33,7.0246,13.1329,4.5813,5.8029-3.0542,10.6895-.9163,14.9653,6.1083q3.2069,5.9556,10.0787,4.5812c7.33-1.5271,15.2708,3.36,23.517,15.2708-4.5812-15.5762-10.3841-23.2116-17.1033-23.2116-7.0245-.6108-11.9111-3.97-15.5762-9.7733s-8.857-8.2462-15.5762-8.2462c-6.4137,0-10.9949-2.4433-13.4382-6.4137-2.4433-4.2758-7.0246-6.4138-13.7437-6.1083h-2.4433c-5.8029-.3055-10.3841-1.8326-14.0491-4.8867l-5.4975-4.5812-2.1379-7.0246" style="fill:none;stroke:#89837c;stroke-linecap:round;stroke-linejoin:round"/><path d="M2230.9265,1375.57a61.0769,61.0769,0,0,0,24.4332,7.0246,507.306,507.306,0,0,0,52.8368.6108c18.0195-1.2217,34.8174,7.6354,50.3936,26.2657-4.8867-30.2361-23.517-48.561-56.5019-55.28l-25.3494-.3054c-12.5221.9163-23.517-.3054-32.3741-3.97" style="fill:none;stroke:#89837c;stroke-linecap:round;stroke-linejoin:round"/><path d="M2188.7792,1422.6044a60.8377,60.8377,0,0,0,19.8519,15.8816,489.42,489.42,0,0,0,48.5611,19.852c16.7978,6.1083,29.0144,20.7682,36.3443,43.98,7.0246-29.6252-3.36-54.0585-30.8469-72.6888l-23.517-10.3841c-11.6058-3.665-20.7682-8.857-28.0982-15.5762" style="fill:none;stroke:#89837c;stroke-linecap:round;stroke-linejoin:round"/><path d="M2160.681,1443.0672a15.0408,15.0408,0,0,1,5.4974,1.5271c7.33,2.7487,12.2167,6.4137,14.66,11.6058a11.54,11.54,0,0,0,2.7487,3.6649c2.4433,3.0542,6.1083,4.5813,10.995,5.1921q10.5367.9162,11.9112,10.0787c.6108,5.8029,4.2757,8.857,10.6895,8.857,6.4137-.3054,10.0787,3.36,11.3,11.9112.6109,4.2758,3.0542,7.0246,7.6354,7.6354q10.995,1.8324,15.5762,22.9061c1.5271-15.8816-.6108-25.044-6.7191-27.7928-6.4137-2.7487-9.7733-7.6354-10.69-14.66a18.0567,18.0567,0,0,0-10.995-13.7437c-6.1083-2.4433-9.4679-6.1083-10.3841-10.995-.6108-5.192-3.97-8.857-10.0787-11.3a13.23,13.23,0,0,0-1.5271-.3055c-5.4975-2.1379-9.7733-5.4975-12.2166-10.0787l-3.0542-6.4137,2.7488-8.5517" style="fill:none;stroke:#89837c;stroke-linecap:round;stroke-linejoin:round"/><path d="M2196.72,1379.8462a162.2351,162.2351,0,0,0,15.2707-21.379" style="fill:none;stroke:#89837c;stroke-linecap:round;stroke-linejoin:round"/><path d="M2177.4788,1398.782a116.4077,116.4077,0,0,0,11.3-10.3841c3.0541-3.0542,5.4974-5.8029,7.9408-8.5517" style="fill:none;stroke:#89837c;stroke-linecap:round;stroke-linejoin:round"/><path d="M2230.9265,1375.57a66.534,66.534,0,0,1-18.9358-17.1033" style="fill:none;stroke:#89837c;stroke-linecap:round;stroke-linejoin:round"/><path d="M2211.9907,1358.4672a130,130,0,0,0,10.995-25.0441" style="fill:none;stroke:#89837c;stroke-linecap:round;stroke-linejoin:round"/><path d="M2120.977,1363.6592c-3.0542-.3054-5.4975-.6108-7.33-1.527" style="fill:none;stroke:#89837c;stroke-linecap:round;stroke-linejoin:round"/><path d="M2091.6571,1459.2542a12.99,12.99,0,0,1,3.36.6108,15.2432,15.2432,0,0,1,5.192,3.36c5.8029,5.1921,9.1625,10.69,9.4679,16.4924s3.0542,10.0787,8.8571,13.4383c6.4137,3.36,8.857,7.9408,7.33,14.0491-1.5271,5.4975.3054,9.7733,6.4137,11.9112,4.5813,1.8325,6.7192,5.192,6.7192,10.6895-.3055,1.5271-.6109,3.0542-.9163,4.8867a10.0639,10.0639,0,0,0,0,4.2758,7.0816,7.0816,0,0,0,4.2758,5.4974c6.4137,4.2758,8.2462,13.1329,5.8029,27.4874,7.6354-14.0491,8.857-23.5169,4.2758-28.0982a24.3583,24.3583,0,0,1-4.8867-9.1624v-4.2758a11.8723,11.8723,0,0,1,.6108-4.5813,16.5125,16.5125,0,0,0-4.5812-16.4924q-7.33-7.33-5.4975-14.66c1.5271-4.8867-.3054-9.4679-4.8866-14.3545-5.4975-4.5812-8.2462-9.4679-8.8571-14.66l-.6108-7.33,9.1625-7.6354" style="fill:none;stroke:#89837c;stroke-linecap:round;stroke-linejoin:round"/><path d="M2132.8882,1450.7026l-.6108-.9163a68.51,68.51,0,0,1-1.8325-26.5711" style="fill:none;stroke:#89837c;stroke-linecap:round;stroke-linejoin:round"/><path d="M2132.8882,1450.7026a47.4922,47.4922,0,0,0,11.3,21.0736,484.3355,484.3355,0,0,0,37.566,37.5661q19.6993,17.8668,16.4924,54.0585c18.02-24.7387,17.7141-51.0044-.6108-79.1025l-17.7141-18.325a76.9144,76.9144,0,0,1-19.2411-22.9061" style="fill:none;stroke:#89837c;stroke-linecap:round;stroke-linejoin:round"/><path d="M2130.4449,1423.2152a128.9869,128.9869,0,0,0,25.3494-10.0787" style="fill:none;stroke:#89837c;stroke-linecap:round;stroke-linejoin:round"/><path d="M2160.681,1443.0672a50.796,50.796,0,0,1-4.8867-29.9307" style="fill:none;stroke:#89837c;stroke-linecap:round;stroke-linejoin:round"/><path d="M2188.7792,1422.6044c-4.2758-5.8029-8.2462-14.0491-11.3-23.8224" style="fill:none;stroke:#89837c;stroke-linecap:round;stroke-linejoin:round"/><path d="M2155.7943,1413.1365a133.1174,133.1174,0,0,0,21.6845-14.3545" style="fill:none;stroke:#89837c;stroke-linecap:round;stroke-linejoin:round"/><path d="M2211.0745,1403.6686a47.9091,47.9091,0,0,1-14.3545-23.8224" style="fill:none;stroke:#89837c;stroke-linecap:round;stroke-linejoin:round"/><path d="M2096.5438,1329.1473l-.6109.3054" style="fill:none;stroke:#89837c;stroke-linecap:round;stroke-linejoin:round"/><path d="M2091.3517,1333.4231h.6108c.3054-.3054.6109-.3054,1.2217-.6108" style="fill:none;stroke:#89837c;stroke-linecap:round;stroke-linejoin:round"/><path d="M2091.3517,1332.5069v.9162" style="fill:none;stroke:#89837c;stroke-linecap:round;stroke-linejoin:round"/><path d="M2091.3517,1332.5069a3.8739,3.8739,0,0,0,1.8325.3054" style="fill:none;stroke:#89837c;stroke-linecap:round;stroke-linejoin:round"/><path d="M2080.3568,1332.8123c.3054.3054.6108.3054.9162.6108h.6108" style="fill:none;stroke:#89837c;stroke-linecap:round;stroke-linejoin:round"/><path d="M2081.8838,1333.4231v-.9163" style="fill:none;stroke:#89837c;stroke-linecap:round;stroke-linejoin:round"/><path d="M2086.7705,1333.7285a22.8809,22.8809,0,0,1-4.8867-1.2216" style="fill:none;stroke:#89837c;stroke-linecap:round;stroke-linejoin:round"/><path d="M2086.7705,1333.7285c-1.5271,0-3.0542-.3054-4.8867-.3054" style="fill:none;stroke:#89837c;stroke-linecap:round;stroke-linejoin:round"/><path d="M2081.8838,1332.5069a3.3206,3.3206,0,0,1-1.527.3054" style="fill:none;stroke:#89837c;stroke-linecap:round;stroke-linejoin:round"/><path d="M2091.3517,1332.5069a25.4445,25.4445,0,0,1-4.5812,1.2216" style="fill:none;stroke:#89837c;stroke-linecap:round;stroke-linejoin:round"/><path d="M2091.3517,1333.4231c-1.5271,0-3.36.3054-4.5812.3054" style="fill:none;stroke:#89837c;stroke-linecap:round;stroke-linejoin:round"/><path d="M2089.2138,1352.0534v-.3054c1.5271-3.0541,2.4433-9.1624,2.1379-18.3249" style="fill:none;stroke:#89837c;stroke-linecap:round;stroke-linejoin:round"/><path d="M2084.0217,1352.0534a9.5093,9.5093,0,0,0,2.7488,2.1379,8.2319,8.2319,0,0,0,2.4433-2.1379" style="fill:none;stroke:#89837c;stroke-linecap:round;stroke-linejoin:round"/><path d="M2085.8542,1363.6592h2.7488c4.8866,0,9.4678,0,13.4382-.9162a43.2274,43.2274,0,0,1,11.6058-.6108" style="fill:none;stroke:#89837c;stroke-linecap:round;stroke-linejoin:round"/><path d="M2071.1943,1362.743c4.2758.9162,8.5516.9162,13.7437.9162a.5727.5727,0,0,1,.9163,0" style="fill:none;stroke:#89837c;stroke-linecap:round;stroke-linejoin:round"/><path d="M2081.8838,1333.4231c0,9.1625.6109,15.2708,2.1379,18.3249v.3054" style="fill:none;stroke:#89837c;stroke-linecap:round;stroke-linejoin:round"/><path d="M2095.9329,1329.4527a12.0808,12.0808,0,0,1-4.5812,3.0542" style="fill:none;stroke:#89837c;stroke-linecap:round;stroke-linejoin:round"/><path d="M2093.1842,1332.8123c1.5271-.3055,2.4433-1.5271,2.7487-3.36" style="fill:none;stroke:#89837c;stroke-linecap:round;stroke-linejoin:round"/><path d="M2059.5885,1362.1322c-1.8325.9162-4.2758,1.2216-7.0245,1.527" style="fill:none;stroke:#89837c;stroke-linecap:round;stroke-linejoin:round"/><path d="M2059.5885,1362.1322c3.97,0,7.9408.3054,11.6058.6108" style="fill:none;stroke:#89837c;stroke-linecap:round;stroke-linejoin:round"/><path d="M2084.0217,1352.0534a79.4682,79.4682,0,0,0-20.7682,7.9409,22.7735,22.7735,0,0,0-3.665,2.1379" style="fill:none;stroke:#89837c;stroke-linecap:round;stroke-linejoin:round"/><path d="M2077.608,1329.7581l-.3054-.3054" style="fill:none;stroke:#89837c;stroke-linecap:round;stroke-linejoin:round"/><path d="M2077.3026,1329.7581v-.3054" style="fill:none;stroke:#89837c;stroke-linecap:round;stroke-linejoin:round"/><path d="M2077.608,1329.7581h-.3054" style="fill:none;stroke:#89837c;stroke-linecap:round;stroke-linejoin:round"/><path d="M2113.647,1362.1322c-1.2216,6.1083-4.5812,10.0787-10.0787,12.2166a47.4525,47.4525,0,0,1-7.0245,1.527c-3.36,0-6.7192,0-9.7733.3055-3.36-.3055-6.7191-.3055-9.7733-.3055a44.0746,44.0746,0,0,1-7.33-1.527c-5.192-2.1379-8.5516-6.1083-10.0787-12.2166" style="fill:none;stroke:#89837c;stroke-linecap:round;stroke-linejoin:round"/><path d="M2072.416,1394.5061c1.8325-3.36,4.5812-5.192,8.5516-6.4137a27.55,27.55,0,0,1,5.8029-1.2216,39.2772,39.2772,0,0,1,5.8029,1.2216,14.9934,14.9934,0,0,1,8.5516,6.4137" style="fill:none;stroke:#89837c;stroke-linecap:round;stroke-linejoin:round"/><path d="M2085.8542,1363.6592c-4.8866-.6108-9.7732-.6108-14.66-.9162" style="fill:none;stroke:#89837c;stroke-linecap:round;stroke-linejoin:round"/><path d="M2080.3568,1332.8123a3.56,3.56,0,0,1-3.0542-3.0542" style="fill:none;stroke:#89837c;stroke-linecap:round;stroke-linejoin:round"/><path d="M2081.8838,1332.5069a12.8122,12.8122,0,0,1-4.2758-2.7487" style="fill:none;stroke:#89837c;stroke-linecap:round;stroke-linejoin:round"/><path d="M1980.486,1373.1271a136.4708,136.4708,0,0,0,10.3841,12.2166l1.5271,1.5271,1.527,1.527c1.8325,1.8325,3.665,3.36,5.4975,4.8867" style="fill:none;stroke:#89837c;stroke-linecap:round;stroke-linejoin:round"/><path d="M2020.4954,1409.4715a128.052,128.052,0,0,0,25.35,11.9112" style="fill:none;stroke:#89837c;stroke-linecap:round;stroke-linejoin:round"/><path d="M2002.4759,1430.8506a55.5692,55.5692,0,0,0-5.8029,21.3791,23.1173,23.1173,0,0,1-.3054,4.5812c-.6108,15.8816-.6108,32.0686.3054,48.561,1.2217,17.7141-7.6354,34.5119-26.5711,49.7827,30.2361-4.5812,48.8664-23.517,55.28-56.5018l.6108-25.35q-1.3743-14.66,1.8325-25.6549" style="fill:none;stroke:#89837c;stroke-linecap:round;stroke-linejoin:round"/><path d="M2027.8253,1447.6484c1.5271,1.2217,3.36,3.36,5.4975,7.33,3.665,6.7191,4.5812,12.8274,3.0542,18.63-1.5271,5.4975.3054,10.69,4.8866,15.5762,4.8866,4.8867,5.4975,10.0787,1.8325,14.9653-3.36,4.8867-2.7487,9.1625,2.1379,13.4383,5.192,3.97,5.4975,9.4679,1.2217,16.7978-2.7488,3.665-2.4434,7.0246.6108,10.3841,4.5812,6.1083,3.0541,15.5762-3.97,28.0982,11.9112-10.9949,16.4924-19.5465,13.7437-25.96-2.7488-6.1083-2.4434-11.9111,1.527-17.4086,3.36-5.8029,3.97-11.6058.9163-17.4087q-4.1232-9.1624,0-15.5762c2.7487-3.97,2.4433-8.857-.6108-14.66a6.6788,6.6788,0,0,1-.9163-1.5271,23.4867,23.4867,0,0,1-2.4433-15.2708l1.5271-7.0245,5.4974-4.8867" style="fill:none;stroke:#89837c;stroke-linecap:round;stroke-linejoin:round"/><path d="M2002.4759,1430.8506a59.3136,59.3136,0,0,1,18.02-21.3791" style="fill:none;stroke:#89837c;stroke-linecap:round;stroke-linejoin:round"/><path d="M2027.8253,1447.6484a44.3937,44.3937,0,0,1,18.02-26.2657" style="fill:none;stroke:#89837c;stroke-linecap:round;stroke-linejoin:round"/><path d="M2070.8889,1427.491c6.7191.6108,13.4383,1.2216,20.4628,1.2216h7.33" style="fill:none;stroke:#89837c;stroke-linecap:round;stroke-linejoin:round"/><path d="M2062.3373,1453.1459a53.323,53.323,0,0,0,2.7487,23.8224,4.4141,4.4141,0,0,1,.6108,2.1379,506.1352,506.1352,0,0,0,19.5466,46.7285c7.9408,15.8816,6.1083,34.8174-5.4975,56.5019,26.2658-16.1871,35.7336-40.62,29.6253-73.6051l-9.4679-23.517a81.5878,81.5878,0,0,1-7.33-20.1574,45.2443,45.2443,0,0,1-.9162-5.8029" style="fill:none;stroke:#89837c;stroke-linecap:round;stroke-linejoin:round"/><path d="M2062.3373,1453.1459c.6108-8.857,3.6649-17.4087,8.5516-25.6549" style="fill:none;stroke:#89837c;stroke-linecap:round;stroke-linejoin:round"/><path d="M2091.6571,1459.2542c-1.2216-11.3.9163-21.0736,7.0246-30.5415" style="fill:none;stroke:#89837c;stroke-linecap:round;stroke-linejoin:round"/><path d="M2045.8448,1421.3827a157.9934,157.9934,0,0,0,25.0441,6.1083" style="fill:none;stroke:#89837c;stroke-linecap:round;stroke-linejoin:round"/><path d="M1999.4217,1393.2845a129.2492,129.2492,0,0,0,21.0737,16.187" style="fill:none;stroke:#89837c;stroke-linecap:round;stroke-linejoin:round"/><path d="M2113.647,1362.1322a86.3879,86.3879,0,0,0-24.4332-10.0788" style="fill:none;stroke:#89837c;stroke-linecap:round;stroke-linejoin:round"/><path d="M2098.6817,1428.7127a138.368,138.368,0,0,0,31.7631-5.4975" style="fill:none;stroke:#89837c;stroke-linecap:round;stroke-linejoin:round"/><path d="M2244.3648,1349.9155a45.712,45.712,0,0,1-21.3791-16.4924" style="fill:none;stroke:#89837c;stroke-linecap:round;stroke-linejoin:round"/><path d="M1925.5112,1329.1473c9.7733-4.5812,20.1574-5.8029,32.0686-3.665" style="fill:none;stroke:#89837c;stroke-linecap:round;stroke-linejoin:round"/><path d="M1999.4217,1393.2845c-11.6058,2.7487-21.0736,9.4679-28.0982,19.852" style="fill:none;stroke:#89837c;stroke-linecap:round;stroke-linejoin:round"/><path d="M1957.58,1325.4823a140.3318,140.3318,0,0,0,8.8571,24.7387" style="fill:none;stroke:#89837c;stroke-linecap:round;stroke-linejoin:round"/><path d="M1987.5105,1200.2621a111.9526,111.9526,0,0,0-16.187,22.2953" style="fill:none;stroke:#89837c;stroke-linecap:round;stroke-linejoin:round"/><path d="M2222.9857,1333.4231a173.7423,173.7423,0,0,0,5.4975-25.6549" style="fill:none;stroke:#89837c;stroke-linecap:round;stroke-linejoin:round"/><polygon points="377.927 243.409 452.664 142.727 328.446 157.071 279.721 44.545 230.997 157.071 106.779 142.727 181.516 243.409 106.779 344.091 230.997 329.747 279.721 442.273 328.446 329.747 452.664 344.091 377.927 243.409" style="fill:#ffd504"/><path d="M2063.407,35.11a272.0153,272.0153,0,0,0-100.0554,18.9391c131.35,10.0815,234.7922,119.8538,234.7922,253.7882S2094.7019,551.5435,1963.3516,561.625a272.0153,272.0153,0,0,0,100.0554,18.9391c150.623,0,272.7273-122.1042,272.7273-272.7273S2214.03,35.11,2063.407,35.11Z" style="fill:#ffd504"/><path d="M336.593,1564.8905a272.0153,272.0153,0,0,0,100.0554-18.9391c-131.35-10.0815-234.7922-119.8538-234.7922-253.7882s103.4419-243.7067,234.7922-253.7882a272.0153,272.0153,0,0,0-100.0554-18.9391c-150.623,0-272.7273,122.1042-272.7273,272.7273S185.97,1564.8905,336.593,1564.8905Z" style="fill:#ffd504"/><polygon points="1284.3 799.998 1368.6 149.787 1200 149.788 1200 149.787 1200 149.788 1031.4 149.789 1115.7 800.002 1031.4 1450.213 1199.999 1450.212 1200 1450.213 1200 1450.212 1368.6 1450.211 1284.3 799.998" style="fill:#fff"/><polygon points="1199.998 715.7 549.787 631.4 549.788 800 549.787 800 549.788 800 549.789 968.6 1200.002 884.3 1850.213 968.6 1850.212 800.001 1850.213 800 1850.212 800 1850.211 631.4 1199.998 715.7" style="fill:#fff"/></svg>