<?xml version="1.0" encoding="UTF-8" standalone="no"?>
<svg
   xmlns:dc="http://purl.org/dc/elements/1.1/"
   xmlns:cc="http://creativecommons.org/ns#"
   xmlns:rdf="http://www.w3.org/1999/02/22-rdf-syntax-ns#"
   xmlns:svg="http://www.w3.org/2000/svg"
   xmlns="http://www.w3.org/2000/svg"
   style="overflow:visible"
   xml:space="preserve"
   enable-background="new 15.513 249.022 562.301 374.867"
   overflow="visible"
   viewBox="15.513 249.022 561.99997 375"
   height="375"
   width="562"
   id="Flag_of_Ukraine"
   version="1.1"><metadata
   id="metadata6518"><rdf:RDF><cc:Work
       rdf:about=""><dc:format>image/svg+xml</dc:format><dc:type
         rdf:resource="http://purl.org/dc/dcmitype/StillImage" /><dc:title></dc:title></cc:Work></rdf:RDF></metadata><defs
   id="defs6516" />
<rect
   style="fill:#3a75c4;stroke-width:0.99990964"
   id="rect6469"
   height="375"
   width="562"
   y="249.022"
   x="15.513" /><path
   id="path6473-7"
   d="m 118.22003,291.00266 c -0.15045,0.13846 -0.32954,0.22263 -0.48437,0.35351 v 0.30078 c -6.78125,6.23881 -18.188457,4.65585 -18.189457,6.09571 0,8.278 12.615237,13.58859 12.615237,29.68359 0,25.197 -14.548831,41.96289 -14.548831,41.96289 0,0 -0.247703,0.41016 -3.220703,0.41016 -2.972,0 -9.412109,-2.00497 -9.412109,-7.91797 0.242,-4.93621 7.064212,-6.63162 9.351562,-7.5586 -0.11211,-4.29247 -0.02089,-5.83425 -2.601562,-15.23242 C 85.228797,313.02931 61.638,303.92453 61.638,303.92453 v 93.03711 h 31.455078 c 0,0 2.29036,15.89149 19.068362,26.02148 0,1e-5 5.32522,3.80507 5.57422,5.03907 0.0309,-0.15396 0.31774,-0.43084 0.48632,-0.65235 0.249,-1.234 5.57422,-5.03906 5.57422,-5.03906 16.778,-10.13 19.06836,-26.02148 19.06836,-26.02148 h 31.45508 v -93.03711 c 0,0 -23.5908,9.10478 -30.0918,35.17578 -2.58067,9.39817 -2.48945,10.93995 -2.60156,15.23242 2.28735,0.92698 9.10956,2.62238 9.35156,7.55859 0,5.913 -6.44011,7.91797 -9.41211,7.91797 -2.973,0 -3.2207,-0.41015 -3.2207,-0.41015 0,0 -14.54883,-16.76589 -14.54883,-41.96289 0,-16.095 12.61524,-21.4056 12.61524,-29.6836 -0.001,-1.44 -11.41041,0.14335 -18.19141,-6.09765 z"
   style="fill:#f9dd16" />
<rect
   style="fill:#f9dd16;stroke-width:0.99990833"
   id="rect6471"
   height="187.5"
   width="562"
   y="436.522"
   x="15.513" />

<path
   style="fill:#ffffff"
   id="path6475"
   d="m 164.184,319.884 c 0,0 -8.543,8.843 -11.021,19.231 -1.361,9.564 -4.086,8.444 -4.086,8.444 0,0 8.173,2.88 10.03,9.976 1.61,0 5.078,0 5.078,0 v -37.651 z" />
<path
   style="fill:#ffffff"
   id="path6477"
   d="m 141.399,377.077 c 1.981,0 15.045,-1.593 17.706,-11.724 h 5.078 v 23.346 H 143.38 c 0,0 0,-6.377 -1.981,-11.622 z" />
<path
   style="fill:#ffffff"
   id="path6479"
   d="m 133.658,388.596 h -11.33 c 0,0 0.367,-8.32 9.845,-9.565 0.805,2.159 1.485,4.782 1.485,9.565 z" />
<path
   style="fill:#ffffff"
   id="path6481"
   d="m 122.453,396.309 h 9.659 c 0,0 -1.053,9.308 -9.659,15.941 0,-4.216 0,-15.941 0,-15.941 z" />
<path
   style="fill:#ffffff"
   id="path6483"
   d="m 71.063,319.884 c 0,0 8.543,8.843 11.021,19.231 1.361,9.564 4.086,8.444 4.086,8.444 0,0 -8.173,2.88 -10.031,9.976 -1.609,0 -5.076,0 -5.076,0 z" />
<path
   style="fill:#ffffff"
   id="path6485"
   d="m 93.847,377.077 c -1.981,0 -15.045,-1.593 -17.707,-11.724 h -5.076 v 23.346 h 20.803 c -0.001,0 -0.001,-6.377 1.98,-11.622 z" />
<path
   style="fill:#ffffff"
   id="path6487"
   d="m 101.587,388.596 h 11.332 c 0,0 -0.367,-8.321 -9.846,-9.565 -0.804,2.159 -1.486,4.782 -1.486,9.565 z" />
<path
   style="fill:#ffffff"
   id="path6489"
   d="m 112.793,396.309 h -9.659 c 0,0 1.052,9.308 9.659,15.941 0,-4.216 0,-15.941 0,-15.941 z" />
<path
   style="fill:#ffffff"
   id="path6491"
   d="m 117.622,350.337 c 0,0 -4.148,12.752 -10.773,21.084 2.475,1.336 10.773,6.017 10.773,6.017 0,0 8.298,-4.681 10.774,-6.017 -6.625,-8.332 -10.774,-21.084 -10.774,-21.084 z" />
<path
   style="fill:#ffffff"
   id="path6493"
   d="m 117.44,316.523 c 0,0 -3.765,-10.69 -10.092,-15.394 2.518,-0.595 10.387,-3.379 10.387,-3.379 0,0 8.506,2.985 10.932,3.804 -6.903,4.106 -11.227,14.969 -11.227,14.969 z" />
<g
   transform="translate(0,0.13299561)"
   id="g6511">
	<g
   id="g6505">
		<g
   id="g6499">
			<path
   style="fill:#f9dd16"
   id="path6495"
   d="m 118.696,279.962 c -11.414,0 -15.18,-6.171 -21.05,-6.171 -1.021,0 0.101,5.582 -4.325,8.899 v 0 c 4.426,3.316 3.305,8.896 4.326,8.896 5.871,0 9.636,-6.171 21.051,-6.171" />
			<path
   style="fill:#f9dd16"
   id="path6497"
   d="m 117.749,285.304 c 11.415,0 15.18,6.171 21.051,6.171 1.021,0 -0.101,-5.582 4.325,-8.899 v 0 c -4.425,-3.316 -3.304,-8.896 -4.326,-8.896 -5.871,0 -9.635,6.17 -21.05,6.17" />
		</g>
		<g
   id="g6503">
			<path
   style="fill:#f9dd16"
   id="path6501"
   d="m 121.506,281.464 c 0,-9.479 7.43,-12.606 7.43,-17.483 0,-0.848 -6.72,0.083 -10.714,-3.591 v 0 c -3.993,3.675 -10.712,2.744 -10.712,3.592 0,4.876 7.43,8.003 7.43,17.483" />
		</g>
	</g>
	<g
   id="g6509">
		<path
   style="fill:#f9dd16"
   id="path6507"
   d="m 114.94,281.473 c 0,9.479 -0.766,12.607 -0.766,17.482 10e-4,0.849 0.057,-0.083 4.05,3.593 v 0 c 3.992,-3.676 4.048,-2.745 4.047,-3.593 0,-4.876 -0.765,-8.003 -0.765,-17.483" />
	</g>
</g>
</svg>