<?xml version="1.0" encoding="utf-8"?>
<!-- Generator: Adobe Illustrator 12.0.0, SVG Export Plug-In . SVG Version: 6.00 Build 51448)  -->
<!DOCTYPE svg PUBLIC "-//W3C//DTD SVG 1.0//EN" "http://www.w3.org/TR/2001/REC-SVG-20010904/DTD/svg10.dtd" [
	<!ENTITY ns_svg "http://www.w3.org/2000/svg">
	<!ENTITY ns_xlink "http://www.w3.org/1999/xlink">
]>
<svg  version="1.0" id="Layer_1" xmlns="&ns_svg;" xmlns:xlink="&ns_xlink;" width="566" height="370.667"
	 viewBox="0 0 566 370.667" overflow="visible" enable-background="new 0 0 566 370.667" xml:space="preserve">
<rect x="70.25" y="15.792" fill="#BCBEC0" stroke="#808284" stroke-width="2" width="425.197" height="283.465"/>
<rect x="70.25" y="157.524" fill="#E7E7E8" stroke="#808284" stroke-width="1.4142" width="425.197" height="141.732"/>
<line fill="none" stroke="#000000" x1="70.25" y1="336.663" x2="70.25" y2="322.288"/>
<line fill="none" stroke="#000000" x1="495.25" y1="336.663" x2="495.25" y2="322.288"/>
<line fill="none" stroke="#000000" x1="70.875" y1="329.788" x2="495.25" y2="329.788"/>
<line fill="none" stroke="#000000" x1="40.562" y1="15.725" x2="54.938" y2="15.725"/>
<line fill="none" stroke="#000000" x1="40.562" y1="298.917" x2="54.938" y2="298.917"/>
<line fill="none" stroke="#000000" x1="47.438" y1="16.35" x2="47.438" y2="298.917"/>
<line fill="none" stroke="#000000" x1="513.688" y1="15.725" x2="528.062" y2="15.725"/>
<line fill="none" stroke="#000000" x1="513.688" y1="298.917" x2="528.062" y2="298.917"/>
<line fill="none" stroke="#000000" x1="513.688" y1="157.524" x2="528.062" y2="157.524"/>
<line fill="none" stroke="#000000" x1="520.562" y1="16.35" x2="520.562" y2="298.917"/>
<g>
	<path d="M541.954,82.442h-0.036l-2.034,1.098l-0.306-1.206l2.556-1.368h1.351v11.7h-1.53V82.442z"/>
</g>
<g>
	<path d="M541.954,222.442h-0.036l-2.034,1.099l-0.306-1.206l2.556-1.368h1.351v11.7h-1.53V222.442z"/>
</g>
<g>
	<path d="M277.063,358.367c0.449,0.271,1.476,0.72,2.592,0.72c2.016,0,2.664-1.277,2.646-2.268c-0.018-1.639-1.494-2.34-3.023-2.34
		h-0.883v-1.188h0.883c1.151,0,2.609-0.595,2.609-1.979c0-0.937-0.594-1.765-2.052-1.765c-0.936,0-1.836,0.414-2.34,0.774
		l-0.432-1.152c0.63-0.45,1.817-0.9,3.077-0.9c2.305,0,3.349,1.368,3.349,2.791c0,1.223-0.738,2.25-2.16,2.771v0.036
		c1.44,0.27,2.61,1.35,2.61,2.987c0,1.873-1.477,3.511-4.267,3.511c-1.313,0-2.466-0.414-3.042-0.792L277.063,358.367z"/>
</g>
<g>
	<path d="M26.06,160.167v-0.972l1.242-1.206c2.988-2.844,4.356-4.356,4.356-6.12c0-1.188-0.559-2.286-2.304-2.286
		c-1.062,0-1.944,0.54-2.484,0.99l-0.504-1.116c0.792-0.666,1.962-1.188,3.312-1.188c2.502,0,3.564,1.728,3.564,3.402
		c0,2.16-1.566,3.906-4.032,6.282l-0.918,0.864v0.036h5.238v1.314H26.06z"/>
</g>
</svg>
