<?xml version="1.0" encoding="UTF-8"?>
<!DOCTYPE svg PUBLIC "-//W3C//DTD SVG 1.1//EN" "http://www.w3.org/Graphics/SVG/1.1/DTD/svg11.dtd">
<!-- Creator: CorelDRAW -->
<svg xmlns="http://www.w3.org/2000/svg" xml:space="preserve" width="161.39mm" height="107.324mm" style="shape-rendering:geometricPrecision; text-rendering:geometricPrecision; image-rendering:optimizeQuality; fill-rule:evenodd; clip-rule:evenodd"
viewBox="0 0 183.984 122.35"
 xmlns:xlink="http://www.w3.org/1999/xlink">
 <defs>
  <style type="text/css">
   <![CDATA[
    .str1 {stroke:#F8C300;stroke-width:0.52155;stroke-linecap:round;stroke-linejoin:round}
    .str0 {stroke:#FFDE00;stroke-width:0.912684;stroke-linecap:round;stroke-linejoin:round}
    .fil3 {fill:none}
    .fil4 {fill:#DA251D}
    .fil1 {fill:#007B3A}
    .fil0 {fill:#0094DE}
    .fil2 {fill:#FFDE00}
   ]]>
  </style>
 </defs>
 <g id="Layer_x0020_2">
  <metadata id="CorelCorpID_0Corel-Layer"/>
  <g id="_96381704">
   <polygon id="_95846176" class="fil0" points="-0,0 183.984,0 183.984,122.35 -0,122.35 "/>
   <polygon id="_95846344" class="fil1" points="-0,81.9658 183.984,81.9658 183.984,122.35 -0,122.35 "/>
   <path id="_97279656" class="fil2" d="M74.185 46.064c-1.36823,-0.040128 -2.42284,-0.06669 -3.26872,-0.083676 -2.44473,-2.73098 -4.87065,-4.24889 -5.8555,-3.51325 -0.639654,0.47766 -0.542184,1.80918 0.129618,3.53913 -0.484044,0.004674 -1.05062,0.007752 -1.74112,0.007752 -2.83712,-5.54382 -8.98035,-10.8731 -11.6725,-10.2762 -3.52397,0.966834 -1.25115,6.7814 0.309852,10.2231l-1.66269 0.000228c-2.43869,-2.71879 -4.85572,-4.2278 -5.83828,-3.49399 -0.635208,0.474354 -0.543666,1.7906 0.115482,3.50288 -5.25722,0.014022 -10.4572,0.044004 -19.463,0.09405 1.0097,6.20992 16.2973,8.4238 26.0839,9.0272 1.64126,1.37484 3.06535,1.98759 3.76417,1.46558 0.317832,-0.237348 0.45372,-0.686166 0.427386,-1.28957 1.20703,0.024054 2.19302,0.016758 2.87212,-0.012768 3.75858,6.2 8.41776,12.2164 13.402,17.8035 -3.7091,1.53706 -4.05464,3.92331 -2.14628,4.29484 5.40406,0 10.1931,0 15.5971,0 2.34088,-0.425562 -1.05689,-4.6007 -3.87361,-4.48123 0.545718,-2.02019 0.205998,-3.72917 -1.17511,-4.94828 -0.842802,-0.732222 -3.41464,0.871986 -3.79096,1.92649 -2.68481,-4.1993 -4.71208,-9.12182 -7.05421,-13.347 0.075354,-0.31008 1.08209,-0.904362 2.3492,-1.4983 1.68481,1.43594 3.15392,2.08529 3.86745,1.55234 0.577524,-0.431376 0.55404,-1.55941 0.04902,-3.0487 0.478002,-0.131442 0.881106,-0.2109 1.15619,-0.215574 -0.860472,-2.4095 -1.72106,-4.81901 -2.58153,-7.22851z"/>
   <path id="_95845192" class="fil2" d="M109.658 46.064c1.36823,-0.040128 2.42284,-0.06669 3.26872,-0.083676 2.44473,-2.73098 4.87054,-4.24889 5.8555,-3.51325 0.639654,0.47766 0.542184,1.80918 -0.129618,3.53913 0.484044,0.004674 1.05062,0.007752 1.74112,0.007752 2.83712,-5.54382 8.98024,-10.8731 11.6725,-10.2762 3.52397,0.966834 1.25115,6.7814 -0.309852,10.2231l1.66269 0.000228c2.43869,-2.71879 4.85572,-4.2278 5.83828,-3.49399 0.635208,0.474354 0.543666,1.7906 -0.115482,3.50288 5.25722,0.014022 10.4572,0.044004 19.463,0.09405 -1.0097,6.20992 -16.2973,8.4238 -26.0839,9.0272 -1.64126,1.37484 -3.06535,1.98759 -3.76417,1.46558 -0.317832,-0.237348 -0.45372,-0.686166 -0.427386,-1.28957 -1.20703,0.024054 -2.19302,0.016758 -2.87212,-0.012768 -3.75858,6.2 -8.41776,12.2164 -13.4021,17.8035 3.70922,1.53706 4.05475,3.92331 2.14639,4.29484 -5.40406,0 -10.1931,0 -15.5971,0 -2.34088,-0.425562 1.05689,-4.6007 3.87361,-4.48123 -0.545718,-2.02019 -0.205998,-3.72917 1.17511,-4.94828 0.842688,-0.732222 3.41464,0.871986 3.79096,1.92649 2.68481,-4.1993 4.71208,-9.12182 7.05421,-13.347 -0.075354,-0.31008 -1.08209,-0.904362 -2.3492,-1.4983 -1.68481,1.43594 -3.15392,2.08529 -3.86745,1.55234 -0.577524,-0.431376 -0.554154,-1.55941 -0.04902,-3.0487 -0.478002,-0.131442 -0.881106,-0.2109 -1.15619,-0.215574 0.860472,-2.4095 1.72106,-4.81901 2.58153,-7.22851z"/>
   <path id="_97759808" class="fil2 str0" d="M112.798 39.3675c0,-2.3541 -1.86869,-4.26326 -4.17229,-4.26326 -2.3036,0 -4.17217,1.90916 -4.14823,4.26326 0.024282,-2.3541 -1.84441,-4.26326 -4.148,-4.26326 -2.3036,0 -4.17229,1.90916 -4.1944,4.26326 -0.021888,-2.3541 -1.89058,-4.26326 -4.19417,-4.26326 -2.3036,0 -4.17229,1.90916 -4.16545,4.26326 0.007068,-2.3541 -1.86162,-4.26326 -4.16522,-4.26326 -2.3036,0 -4.17229,1.90916 -4.17935,4.26326 -0.006726,-2.3541 -1.87541,-4.26326 -4.17901,-4.26326 -2.3036,0 -4.17217,1.90916 -4.17217,4.26326 -0.066576,-1.0081 0,-2.09498 0,-3.08484 0,-11.5192 9.34184,-20.8612 20.8612,-20.8612 11.5194,0 20.8613,9.34196 20.8613,20.8612 0,1.03683 0.07011,2.07776 -0.004218,3.08484z"/>
   <path id="_97279248" class="fil3 str1" d="M104.451 39.1996c-0.945858,-12.2135 -2.29528,-18.5015 -12.51,-23.7781 -10.2147,5.2766 -11.5642,11.7327 -12.51,23.946m16.6823 -0.335844c0,-8.02868 0,-16.1967 -4.17229,-23.6102 -4.17229,7.41353 -4.17229,15.7494 -4.17229,23.7781"/>
   <path id="_96382184" class="fil3 str0" d="M71.0697 39.1996l20.8709 48.7017 20.8571 -48.5338m-33.3671 0l12.51 48.5338m-4.16545 -48.5338l4.16545 48.5338m12.5366 -48.5338l-12.5366 48.5338m4.19417 -48.5338l-4.19417 48.5338"/>
   <path id="_95846128" class="fil2" d="M94.0741 89.5639c0.041382,1.25594 0.161196,0.864804 -0.52725,1.77874 -0.05529,0.722874 -0.249318,1.33198 -0.311562,2.12929 0.238032,0.238374 0.099294,1.46604 -0.026562,1.78 -0.476064,1.04504 -0.527022,1.08745 -0.077292,2.42592 0.033972,0.388626 -0.087666,0.47196 -0.396834,0.490656 -1.78421,-0.744192 -1.81271,-1.63772 -1.84771,-2.4013 -0.018468,-0.404016 0.345648,-1.41839 0.606822,-1.89662 0.221046,-0.404586 0.04617,-1.01734 0.05472,-1.50366 -0.801648,-0.696084 -1.96867,-1.9421 -1.40174,-3.18151 0.167808,-0.366738 0.95589,-1.95453 1.6872,-1.58677 -0.14022,0.429096 -0.86355,1.79345 -0.503766,2.20875 0.063156,0.072732 0.248976,0.775884 0.292182,0.449616 0.04332,-0.326154 0.225264,-1.26392 0.60135,-1.26392 0.375972,0 0.568632,0.85557 0.598842,1.37587 0.374604,-0.469452 0.565212,-0.71706 0.400026,-1.34224 -0.146148,-0.553014 -0.701784,-0.801648 -0.98097,-1.2654 0.805182,-0.319884 1.78957,0.493164 1.83255,1.80257z"/>
   <polygon id="_97657776" class="fil4 str1" points="91.9529,39.5068 94.1743,46.7425 101.406,46.7281 95.5472,51.1854 97.795,58.4123 91.9529,53.9313 86.1106,58.4123 88.3584,51.1854 82.4997,46.7281 89.7313,46.7425 "/>
  </g>
 </g>
</svg>
