<?xml version="1.0" encoding="UTF-8" standalone="no"?>
<!-- Created with Inkscape (http://www.inkscape.org/) -->

<svg
   xmlns:dc="http://purl.org/dc/elements/1.1/"
   xmlns:cc="http://creativecommons.org/ns#"
   xmlns:rdf="http://www.w3.org/1999/02/22-rdf-syntax-ns#"
   xmlns:svg="http://www.w3.org/2000/svg"
   xmlns="http://www.w3.org/2000/svg"
   xmlns:xlink="http://www.w3.org/1999/xlink"
   xmlns:sodipodi="http://sodipodi.sourceforge.net/DTD/sodipodi-0.dtd"
   xmlns:inkscape="http://www.inkscape.org/namespaces/inkscape"
   version="1.1"
   width="185.076mm"
   height="123.409mm"
   viewBox="0 0 185.076 123.409"
   id="svg2"
   xml:space="preserve"
   style="fill-rule:evenodd"
   inkscape:version="0.92.1 r15371"
   sodipodi:docname="Ensign_of_the_Ukrainian_Ground_Forces.svg"><metadata
   id="metadata96"><rdf:RDF><cc:Work
       rdf:about=""><dc:format>image/svg+xml</dc:format><dc:type
         rdf:resource="http://purl.org/dc/dcmitype/StillImage" /><dc:title /></cc:Work></rdf:RDF></metadata><sodipodi:namedview
   pagecolor="#ffffff"
   bordercolor="#666666"
   borderopacity="1"
   objecttolerance="10"
   gridtolerance="10"
   guidetolerance="10"
   inkscape:pageopacity="0"
   inkscape:pageshadow="2"
   inkscape:window-width="1600"
   inkscape:window-height="838"
   id="namedview94"
   showgrid="false"
   inkscape:zoom="1.3399707"
   inkscape:cx="349.74993"
   inkscape:cy="233.21365"
   inkscape:window-x="-8"
   inkscape:window-y="-8"
   inkscape:window-maximized="1"
   inkscape:current-layer="svg2"
   inkscape:snap-bbox="true"
   inkscape:bbox-paths="true"
   inkscape:bbox-nodes="true"
   inkscape:snap-bbox-edge-midpoints="true"
   inkscape:snap-bbox-midpoints="true" />
 <defs
   id="defs4">
  <style
   type="text/css"
   id="style6" />
  <linearGradient
   x1="88.0625"
   y1="101.869"
   x2="97.507599"
   y2="101.869"
   id="id0"
   gradientUnits="userSpaceOnUse">
   <stop
   id="stop9"
   style="stop-color:#dccf73;stop-opacity:1"
   offset="0" />
   <stop
   id="stop11"
   style="stop-color:#ffed00;stop-opacity:1"
   offset="1" />
  </linearGradient>
  <linearGradient
   x1="83.033798"
   y1="91.186302"
   x2="102.042"
   y2="91.186302"
   id="id1"
   gradientUnits="userSpaceOnUse">
   <stop
   id="stop14"
   style="stop-color:#b2b09c;stop-opacity:1"
   offset="0" />
   <stop
   id="stop16"
   style="stop-color:#dccf73;stop-opacity:1"
   offset="1" />
  </linearGradient>
  <linearGradient
   x1="54.329399"
   y1="56.3367"
   x2="129.621"
   y2="56.3367"
   id="id2"
   xlink:href="#id0"
   gradientUnits="userSpaceOnUse">
  </linearGradient>
  <linearGradient
   x1="55.9748"
   y1="56.3367"
   x2="131.26601"
   y2="56.3367"
   id="id3"
   xlink:href="#id0"
   gradientUnits="userSpaceOnUse">
  </linearGradient>
  <linearGradient
   x1="85.8256"
   y1="97.448196"
   x2="99.769897"
   y2="97.448196"
   id="id4"
   xlink:href="#id0"
   gradientUnits="userSpaceOnUse">
  </linearGradient>
  <linearGradient
   x1="89.2314"
   y1="94.963097"
   x2="96.224098"
   y2="94.963097"
   id="id5"
   xlink:href="#id0"
   gradientUnits="userSpaceOnUse">
  </linearGradient>
  <linearGradient
   x1="89.399597"
   y1="97.43"
   x2="96.140099"
   y2="97.43"
   id="id6"
   xlink:href="#id0"
   gradientUnits="userSpaceOnUse">
  </linearGradient>
  <linearGradient
   x1="89.484497"
   y1="99.804199"
   x2="96.042"
   y2="99.804199"
   id="id7"
   xlink:href="#id0"
   gradientUnits="userSpaceOnUse">
  </linearGradient>
  <linearGradient
   x1="89.622803"
   y1="101.675"
   x2="95.1129"
   y2="101.675"
   id="id8"
   xlink:href="#id0"
   gradientUnits="userSpaceOnUse">
  </linearGradient>
  <linearGradient
   x1="92.3647"
   y1="59.738701"
   x2="93.230797"
   y2="59.738701"
   id="id9"
   xlink:href="#id0"
   gradientUnits="userSpaceOnUse">
  </linearGradient>
  <linearGradient
   x1="96.903397"
   y1="102.254"
   x2="88.723099"
   y2="102.254"
   id="id10"
   xlink:href="#id0"
   gradientUnits="userSpaceOnUse">
  </linearGradient>
  <linearGradient
   x1="88.4021"
   y1="85.230698"
   x2="96.673798"
   y2="97.1418"
   id="id11"
   xlink:href="#id0"
   gradientUnits="userSpaceOnUse">
  </linearGradient>
  <radialGradient
   cx="86.195503"
   cy="58.719601"
   r="18.654499"
   fx="86.195503"
   fy="58.719601"
   id="id12"
   gradientUnits="userSpaceOnUse">
   <stop
   id="stop29"
   style="stop-color:#008dd2;stop-opacity:1"
   offset="0" />
   <stop
   id="stop31"
   style="stop-color:#393185;stop-opacity:1"
   offset="1" />
  </radialGradient>
 
  
  
 
   
   
   
   
   
   
   
   
  </defs>
 
<g
   id="g3709"><polygon
     style="fill:#d50663;stroke:#2b2a29;stroke-width:0.0762"
     id="_295232584"
     points="0.038,0.0381 0.038,123.371 185.038,123.371 185.038,0.0381 " /><g
     id="g3688"><path
       sodipodi:nodetypes="ccccccccccccc"
       inkscape:connector-curvature="0"
       id="path6346"
       d="m 75.21584,12.240738 10.487886,42.629573 -42.629537,-10.487886 0,34.644299 42.630069,-10.488418 -10.488418,42.630064 34.6443,0 -10.48898,-42.630624 42.63066,10.488978 0,-34.644299 -42.6301,10.488418 10.48842,-42.630105 z"
       style="color:#000000;font-style:normal;font-variant:normal;font-weight:normal;font-stretch:normal;font-size:medium;line-height:normal;font-family:sans-serif;text-indent:0;text-align:start;text-decoration:none;text-decoration-line:none;text-decoration-style:solid;text-decoration-color:#000000;letter-spacing:normal;word-spacing:normal;text-transform:none;direction:ltr;block-progression:tb;writing-mode:lr-tb;baseline-shift:baseline;text-anchor:start;white-space:normal;clip-rule:nonzero;display:inline;overflow:visible;visibility:visible;opacity:1;isolation:auto;mix-blend-mode:normal;color-interpolation:sRGB;color-interpolation-filters:linearRGB;solid-color:#000000;solid-opacity:1;fill:#ffdf00;fill-opacity:1;fill-rule:nonzero;stroke:#806600;stroke-width:0.27995393;stroke-linecap:butt;stroke-linejoin:miter;stroke-miterlimit:4;stroke-dasharray:none;stroke-dashoffset:0;stroke-opacity:1;color-rendering:auto;image-rendering:auto;shape-rendering:auto;text-rendering:auto;enable-background:accumulate" /><path
       sodipodi:nodetypes="ccccccccccccc"
       inkscape:connector-curvature="0"
       id="path6348"
       d="m 88.285265,57.45185 -10.658434,-43.321367 29.822319,0 -10.658437,43.321367 43.321357,-10.658434 0,29.822316 -43.321357,-10.658434 10.658437,43.321362 -29.822319,0 10.658434,-43.321362 -43.321359,10.658434 0,-29.822316 z"
       style="opacity:1;fill:#d50663;stroke:#806600;stroke-width:0.27995393" /><g
       transform="matrix(0.19795732,-0.19795732,0.19795732,0.19795732,-99.371452,-148.92678)"
       id="g6446"><path
         sodipodi:nodetypes="cccccc"
         inkscape:connector-curvature="0"
         id="path6448"
         d="m -47.287761,862.51197 12.285981,12.89676 0,246.25787 -24.571962,0 0,-246.25787 z"
         style="opacity:1;fill:#ffdf00;stroke:#806600;stroke-width:1;stroke-linecap:round;stroke-linejoin:round;stroke-miterlimit:4;stroke-dasharray:none" /><path
         sodipodi:nodetypes="ccccc"
         style="opacity:1;fill:#ffdf00;stroke:#806600;stroke-width:1;stroke-linecap:round;stroke-linejoin:round;stroke-miterlimit:4;stroke-dasharray:none"
         d="m -55.220615,1122.6702 15.865708,0 -1.375,32.9334 -13.115708,0 z"
         id="path6450"
         inkscape:connector-curvature="0" /><path
         inkscape:connector-curvature="0"
         style="color:#000000;font-style:normal;font-variant:normal;font-weight:normal;font-stretch:normal;font-size:medium;line-height:normal;font-family:sans-serif;text-indent:0;text-align:start;text-decoration:none;text-decoration-line:none;text-decoration-style:solid;text-decoration-color:#000000;letter-spacing:normal;word-spacing:normal;text-transform:none;direction:ltr;block-progression:tb;writing-mode:lr-tb;baseline-shift:baseline;text-anchor:start;white-space:normal;clip-rule:nonzero;display:inline;overflow:visible;visibility:visible;opacity:1;isolation:auto;mix-blend-mode:normal;color-interpolation:sRGB;color-interpolation-filters:linearRGB;solid-color:#000000;solid-opacity:1;fill:#806600;fill-opacity:1;fill-rule:evenodd;stroke:none;stroke-width:1;stroke-linecap:round;stroke-linejoin:round;stroke-miterlimit:4;stroke-dasharray:none;stroke-dashoffset:0;stroke-opacity:1;color-rendering:auto;image-rendering:auto;shape-rendering:auto;text-rendering:auto;enable-background:accumulate"
         d="m -39.552734,1124.7695 a 0.50005,0.50005 0 0 0 -0.181641,0.031 l -15.171875,5.4004 0.04297,1.0449 a 0.50005,0.50005 0 0 0 0.02344,-0.01 l 15.355469,-5.4649 0.04102,-0.9902 a 0.50005,0.50005 0 0 0 -0.109375,-0.014 z m -0.123047,5.5938 a 0.50005,0.50005 0 0 0 -0.05859,0.018 l -14.941406,5.3183 0.04297,1.0449 14.912109,-5.3066 0.04492,-1.0742 z m -0.236328,5.6621 -14.535157,5.1699 0.04297,1.0469 14.447266,-5.1406 0.04492,-1.0762 z m -0.238282,5.6641 -14.066406,5.0039 0.04297,1.0488 13.978516,-4.9766 0.04492,-1.0761 z m -0.236328,5.6621 -13.601562,4.8418 0.04297,1.0449 13.513671,-4.8086 0.04492,-1.0781 z"
         id="path6452" /><path
         inkscape:connector-curvature="0"
         id="path6454"
         d="m -47.287761,887.31625 0,234.60755"
         style="color:#000000;clip-rule:nonzero;display:inline;overflow:visible;visibility:visible;opacity:1;isolation:auto;mix-blend-mode:normal;color-interpolation:sRGB;color-interpolation-filters:linearRGB;solid-color:#000000;solid-opacity:1;fill:none;fill-opacity:1;fill-rule:evenodd;stroke:#806600;stroke-width:1;stroke-linecap:round;stroke-linejoin:round;stroke-miterlimit:4;stroke-dasharray:none;stroke-dashoffset:0;stroke-opacity:1;color-rendering:auto;image-rendering:auto;shape-rendering:auto;text-rendering:auto;enable-background:accumulate" /><path
         sodipodi:nodetypes="cssssccc"
         inkscape:connector-curvature="0"
         id="path6456"
         d="m -75.537761,1113.247 0,10.1524 c 0,0.3462 0.27875,0.625 0.625,0.625 l 55.25,0 c 0.34625,0 0.625,-0.2788 0.625,-0.625 l 0,-10.1524 -28.25,4.5625 z"
         style="opacity:1;fill:#ffdf00;stroke:#806600;stroke-width:1;stroke-linecap:round;stroke-linejoin:round;stroke-miterlimit:4;stroke-dasharray:none" /><path
         style="color:#000000;clip-rule:nonzero;display:inline;overflow:visible;visibility:visible;opacity:1;isolation:auto;mix-blend-mode:normal;color-interpolation:sRGB;color-interpolation-filters:linearRGB;solid-color:#000000;solid-opacity:1;fill:#ffdf00;fill-opacity:1;fill-rule:evenodd;stroke:#806600;stroke-width:1;stroke-linecap:round;stroke-linejoin:round;stroke-miterlimit:4;stroke-dasharray:none;stroke-dashoffset:0;stroke-opacity:1;color-rendering:auto;image-rendering:auto;shape-rendering:auto;text-rendering:auto;enable-background:accumulate"
         d="m -60.694011,1153.9423 c 0,0 3.792174,12.5 13.40625,12.5 9.614076,0 13.40625,-12.5 13.40625,-12.5 0,0 -4.349384,1.4375 -13.40625,1.4375 -9.056866,0 -13.40625,-1.4375 -13.40625,-1.4375 z"
         id="path6458"
         inkscape:connector-curvature="0"
         sodipodi:nodetypes="czczc" /></g><g
       id="g6520"
       transform="matrix(-0.19795732,-0.19795732,-0.19795732,0.19795732,284.44744,-148.92678)"><path
         style="opacity:1;fill:#ffdf00;stroke:#806600;stroke-width:1;stroke-linecap:round;stroke-linejoin:round;stroke-miterlimit:4;stroke-dasharray:none"
         d="m -47.287761,862.51197 12.285981,12.89676 0,246.25787 -24.571962,0 0,-246.25787 z"
         id="path6522"
         inkscape:connector-curvature="0"
         sodipodi:nodetypes="cccccc" /><path
         inkscape:connector-curvature="0"
         id="path6524"
         d="m -55.220615,1122.6702 15.865708,0 -1.375,32.9334 -13.115708,0 z"
         style="opacity:1;fill:#ffdf00;stroke:#806600;stroke-width:1;stroke-linecap:round;stroke-linejoin:round;stroke-miterlimit:4;stroke-dasharray:none"
         sodipodi:nodetypes="ccccc" /><path
         id="path6526"
         d="m -39.552734,1124.7695 a 0.50005,0.50005 0 0 0 -0.181641,0.031 l -15.171875,5.4004 0.04297,1.0449 a 0.50005,0.50005 0 0 0 0.02344,-0.01 l 15.355469,-5.4649 0.04102,-0.9902 a 0.50005,0.50005 0 0 0 -0.109375,-0.014 z m -0.123047,5.5938 a 0.50005,0.50005 0 0 0 -0.05859,0.018 l -14.941406,5.3183 0.04297,1.0449 14.912109,-5.3066 0.04492,-1.0742 z m -0.236328,5.6621 -14.535157,5.1699 0.04297,1.0469 14.447266,-5.1406 0.04492,-1.0762 z m -0.238282,5.6641 -14.066406,5.0039 0.04297,1.0488 13.978516,-4.9766 0.04492,-1.0761 z m -0.236328,5.6621 -13.601562,4.8418 0.04297,1.0449 13.513671,-4.8086 0.04492,-1.0781 z"
         style="color:#000000;font-style:normal;font-variant:normal;font-weight:normal;font-stretch:normal;font-size:medium;line-height:normal;font-family:sans-serif;text-indent:0;text-align:start;text-decoration:none;text-decoration-line:none;text-decoration-style:solid;text-decoration-color:#000000;letter-spacing:normal;word-spacing:normal;text-transform:none;direction:ltr;block-progression:tb;writing-mode:lr-tb;baseline-shift:baseline;text-anchor:start;white-space:normal;clip-rule:nonzero;display:inline;overflow:visible;visibility:visible;opacity:1;isolation:auto;mix-blend-mode:normal;color-interpolation:sRGB;color-interpolation-filters:linearRGB;solid-color:#000000;solid-opacity:1;fill:#806600;fill-opacity:1;fill-rule:evenodd;stroke:none;stroke-width:1;stroke-linecap:round;stroke-linejoin:round;stroke-miterlimit:4;stroke-dasharray:none;stroke-dashoffset:0;stroke-opacity:1;color-rendering:auto;image-rendering:auto;shape-rendering:auto;text-rendering:auto;enable-background:accumulate"
         inkscape:connector-curvature="0" /><path
         style="color:#000000;clip-rule:nonzero;display:inline;overflow:visible;visibility:visible;opacity:1;isolation:auto;mix-blend-mode:normal;color-interpolation:sRGB;color-interpolation-filters:linearRGB;solid-color:#000000;solid-opacity:1;fill:none;fill-opacity:1;fill-rule:evenodd;stroke:#806600;stroke-width:1;stroke-linecap:round;stroke-linejoin:round;stroke-miterlimit:4;stroke-dasharray:none;stroke-dashoffset:0;stroke-opacity:1;color-rendering:auto;image-rendering:auto;shape-rendering:auto;text-rendering:auto;enable-background:accumulate"
         d="m -47.287761,887.31625 0,234.60755"
         id="path6528"
         inkscape:connector-curvature="0" /><path
         style="opacity:1;fill:#ffdf00;stroke:#806600;stroke-width:1;stroke-linecap:round;stroke-linejoin:round;stroke-miterlimit:4;stroke-dasharray:none"
         d="m -75.537761,1113.247 0,10.1524 c 0,0.3462 0.27875,0.625 0.625,0.625 l 55.25,0 c 0.34625,0 0.625,-0.2788 0.625,-0.625 l 0,-10.1524 -28.25,4.5625 z"
         id="path6530"
         inkscape:connector-curvature="0"
         sodipodi:nodetypes="cssssccc" /><path
         sodipodi:nodetypes="czczc"
         inkscape:connector-curvature="0"
         id="path6532"
         d="m -60.694011,1153.9423 c 0,0 3.792174,12.5 13.40625,12.5 9.614076,0 13.40625,-12.5 13.40625,-12.5 0,0 -4.349384,1.4375 -13.40625,1.4375 -9.056866,0 -13.40625,-1.4375 -13.40625,-1.4375 z"
         style="color:#000000;clip-rule:nonzero;display:inline;overflow:visible;visibility:visible;opacity:1;isolation:auto;mix-blend-mode:normal;color-interpolation:sRGB;color-interpolation-filters:linearRGB;solid-color:#000000;solid-opacity:1;fill:#ffdf00;fill-opacity:1;fill-rule:evenodd;stroke:#806600;stroke-width:1;stroke-linecap:round;stroke-linejoin:round;stroke-miterlimit:4;stroke-dasharray:none;stroke-dashoffset:0;stroke-opacity:1;color-rendering:auto;image-rendering:auto;shape-rendering:auto;text-rendering:auto;enable-background:accumulate" /></g><path
       inkscape:connector-curvature="0"
       id="path6350"
       d="M 112.30974,61.704574 A 19.771746,19.771746 0 0 1 92.537989,81.47632 19.771746,19.771746 0 0 1 72.766243,61.704574 19.771746,19.771746 0 0 1 92.537989,41.932828 19.771746,19.771746 0 0 1 112.30974,61.704574 Z"
       style="opacity:1;fill:#ffdf00;stroke:#806600;stroke-width:0.27995393;stroke-miterlimit:4;stroke-dasharray:none" /><path
       inkscape:connector-curvature="0"
       style="opacity:1;fill:#001788;stroke:#806600;stroke-width:0.27995393;stroke-miterlimit:4;stroke-dasharray:none"
       d="M 110.26982,61.704574 A 17.731828,17.731828 0 0 1 92.537989,79.436408 17.731828,17.731828 0 0 1 74.806155,61.704574 17.731828,17.731828 0 0 1 92.537989,43.97274 17.731828,17.731828 0 0 1 110.26982,61.704574 Z"
       id="path6352" /><path
       inkscape:connector-curvature="0"
       d="m 92.537989,46.801703 c -0.69451,0.788126 -1.117716,1.819728 -1.117716,2.952058 0.04115,2.486215 0.346079,4.96739 0.372563,7.452877 0.05512,2.316423 -0.639639,4.492085 -1.484456,6.614416 -0.281494,0.586503 -0.586,1.160549 -0.890674,1.735154 L 88.52121,65.375694 c -0.806687,-0.161309 -1.331405,-0.945768 -1.170123,-1.752568 0.141124,-0.705987 0.762398,-1.196215 1.455368,-1.199462 l 0.326006,0.03494 -0.727712,-6.078752 C 88.166928,53.67292 86.770658,51.298547 84.713976,49.753761 84.360535,49.488309 83.986068,49.245588 83.59626,49.03176 l 0,21.590075 4.983152,0 c 0.372591,2.023031 1.485772,3.785481 3.050434,4.995778 0.372171,0.256549 0.683928,0.594958 0.908143,0.989833 0.224215,-0.394875 0.535972,-0.733284 0.908142,-0.989833 1.564663,-1.210297 2.677844,-2.972747 3.050435,-4.995778 l 4.983154,0 0,-21.590075 c -0.38981,0.213828 -0.76428,0.456549 -1.11772,0.722001 -2.05668,1.544786 -3.45295,3.919159 -3.690799,6.626089 l -0.727684,6.078752 0.326006,-0.03494 c 0.692998,0.0034 1.314244,0.493475 1.455368,1.199462 0.161282,0.8068 -0.363436,1.591259 -1.170123,1.752568 l -0.896497,0.180514 c -0.304673,-0.574605 -0.609179,-1.148651 -0.890673,-1.735154 -0.844789,-2.122331 -1.539607,-4.297993 -1.484484,-6.614416 0.0266,-2.485487 0.331438,-4.966662 0.372591,-7.452877 0,-1.13233 -0.423206,-2.163932 -1.117716,-2.952058 z m -7.45145,5.339309 c 0.964441,1.132106 1.611667,2.542822 1.804667,4.093262 l 0.599578,5.013247 c -0.763491,0.380178 -1.342296,1.077627 -1.560128,1.921436 l -0.844117,0 0,-11.027945 z m 14.902872,0 0,11.027945 -0.844089,0 c -0.217833,-0.843809 -0.796637,-1.541258 -1.560156,-1.921436 l 0.599606,-5.013247 c 0.193,-1.55044 0.840253,-2.961156 1.804639,-4.093262 z m -7.451422,10.078845 c 0.400306,1.309597 0.951087,2.553152 1.635827,3.70897 -0.651285,0.197899 -1.218136,0.582836 -1.635827,1.100471 -0.417691,-0.517635 -0.984542,-0.902544 -1.635827,-1.100471 0.684739,-1.155818 1.235493,-2.399373 1.635827,-3.70897 z m -7.45145,2.439687 0.844117,0 c 0.266152,1.028663 1.069116,1.841481 2.089884,2.125214 l 0.716039,0.163045 c -0.191741,0.695154 -0.296864,1.427625 -0.296864,2.183445 l -3.353176,0 0,-4.471704 z m 14.058783,0 0.844089,0 0,4.471704 -3.353148,0 c 0,-0.75582 -0.105151,-1.488291 -0.296892,-2.183445 l 0.716039,-0.163045 c 1.020796,-0.283733 1.823759,-1.096551 2.089912,-2.125214 z m -8.953375,2.631791 c 0.904055,0.127799 1.600889,0.900612 1.600889,1.839913 l -1.862842,0 c 0,-0.638939 0.09463,-1.254697 0.261953,-1.839913 z m 4.692084,0 c 0.167328,0.585216 0.261953,1.200974 0.261953,1.839913 l -1.86287,0 c 0,-0.939301 0.696862,-1.712114 1.600917,-1.839913 z m -4.785225,3.3305 1.69403,0 0,3.138367 c -0.822141,-0.859654 -1.419339,-1.939045 -1.69403,-3.138367 z m 3.184308,0 1.694058,0 c -0.274691,1.199322 -0.871917,2.278713 -1.694058,3.138367 l 0,-3.138367 z"
       id="path6354"
       style="display:inline;opacity:1;fill:#ffdf00;fill-opacity:1" /></g></g></svg>