<?xml version="1.0" encoding="UTF-8" standalone="no"?>
<!-- Created with Inkscape (http://www.inkscape.org/) -->

<svg
   xmlns:dc="http://purl.org/dc/elements/1.1/"
   xmlns:cc="http://creativecommons.org/ns#"
   xmlns:rdf="http://www.w3.org/1999/02/22-rdf-syntax-ns#"
   xmlns:svg="http://www.w3.org/2000/svg"
   xmlns="http://www.w3.org/2000/svg"
   xmlns:sodipodi="http://sodipodi.sourceforge.net/DTD/sodipodi-0.dtd"
   xmlns:inkscape="http://www.inkscape.org/namespaces/inkscape"
   width="1125.84"
   height="729.21002"
   id="svg2"
   version="1.1"
   inkscape:version="0.91 r13725"
   sodipodi:docname="Flag_of_the_National_Guard_of_Ukraine.svg">
  <defs
     id="defs4">
    <clipPath
       id="clipPath4451"
       clipPathUnits="userSpaceOnUse">
      <path
         style="color:#000000;clip-rule:nonzero;display:inline;overflow:visible;visibility:visible;opacity:0.431;isolation:auto;mix-blend-mode:normal;color-interpolation:sRGB;color-interpolation-filters:linearRGB;solid-color:#000000;solid-opacity:1;fill:#ff0000;fill-opacity:1;fill-rule:nonzero;stroke:none;stroke-width:0.1;stroke-linecap:round;stroke-linejoin:round;stroke-miterlimit:4;stroke-dasharray:none;stroke-dashoffset:0;stroke-opacity:1;color-rendering:auto;image-rendering:auto;shape-rendering:auto;text-rendering:auto;enable-background:accumulate"
         d="m 667.60007,70.420295 a 3.6792099,6.4033842 0 0 0 -3.6543,5.689453 c -0.79155,-0.177368 -1.59695,-0.319416 -2.43359,-0.349609 -1.28486,-0.04637 -2.62892,0.136077 -4.04883,0.720703 -5.90212,2.430101 -5.33108,8.17248 -4.79493,13.207031 0.60186,5.651276 2.48913,10.873737 4.63672,15.720707 2.68775,6.06607 0.4624,9.99815 -2.19922,13.67773 -1.22073,1.68764 -0.76847,4.03634 2.50196,4.52344 2.15244,0.32058 5.53351,0.38499 8.25586,0.40039 l 0,0.01 c 0,0 1.228,-0.007 1.73633,-0.004 0.50832,-0.003 1.73632,0.004 1.73632,0.004 l 0,-0.01 c 2.72235,-0.0154 6.10342,-0.0798 8.25586,-0.40039 3.27043,-0.4871 3.72271,-2.8358 2.50196,-4.52344 -2.66162,-3.67958 -4.88893,-7.61166 -2.20118,-13.67773 2.14759,-4.84697 4.03683,-10.069431 4.63868,-15.720707 0.53617,-5.034551 1.10719,-10.77693 -4.79493,-13.207031 -2.34393,-0.965077 -4.47962,-0.834632 -6.48632,-0.384766 a 3.6792099,6.4033842 0 0 0 -3.65039,-5.675781 z"
         id="path4453"
         inkscape:connector-curvature="0" />
    </clipPath>
  </defs>
  <sodipodi:namedview
     id="base"
     pagecolor="#ffffff"
     bordercolor="#666666"
     borderopacity="1.0"
     inkscape:pageopacity="0.0"
     inkscape:pageshadow="2"
     inkscape:zoom="1.0267845"
     inkscape:cx="562.80473"
     inkscape:cy="364.39315"
     inkscape:document-units="px"
     inkscape:current-layer="layer2"
     showgrid="false"
     showguides="true"
     inkscape:guide-bbox="true"
     inkscape:window-width="1280"
     inkscape:window-height="962"
     inkscape:window-x="-8"
     inkscape:window-y="-8"
     inkscape:window-maximized="1" />
  <metadata
     id="metadata7">
    <rdf:RDF>
      <cc:Work
         rdf:about="">
        <dc:format>image/svg+xml</dc:format>
        <dc:type
           rdf:resource="http://purl.org/dc/dcmitype/StillImage" />
        <dc:title />
      </cc:Work>
    </rdf:RDF>
  </metadata>
  <g
     inkscape:label="Layer 1"
     inkscape:groupmode="layer"
     id="layer1"
     transform="translate(0,-323.15214)" />
  <g
     inkscape:groupmode="layer"
     id="layer2"
     inkscape:label="coat"
     transform="translate(0,-323.14996)">
    <g
       id="g3564">
      <rect
         ry="6.4903545"
         rx="7.0954852"
         y="323.35843"
         x="-0.11769386"
         height="729.2168"
         width="1125.8448"
         id="rect3761"
         style="fill:#31398c;fill-opacity:1;fill-rule:evenodd;stroke:none" />
      <g
         transform="matrix(2.2831211,0,0,2.2831211,-36.241993,214.01665)"
         id="g4574">
        <g
           id="g3348"
           transform="matrix(0.43799777,0,0,0.43799777,150.23742,95.101032)">
          <polygon
             style="fill:#800000;fill-opacity:1"
             points="303.381,209.654 506.323,153.643 506.323,360.454 304.022,304.621 359.908,507.11 153.099,507.11 208.921,304.848 5.747,360.921 5.747,154.111 208.829,210.161 152.631,6.535 359.441,6.535 "
             id="polygon3350" />
          <path
             style="fill:#ffd700"
             inkscape:connector-curvature="0"
             d="m 353.541,11.027 -52.384,189.801 -4.212,15.263 15.263,-4.212 189.624,-52.334 0,195.011 -188.982,-52.159 -15.263,-4.212 4.212,15.263 52.21,189.171 -195.011,0 52.147,-188.944 4.212,-15.263 -15.263,4.212 -189.855,52.399 0,-195.012 189.763,52.373 15.263,4.213 -4.212,-15.263 -52.523,-190.307 195.011,0 m 11.799,-8.984 -218.61,0 55.663,201.682 -201.137,-55.513 0,218.61 201.229,-55.538 -55.286,200.318 218.61,0 -55.349,-200.545 200.356,55.297 0,-218.61 -200.998,55.474 55.522,-201.175 0,0 z"
             id="path3352" />
        </g>
        <g
           id="g4562">
          <g
             transform="translate(-380.09984,0.06652958)"
             id="g4308">
            <path
               style="color:#000000;font-style:normal;font-variant:normal;font-weight:normal;font-stretch:normal;font-size:medium;line-height:normal;font-family:sans-serif;text-indent:0;text-align:start;text-decoration:none;text-decoration-line:none;text-decoration-style:solid;text-decoration-color:#000000;letter-spacing:normal;word-spacing:normal;text-transform:none;direction:ltr;block-progression:tb;writing-mode:lr-tb;baseline-shift:baseline;text-anchor:start;white-space:normal;clip-rule:nonzero;display:inline;overflow:visible;visibility:visible;opacity:1;isolation:auto;mix-blend-mode:normal;color-interpolation:sRGB;color-interpolation-filters:linearRGB;solid-color:#000000;solid-opacity:1;fill:#ffd700;fill-opacity:1;fill-rule:nonzero;stroke:none;stroke-width:1.00999999;stroke-linecap:round;stroke-linejoin:round;stroke-miterlimit:4;stroke-dasharray:none;stroke-dashoffset:0;stroke-opacity:1;color-rendering:auto;image-rendering:auto;shape-rendering:auto;text-rendering:auto;enable-background:accumulate"
               d="m 642.47655,151.20998 c -0.0651,7e-4 -0.12941,0.014 -0.18945,0.0391 l -39.46094,16.34375 c -0.12381,0.0513 -0.22218,0.14963 -0.27344,0.27344 l -16.3457,39.46289 c -0.0513,0.1238 -0.0513,0.26292 0,0.38672 l 16.3457,39.46093 c 0.0513,0.12381 0.14963,0.22218 0.27344,0.27344 l 39.46094,16.34571 c 0.1238,0.0513 0.26292,0.0513 0.38672,0 l 39.46094,-16.34571 c 0.12381,-0.0513 0.22217,-0.14963 0.27343,-0.27344 l 16.34571,-39.46093 c 0.0513,-0.1238 0.0513,-0.26292 0,-0.38672 l -16.34571,-39.46293 c -0.0513,-0.12381 -0.14962,-0.22218 -0.27343,-0.27344 l -39.46094,-16.34375 c -0.0625,-0.0261 -0.12956,-0.0394 -0.19727,-0.0391 z"
               id="path4286"
               inkscape:connector-curvature="0"
               sodipodi:nodetypes="ccccccccccccccccccc" />
            <path
               style="color:#000000;font-style:normal;font-variant:normal;font-weight:normal;font-stretch:normal;font-size:medium;line-height:normal;font-family:sans-serif;text-indent:0;text-align:start;text-decoration:none;text-decoration-line:none;text-decoration-style:solid;text-decoration-color:#000000;letter-spacing:normal;word-spacing:normal;text-transform:none;direction:ltr;block-progression:tb;writing-mode:lr-tb;baseline-shift:baseline;text-anchor:start;white-space:normal;clip-rule:nonzero;display:inline;overflow:visible;visibility:visible;opacity:1;isolation:auto;mix-blend-mode:normal;color-interpolation:sRGB;color-interpolation-filters:linearRGB;solid-color:#000000;solid-opacity:1;fill:#465626;fill-opacity:1;fill-rule:nonzero;stroke:none;stroke-width:1.00999999;stroke-linecap:round;stroke-linejoin:round;stroke-miterlimit:4;stroke-dasharray:none;stroke-dashoffset:0;stroke-opacity:1;color-rendering:auto;image-rendering:auto;shape-rendering:auto;text-rendering:auto;enable-background:accumulate"
               d="m 642.47655,155.12012 c -0.0651,7e-4 -0.12941,0.014 -0.18945,0.0391 l -36.69727,15.19922 c -0.12381,0.0513 -0.22217,0.14962 -0.27343,0.27343 l -15.19922,36.69727 c -0.0513,0.1238 -0.0513,0.26292 0,0.38672 l 15.19922,36.69531 c 0.0513,0.12381 0.14962,0.22218 0.27343,0.27344 l 36.69727,15.20117 c 0.1238,0.0513 0.26292,0.0513 0.38672,0 l 36.69726,-15.20117 c 0.12308,-0.0517 0.22069,-0.15 0.27149,-0.27344 l 15.20117,-36.69531 c 0.0513,-0.1238 0.0513,-0.26292 0,-0.38672 l -15.20117,-36.69727 c -0.0508,-0.12344 -0.14842,-0.22175 -0.27149,-0.27343 l -36.69726,-15.19922 c -0.0625,-0.0261 -0.12956,-0.0394 -0.19727,-0.0391 z"
               id="path4294"
               inkscape:connector-curvature="0"
               sodipodi:nodetypes="cccccccccccccccccc" />
            <path
               style="color:#000000;font-style:normal;font-variant:normal;font-weight:normal;font-stretch:normal;font-size:medium;line-height:normal;font-family:sans-serif;text-indent:0;text-align:start;text-decoration:none;text-decoration-line:none;text-decoration-style:solid;text-decoration-color:#000000;letter-spacing:normal;word-spacing:normal;text-transform:none;direction:ltr;block-progression:tb;writing-mode:lr-tb;baseline-shift:baseline;text-anchor:start;white-space:normal;clip-rule:nonzero;display:inline;overflow:visible;visibility:visible;opacity:1;isolation:auto;mix-blend-mode:normal;color-interpolation:sRGB;color-interpolation-filters:linearRGB;solid-color:#000000;solid-opacity:1;fill:#ffd700;fill-opacity:1;fill-rule:nonzero;stroke:none;stroke-width:1.00999999;stroke-linecap:round;stroke-linejoin:round;stroke-miterlimit:4;stroke-dasharray:none;stroke-dashoffset:0;stroke-opacity:1;color-rendering:auto;image-rendering:auto;shape-rendering:auto;text-rendering:auto;enable-background:accumulate"
               d="m 642.47655,156.6768 c -0.0649,7e-5 -0.12927,0.0127 -0.18945,0.0371 L 606.6914,171.46 c -0.12381,0.0513 -0.22218,0.14963 -0.27344,0.27344 l -14.74414,35.5957 c -0.0513,0.1238 -0.0513,0.26292 0,0.38672 l 14.74414,35.5957 c 0.0513,0.12381 0.14963,0.22218 0.27344,0.27344 l 35.5957,14.74414 c 0.1238,0.0513 0.26292,0.0513 0.38672,0 l 35.5957,-14.74414 c 0.12381,-0.0513 0.22218,-0.14963 0.27344,-0.27344 l 14.74414,-35.5957 c 0.0513,-0.1238 0.0513,-0.26292 0,-0.38672 l -14.74414,-35.5957 c -0.0513,-0.12381 -0.14963,-0.22218 -0.27344,-0.27344 l -35.5957,-14.7461 c -0.0626,-0.0254 -0.12969,-0.0381 -0.19727,-0.0371 z"
               id="path4296"
               inkscape:connector-curvature="0"
               sodipodi:nodetypes="cccccccccccccccccc" />
            <path
               style="color:#000000;font-style:normal;font-variant:normal;font-weight:normal;font-stretch:normal;font-size:medium;line-height:normal;font-family:sans-serif;text-indent:0;text-align:start;text-decoration:none;text-decoration-line:none;text-decoration-style:solid;text-decoration-color:#000000;letter-spacing:normal;word-spacing:normal;text-transform:none;direction:ltr;block-progression:tb;writing-mode:lr-tb;baseline-shift:baseline;text-anchor:start;white-space:normal;clip-rule:nonzero;display:inline;overflow:visible;visibility:visible;opacity:1;isolation:auto;mix-blend-mode:normal;color-interpolation:sRGB;color-interpolation-filters:linearRGB;solid-color:#000000;solid-opacity:1;fill:#465626;fill-opacity:1;fill-rule:nonzero;stroke:none;stroke-width:1.00999999;stroke-linecap:round;stroke-linejoin:round;stroke-miterlimit:4;stroke-dasharray:none;stroke-dashoffset:0;stroke-opacity:1;color-rendering:auto;image-rendering:auto;shape-rendering:auto;text-rendering:auto;enable-background:accumulate"
               d="m 642.47656,159.01172 c -0.0651,7e-4 -0.12941,0.014 -0.18945,0.0391 l -33.94531,14.06055 c -0.12381,0.0513 -0.22218,0.14963 -0.27344,0.27344 l -14.06055,33.94531 c -0.0513,0.1238 -0.0513,0.26292 0,0.38672 l 14.06055,33.94531 c 0.0517,0.12307 0.15,0.22068 0.27344,0.27148 l 33.94531,14.06055 c 0.1238,0.0513 0.26292,0.0513 0.38672,0 l 33.94531,-14.06055 c 0.12344,-0.0508 0.22175,-0.14841 0.27344,-0.27148 l 14.06054,-33.94531 c 0.0513,-0.1238 0.0513,-0.26292 0,-0.38672 l -14.06054,-33.94531 c -0.0513,-0.12381 -0.14963,-0.22218 -0.27344,-0.27344 l -33.94531,-14.06055 c -0.0625,-0.0261 -0.12956,-0.0394 -0.19727,-0.0391 z"
               id="path4298"
               inkscape:connector-curvature="0"
               sodipodi:nodetypes="cccccccccccccccccc" />
          </g>
          <g
             transform="matrix(1.0181242,0,0,1.0181242,-4.7554254,-2.778822)"
             id="g4336">
            <g
               id="g4332"
               transform="translate(-380.05732,0)">
              <path
                 style="opacity:1;fill:#ffd700"
                 inkscape:connector-curvature="0"
                 d="m 621.16502,240.30571 c -4.02331,-1.79254 -6.6265,-5.81014 -6.63136,-10.23536 l 0,-58.34799 55.80853,0 0,58.34652 c -0.004,4.4262 -2.60756,8.44429 -6.63184,10.23683 l -21.27242,9.48505 -21.27291,-9.48505 z"
                 id="path3369" />
              <path
                 id="path4316"
                 d="m 616.68359,173.87305 0,56.19726 c 0.005,3.58269 2.10919,6.82514 5.35547,8.27149 l 20.39844,9.0957 20.39844,-9.0957 c 3.24759,-1.44658 5.35223,-4.69098 5.35547,-8.27539 l 0,-56.19336 -51.50782,0 z"
                 style="opacity:1;fill:#0057b8;fill-opacity:1"
                 inkscape:connector-curvature="0" />
            </g>
            <path
               style="fill:#ffd700"
               inkscape:connector-curvature="0"
               id="path7306-1"
               d="m 262.38062,176.50929 c -1.52337,1.72853 -2.45159,3.99153 -2.45159,6.47486 0.0905,5.45329 0.75907,10.89522 0.81735,16.34662 0.12082,5.08086 -1.40301,9.85279 -3.25615,14.50768 -0.61739,1.28644 -1.2855,2.5454 -1.95359,3.80579 l -1.9664,-0.39613 c -1.76927,-0.35395 -2.9202,-2.07442 -2.56624,-3.84417 0.3094,-1.54847 1.67213,-2.62358 3.19217,-2.63069 l 0.715,0.0767 -1.59585,-13.33306 c -0.52168,-5.93706 -3.58403,-11.1449 -8.09535,-14.53326 -0.77519,-0.58233 -1.59681,-1.11444 -2.45159,-1.58353 l 0,47.35488 10.9298,0 c 0.81735,4.4374 3.25899,8.3029 6.69045,10.95728 0.81641,0.56291 1.50015,1.30493 1.99199,2.17109 0.49183,-0.86616 1.17556,-1.60818 1.99197,-2.17109 3.43193,-2.65438 5.87357,-6.52035 6.69045,-10.95728 l 10.9298,0 0,-47.35488 c -0.85478,0.46909 -1.6764,1.0012 -2.45158,1.58353 -4.51086,3.38836 -7.57368,8.5962 -8.09536,14.53326 l -1.59585,13.33306 0.715,-0.0767 c 1.52004,0.007 2.88277,1.08222 3.19217,2.63069 0.35396,1.76975 -0.79697,3.49022 -2.56624,3.84417 l -1.9664,0.39613 c -0.66809,-1.26039 -1.3362,-2.51935 -1.95359,-3.80579 -1.85314,-4.65489 -3.37697,-9.42729 -3.25614,-14.50768 0.0582,-5.4514 0.72685,-10.8938 0.81735,-16.34662 0,-2.48333 -0.92823,-4.74586 -2.45158,-6.47486 z m -16.34329,11.71115 c 2.11516,2.48286 3.53475,5.57744 3.95835,8.9781 l 1.31535,10.99566 c -1.6745,0.83394 -2.94437,2.36346 -3.42199,4.21423 l -1.85124,0 c -4.7e-4,4.8e-4 -4.7e-4,-24.18799 -4.7e-4,-24.18799 z m 32.68704,0 0,24.18799 -1.85124,0 c -0.47762,-1.85077 -1.74749,-3.38077 -3.422,-4.21423 l 1.31536,-10.99566 c 0.42313,-3.40066 1.84271,-6.49476 3.95788,-8.9781 z m -16.34375,22.10646 c 0.87799,2.87234 2.08626,5.60018 3.58782,8.13517 -1.42859,0.43403 -2.67192,1.27838 -3.58782,2.41369 -0.91639,-1.13531 -2.15925,-1.97966 -3.58784,-2.41369 1.50203,-2.53499 2.70983,-5.26283 3.58784,-8.13517 z m -16.34329,5.35142 1.85124,0 c 0.58376,2.25637 2.34498,4.03892 4.58382,4.66153 l 1.57074,0.35773 c -0.42076,1.52479 -0.65104,3.13155 -0.65104,4.789 l -7.35476,0 0,-9.80826 z m 30.8358,0 1.85124,0 0,9.80826 -7.35477,0 c 0,-1.65793 -0.23074,-3.26421 -0.65104,-4.789 l 1.57075,-0.35773 c 2.23884,-0.62261 4.00006,-2.40563 4.58382,-4.66153 l 0,0 z m -19.6383,5.77219 c 1.98298,0.2805 3.51155,1.97538 3.51155,4.0356 l -4.08582,0 c 0,-1.4016 0.20752,-2.752 0.57427,-4.0356 z m 10.29156,0 c 0.36722,1.2836 0.57475,2.634 0.57475,4.0356 l -4.08583,0 c 0,-2.06022 1.5281,-3.7551 3.51108,-4.0356 z m -10.49578,7.305 3.71577,0 0,6.88331 c -1.80339,-1.88536 -3.11305,-4.25261 -3.71577,-6.88331 z m 6.9847,0 3.71577,0 c -0.60271,2.6307 -1.91237,4.99795 -3.71577,6.88331 l 0,-6.88331 z" />
          </g>
        </g>
      </g>
    </g>
  </g>
</svg>
